<?xml version="1.0" encoding="UTF-8"?><svg id="ARTWORK" xmlns="http://www.w3.org/2000/svg" viewBox="0 0 1000 1000"><path d="M303.3282,527.2571c-.8804,11.8679.4407,23.9274,1.0694,35.792.6324,11.936,1.3261,23.8639,2.093,35.792,1.5127,23.5293,2.9917,47.0565,4.8714,70.56,1.8781,23.4836,3.9185,46.9509,6.6098,70.3564,2.7279,23.7234,6.0842,47.3466,9.4087,70.991,1.821,12.9513,3.6468,25.9005,5.6019,38.8325.9929,6.5675,2.2673,13.0922,3.4846,19.6213.6086,3.2641,1.2228,6.5272,1.8427,9.7893.6204,3.2646,1.7683,6.3655,2.5857,9.5885,1.0223,4.031,7.7074,3.3102,7.4013-1.0017-.1995-2.8108-.0077-5.6727-.3423-8.458-.3672-3.0572-.7643-6.111-1.1391-9.1673-.7208-5.8786-1.3899-11.7634-2.108-17.6422-1.4524-11.8906-3.3332-23.7652-4.855-35.332-3.0679-23.3188-5.41-46.7364-7.8594-70.1266-4.9129-46.9137-9.1573-93.8843-13.5042-140.8527-1.2152-13.1304-2.4493-26.2552-3.8114-39.3712-.6939-6.6812-1.3877-13.3624-2.0816-20.0435-.7042-6.7805-1.387-13.5377-2.9493-20.1828-.871-3.7045-6.0614-2.6073-6.3182.8551h0Z" style="fill:#7e96fc; stroke-width:0px;"/><path d="M401.9255,526.1817c3.5626,21.4969,7.5852,42.8996,11.5734,64.3213,3.9638,21.2903,8.1434,42.5416,12.2376,63.8072,4.0547,21.0598,7.4276,42.2693,12.3751,63.1474,4.9536,20.9043,10.9409,41.5521,17.114,62.1227,6.2502,20.8276,12.1482,41.8237,19.1131,62.4272.5094,1.5069,1.0121,3.1625,1.7661,4.5578.7352,1.3606,1.9356,2.5901,2.9139,3.8036,1.2951,1.6066,3.9847,1.8164,5.7223,1.0831,2.0265-.8552,3.0351-2.6496,3.2201-4.7872.1416-1.6351.3114-3.1352.035-4.7723-.2294-1.3588-.6088-2.7179-.9926-4.0404-.7728-2.663-1.5741-5.3182-2.361-7.9771-1.5438-5.2158-3.0852-10.4322-4.6313-15.6473-3.062-10.3288-6.3832-20.5873-9.5808-30.8751-3.2288-10.3884-6.3988-20.7945-9.8229-31.1201-3.358-10.1265-6.7089-20.2574-9.7799-30.4756-6.1125-20.338-10.7694-41.1437-15.1397-61.9169-4.4529-21.1659-8.8707-42.3396-13.3589-63.4981-4.5066-21.2456-9.0129-42.5132-14.0377-63.6419-.6155-2.5881-1.231-5.1763-1.8466-7.7644-.7095-2.9835-5.0031-1.6718-4.5196,1.246h0Z" style="fill:#7e96fc; stroke-width:0px;"/><path d="M512.8988,554.5378c7.8555,18.6512,15.4094,37.4291,22.6474,56.3286,7.1845,18.7602,14.0645,37.6168,20.3564,56.6958,6.2711,19.016,12.2533,38.1326,17.8651,57.3539,5.6271,19.2736,10.6735,38.7219,15.626,58.1776,4.9232,19.341,9.5034,38.7654,13.7952,58.256.2561,1.1629.4897,2.3775.8706,3.5068.5432,1.6109,1.4425,2.9251,2.364,4.3257,1.3438,2.0428,3.9617,3.4188,6.4347,2.6185,2.5908-.8384,3.8803-2.8796,4.1832-5.4944.1646-1.4208.3572-2.7185.1658-4.1434-.2003-1.4907-.5535-2.9653-.9334-4.4206-.6319-2.4204-1.2738-4.8382-1.9184-7.2552-1.2898-4.8366-2.6-9.6677-3.9306-14.4932-2.6639-9.6611-5.4094-19.2997-8.2356-28.9146-5.6657-19.2749-11.7595-38.4214-18.1485-57.4684-6.408-19.1037-12.9169-38.1669-19.8301-57.0948-6.8953-18.8789-13.9246-37.7242-21.1758-56.4693-7.3112-18.9002-14.9403-37.6764-22.866-56.3271-.9907-2.3313-1.9865-4.6603-2.9864-6.9876-1.0358-2.4109-5.3161-.6464-4.2833,1.8058h0Z" style="fill:#7e96fc; stroke-width:0px;"/><path d="M628.2703,545.7422c10.3267,15.9279,19.5506,32.5416,27.9398,49.5647,8.3697,16.9835,15.8069,34.0869,22.7664,51.3068,7.1366,17.6582,13.8637,35.4842,20.5455,53.3184,6.67,17.8025,13.2704,35.6322,20.1821,53.343,7.082,18.1472,14.5413,36.1182,22.8473,53.7431.9904,2.1016,1.9916,4.1981,3.002,6.2901,2.0396,4.2229,9.3542,4.369,11.3467,0,.6576-1.442,1.2967-2.9711,1.6887-4.5192.3666-1.4479.4514-2.9934.6336-4.4768.2438-1.9849-1.4962-3.9996-3.1636-4.7032-1.9223-.8112-4.105-.3792-5.6219,1.0641-1.8737,1.7827-3.6289,3.7183-4.8834,6.0027h11.3467c-8.3321-17.1288-16.0274-34.5904-23.4989-52.1097-.4257-.9981-.8502-1.9967-1.2736-2.9957-.2418-.5705-.4934-1.1385-.7249-1.7132.0724.1797.5092,1.2087.0729.1725-.1208-.2868-.2416-.5735-.3623-.8603-.9353-2.223-1.8658-4.4481-2.7923-6.6748-1.8235-4.3827-3.6312-8.772-5.429-13.1653-3.6255-8.8596-7.2105-17.7357-10.8029-26.6088-7.2654-17.9455-14.5658-35.8759-22.3411-53.608-7.5854-17.299-15.573-34.4303-24.3207-51.1751-8.7795-16.8059-18.3298-33.225-28.9292-48.9523-1.2985-1.9267-2.6137-3.842-3.9428-5.7478-.7656-1.0977-2.1726-1.6052-3.3949-.8902-1.1176.6537-1.6223,2.2657-.8902,3.3949h0Z" style="fill:#7e96fc; stroke-width:0px;"/><path d="M711.239,502.606c12.3315,16.134,22.2863,33.921,31.3089,52.0699,4.501,9.0536,8.7911,18.2103,13.0837,27.364,4.7576,10.1453,9.678,20.2315,14.2624,30.4561,9.1857,20.487,18.3049,41.0042,27.6851,61.4031,9.3315,20.293,18.6629,40.586,27.9944,60.879,9.3544,20.3429,19.1805,40.5055,29.0739,60.5913,1.2254,2.4878,2.4508,4.9757,3.6762,7.4635,1.5969,3.2421,6.4556,4.3906,9.4304,2.4727,3.3441-2.156,4.1495-5.9462,2.4727-9.4304-9.7086-20.1736-19.659-40.2248-29.5883-60.2906-9.9136-20.0343-20.4246-39.7925-30.6532-59.6681-10.229-19.8764-20.6428-39.6519-31.0619-59.4292-10.0701-19.1149-19.4358-38.5921-29.4608-57.7308-9.4152-17.9746-19.5213-35.6818-31.9393-51.7778-1.4869-1.9274-3.0046-3.8301-4.5523-5.7091-.787-.9554-2.4943.3391-1.7321,1.3364h0Z" style="fill:#7e96fc; stroke-width:0px;"/><path d="M421.9369,504.0144c-53.698-1.1063-107.7663,3.4659-161.0646,9.738-15.55,1.8299-31.0717,3.8904-46.5587,6.1927-3.5201.5233-5.7285,4.4974-5.8648,7.7031-3.876,91.1657-2.7147,182.8347,3.714,273.8571,1.8156,25.7075,4.1111,51.3794,6.9067,76.9988.4436,4.0649,3.3994,8.6324,8.1792,8.1792,98.1657-9.3068,196.1737-20.2535,293.9652-32.9023,97.6921-12.6359,195.1722-26.9107,292.3691-42.9183,54.4907-8.9742,108.891-18.4941,163.1911-28.5578,5.2942-.9812,7.4936-7.8761,4.9419-12.1475-46.0748-77.128-88.3728-156.4796-126.9973-237.5935-10.9432-22.9814-21.5436-46.1234-31.8942-69.3774-1.5085-3.389-5.5733-3.9859-8.7307-3.5529-14.4919,1.9877-29.0128,4.0388-43.4271,6.5232-14.4077,2.4833-28.8279,5.3639-43.3304,7.2423-2.8031.3631-5.1605,2.1272-5.1924,5.1924-.0264,2.5281,2.4114,5.5526,5.1924,5.1924,14.7271-1.9074,29.6153-2.8555,44.4064-4.144,14.8231-1.2912,29.6358-3.0201,44.4064-4.8204-2.2252-1.2763-4.4503-2.5527-6.6755-3.829,35.6857,82.4816,75.7477,163.018,119.6875,241.409,12.4502,22.2118,25.2108,44.2487,38.2746,66.1053,1.6473-4.0492,3.2946-8.0983,4.9419-12.1475-96.4581,17.9007-193.235,34.0742-290.265,48.5568-96.4671,14.3986-193.1825,27.1147-290.0876,38.1864-54.8685,6.2689-109.7973,12.012-164.7763,17.2244,2.7264,2.7264,5.4528,5.4528,8.1792,8.1792-9.9092-90.8082-13.341-182.217-12.4924-273.5324.2396-25.7782.8689-51.5523,1.4901-77.3235l-5.8648,7.7031c52.2829-8.7523,104.9005-14.913,157.7728-18.7164,15.2021-1.0936,30.4047-2.029,45.6032-3.1546,6.0142-.4454,6.162-9.3389,0-9.4658h0Z" style="fill:#7e96fc; stroke-width:0px;"/><path d="M205.8219,341.147c13.3753,15.5719,25.0662,32.3155,36.7473,49.3933,12.0271,17.5835,24.1379,35.0534,37.624,51.5727,12.8675,15.7615,26.9666,30.0484,43.3921,42.115,15.8112,11.6153,33.5345,20.8764,52.4267,26.3136,18.817,5.4156,38.804,6.756,58.0039,2.5899,10.2478-2.2236,20.6922-5.914,28.9761-12.4698,7.8577-6.2185,12.5868-16.2898,11.618-26.3656-.9796-10.1876-5.8652-19.2271-12.8059-26.6355-6.9593-7.4282-15.6736-12.2978-25.258-15.4792-9.366-3.1089-19.1353-4.7018-28.6653-7.1974-2.3603-.6181-4.7079-1.2897-7.0242-2.0574-1.0469-.3469-2.088-.7117-3.1204-1.0997-.4419-.1661-1.5178-.3859-1.8454-.7216,1.2223.5244,1.4955.6398.8197.3462-.3031-.1309-.6049-.2649-.9053-.402-2.2131-1.0048-4.3707-2.1407-6.4325-3.4289-.78-.4873-1.5455-.9976-2.2942-1.5317-.6489-.4629-1.6872-1.6843.2201.2081-.3838-.3807-.8608-.6928-1.2748-1.0447-1.5328-1.3027-2.98-2.706-4.3342-4.1935-.6163-.6769-1.1945-1.3834-1.7886-2.0791-1.3152-1.5401,1.3586,1.8912.1801.2427-.4263-.5963-.8601-1.1856-1.2713-1.7927-1.0285-1.5186-1.9752-3.0926-2.8377-4.7113-.4751-.8917-.9239-1.797-1.3474-2.7142-.1912-.4141-.3493-.8562-.5623-1.2584,1.4255,2.6913.2244.491-.0434-.231-.6398-1.7248-1.1933-3.4813-1.6552-5.2621-.277-1.0678-.5218-2.1442-.7322-3.2271-.0701-.3607-.1368-.7223-.1996-1.0844-.1471-.8482-.1108-3.2531-.0528-.1381-.0357-1.9179-.3557-3.8334-.3728-5.7625-.0187-2.1099.331-4.2049.3392-6.2997-.011,2.8225-.1803,1.2593-.0401.4108.0596-.3607.123-.721.1907-1.0803.2033-1.0784.4435-2.1502.7229-3.2115.517-1.9637,1.3181-3.8099,1.9236-5.7364-.9464,3.0112.0434.0096.4387-.7728.4249-.8412.8757-1.6689,1.3527-2.4817.4313-.7349.8836-1.4578,1.3554-2.1674.2824-.4246.5718-.8445.8681-1.2595.9427-1.3205.3587-.4019-.2958.3298,2.5901-2.8958,5.1456-5.516,8.0416-8.1117.9452-.8472-2.0432,1.5056-.5465.4174.4135-.3006.8225-.6067,1.2404-.9014.6973-.4918,1.4065-.967,2.1261-1.4256,1.7337-1.1049,3.5291-2.113,5.3725-3.0229.7714-.3808,1.5549-.7329,2.3374-1.09,1.7766-.8106-2.2285.8638-.3998.1744.3227-.1217.642-.2527.9646-.3748,1.9394-.7343,3.9171-1.3676,5.9218-1.8981,1.7576-.4651,3.536-.8506,5.3282-1.156.427-.0728.8552-.136,1.2827-.205,1.9589-.3162-2.4759.2628-.5004.0745,1.0351-.0987,2.0671-.2072,3.1055-.2704,1.8995-.1155,3.8048-.1399,5.7066-.0701.8632.0317,1.7258.0827,2.5867.1535.9148.0752,4.3131.8052,1.0434.0696,3.739.8412,7.3848,1.4739,10.995,2.8452.4833.1836.9578.3998,1.444.5742-2.7612-.9905-1.0263-.4256-.3941-.1308.8303.387,1.6497.7977,2.4591,1.2268,1.9015,1.0082,3.7448,2.1251,5.519,3.3435.622.4271,3.338,2.6332.9599.6305.7011.5904,1.4278,1.1484,2.1215,1.7488,1.6521,1.4299,3.2222,2.9544,4.703,4.5608.6144.6665,1.2135,1.3473,1.797,2.0411.3498.416.688.841,1.0321,1.2616.4548.5559.5774,1.247-.498-.6474,1.0585,1.8644,2.5303,3.5516,3.6432,5.402.9347,1.5542,1.8048,3.1469,2.6085,4.7727.477.9649.8407,2.0375,1.3777,2.9663-1.1462-1.9822-.5837-1.4242-.3263-.7712.2673.6782.5394,1.3539.7933,2.0374,1.4013,3.7724,2.478,7.6645,3.2336,11.6168.1724.9019.312,1.8083.4668,2.7131.3459,2.0217-.268-2.388-.0387-.3486.0616.5482.129,1.0954.1842,1.6443.2024,2.0136.3245,4.0348.3659,6.0581.0415,2.0235.0001,4.049-.1225,6.0692-.0557.9179-.1283,1.8348-.218,2.7499-.0538.549-.1205,1.0963-.1796,1.6447-.2095,1.9423.3402-2.1348.0428-.3415-.8363,5.0437-2.167,9.9279-3.5568,14.8436-3.2141,11.3683-5.5937,23.3181-.6329,34.5377,3.6832,8.3301,11.8592,14.1495,20.5852,16.2267,15.6995,3.7373,32.6124-2.2255,44.8785-12.0611,10.4549-8.3833,17.3249-20.6326,21.6307-33.1412,4.4683-12.9809,6.1401-27.0506,6.1277-40.7344-.0121-13.3403-1.6447-26.8854-5.0755-39.7855-4.0909-15.3824-11.4901-29.9556-23.539-40.629-12.563-11.1288-28.3102-17.641-44.5199-21.3875-8.3408-1.9278-16.8247-3.1579-25.3187-4.1779v17.4492c13.8308,1.5931,27.7459.3297,41.6194.4166,3.4736.0218,6.948.1274,10.4124.3874,1.6374.1229,3.2715.2838,4.9027.4708.4951.0568.9894.119,1.4842.1774.156.0184,1.4018.1778.3216.0369s.1661.0243.3217.047c.4949.0722.99.1432,1.4845.2178,6.8574,1.0344,13.6512,2.4498,20.4116,3.987,13.2749,3.0186,26.4546,6.5502,39.9061,8.7264,12.6945,2.0537,25.71,3.8288,37.8283-1.5108,8.6625-3.8169,15.6244-12.1447,17.2445-21.5595,1.8367-10.6732-1.2137-21.3974-7.6651-30.0398-7.429-9.9521-17.4606-16.3643-29.0389-20.5771-9.912-3.6064-20.3953-5.2734-30.773-6.9142-27.9827-4.4241-56.0584-7.7402-84.4133-5.2751-3.5655.31-7.1215.7094-10.6689,1.1831.785,5.8001,1.5699,11.6002,2.3549,17.4003,12.3634-4.4928,24.7446-8.9858,37.4076-12.5744,6.2467-1.7703,12.5598-3.3178,18.9414-4.5204,1.5009-.2828,3.0054-.5468,4.5132-.79.7544-.1217,1.5096-.2381,2.2656-.3494.5037-.0742,1.0087-.1531,1.5138-.2153-.8148.1003-1.0201.1288-.0816.0211,2.9194-.335,5.8435-.5661,8.7797-.691,24.0054-1.0212,51.9552,3.1856,71.807-13.5951,6.8565-5.7958,10.7734-14.6326,9.5697-23.5906-1.2451-9.2663-7.4729-16.7421-15.2673-21.5473-10.0051-6.168-22.133-7.3756-33.5386-8.765-12.5557-1.5294-25.2295-2.0796-37.8709-1.6659-25.6674.8401-51.3539,5.4433-75.6148,13.8913-3.0157,1.0501-6.0081,2.1641-8.9815,3.3286-4.305,1.6859-7.7761,6.0209-6.1941,10.9093,1.5161,4.685,6.0768,7.3706,10.9093,6.1941,17.8016-4.3338,35.3772-9.5736,52.6345-15.7288,7.5382-2.6887,14.9915-5.5905,22.5608-8.1934,7.7235-2.656,15.4606-5.3843,22.8065-8.9828,13.6358-6.6795,26.376-18.1418,27.364-34.2478.5336-8.6981-4.1798-16.3768-11.3601-20.964-7.1385-4.5606-15.8114-6.1205-24.1083-6.8156-36.266-3.038-71.9718,8.3236-104.5828,23.0854-15.7371,7.1236-30.7925,15.4112-46.1109,23.3579-3.8355,1.9897-7.7069,3.9131-11.646,5.69-.8649.3902-1.7341.8399-2.6277,1.1585,2.176-.776-1.0632.4312-1.4765.5959-2.1082.8401-4.2374,1.6282-6.389,2.3502-3.4802,1.1679-7.0178,2.1617-10.6063,2.9371-1.4703.3177-2.9475.6026-4.4296.8598-.7176.1245-1.4363.2422-2.156.3538-.3644.0565-.7292.1115-1.0941.165-.3679.0539-.736.1063-1.1044.1572l1.306-.1758c-14.5948,1.4521-29.0544,1.7969-43.7067.8793-7.3898-.4628-14.7649-1.1735-22.1091-2.1148.068.0087-1.2057-.1079-1.2265-.1593.1199.2961,2.1655.2966.3095.0403-.9044-.1249-1.8085-.2526-2.7117-.3855-2.3885-.3514-4.7761-.6885-7.1744-.9697-1.526-.1789-3.0691-.4701-4.6013-.5745,2.8504.1942-.1346-.0238-.7442-.1112-.9217-.1321-1.8427-.2687-2.763-.4099-1.5147-.2325-3.0275-.4774-4.5378-.7368-.6871-.118-1.3723-.2508-2.0603-.3631-.7424-.0998-1.4849-.1995-2.2273-.2993,1.2769.2203,1.5941.2598.9517.1187-.3793-.1448-.8328-.1938-1.2276-.2868-4.203-.9905-9.1571,1.3103-10.1745,5.7769-.9647,4.2356,1.2724,9.1129,5.7769,10.1745.3022.0712.6645.1944.9801.2297,1.2224.1368-.2344-.2162-.5353-.4,1.1393.6957,2.485.978,3.761,1.3112,1.5591.4072,3.1223.7986,4.6889,1.1762,3.1309.7545,6.275,1.4536,9.4289,2.105,7.4977,1.5486,15.1984,2.3462,22.8125,3.1099,14.4832,1.4525,29.1065,2.0917,43.6512,1.3146,14.3983-.7693,28.6113-2.9937,42.0705-8.309,15.8784-6.2706,30.4141-15.1431,45.5996-22.8367,7.7681-3.9356,15.6218-7.7188,23.5689-11.2797,1.8223-.8165,3.6505-1.62,5.485-2.4087.4578-.1968.9144-.4041,1.377-.5885-1.6757.668-.4192.1761-.0748.0333,1.1527-.4781,2.3058-.9548,3.4628-1.4224,3.931-1.5888,7.8942-3.0991,11.8923-4.5105,8.1194-2.8662,16.3857-5.3285,24.7887-7.2166,4.4916-1.0092,9.0195-1.8586,13.5741-2.53.5195-.0766,1.0419-.1637,1.5632-.2233-.3474.0397-1.7734.2184-.0201.0098,1.0457-.1244,2.0909-.2502,3.1381-.3611,2.3554-.2493,4.7162-.4478,7.0801-.5953,7.537-.4705,15.2429-.5964,22.7627.2061.343.0366.9208.0334,1.2719.1465-1.9853-.6395-.836-.1131-.1435-.0016.837.1348,1.6707.2877,2.5006.4612,1.8385.3844,3.6565.8684,5.4299,1.489.3876.1357.7681.2932,1.156.4267,1.1483.395-1.5065-.7261-.4277-.1816.814.4108,1.6343.7852,2.4267,1.2405.5687.3268,1.3914,1.1379,2.0156,1.2852-.2292-.0541-1.5093-1.3628-.4721-.3345.3158.3131.6394.6275.963.9318.8207.772.2238,1.0485-.2342-.4178.072.2305.4434.643.5552.8229.1715.2759.3128.5709.4835.8462.4304.694-.0392.9377-.2989-.8097.0892.6002.4192,1.207.5607,1.8082.0628.2668.0847.6611.185.9267-.6798-1.8008-.1713-1.6007-.1278-.4688.0247.6446-.0266,1.2798-.0393,1.9227-.0281,1.4173.093-.7646.1468-.9029-.1033.2651-.1162.6795-.1765.9721-.1349.6541-.3023,1.3019-.496,1.9409-.0981.3236-.2038.6456-.3156.9648-.5155,1.4726-.4477.4913.1375-.21-.8153.9769-1.2681,2.5731-1.96,3.6768-.4186.6678-.8937,1.291-1.3275,1.947-.6216.9402,1.1893-1.3844.4269-.5591-.2921.3163-.5531.6644-.8397.9868-1.0131,1.1394-2.116,2.1879-3.2744,3.178-.3064.2618-.6255.5095-.9297.7734-.9069.7864,1.3368-.9709.3595-.2689-.8268.5938-1.6447,1.1935-2.4934,1.7564-2.9379,1.9485-6.0515,3.6203-9.242,5.115-.8596.4027-1.7268.7867-2.5946,1.1712-.4321.1914-1.4697.7649.3647-.1478-.3722.1852-.7961.3288-1.178.4836-1.7743.7193-3.564,1.4005-5.3612,2.0603-6.6585,2.4445-13.4198,4.594-20.0489,7.1205-16.6375,6.341-33.5867,11.8546-50.779,16.4863-4.2355,1.1411-8.4858,2.2258-12.7479,3.2634,1.5717,5.7011,3.1435,11.4023,4.7152,17.1034,11.209-4.3897,22.7241-7.9675,34.4545-10.6741,5.9831-1.3805,12.0175-2.5379,18.0865-3.4708.7283-.1119,1.4571-.2207,2.1864-.3261.3483-.0504,2.8107-.4012.562-.0878,1.4593-.2034,2.9241-.3744,4.3878-.5421,2.9284-.3354,5.8627-.619,8.8011-.8503,11.9977-.9447,24.0642-1.0206,36.0722-.2146,2.9404.1973,5.8773.4475,8.8088.7508,1.4657.1516,2.9301.3165,4.3928.4947.7303.089,1.4657.1655,2.1929.2772-2.3113-.3551.8799.1293,1.2914.1896,5.1619.7564,10.426,1.4809,15.3875,3.1507.5105.1718,1.018.3528,1.5217.5438.8.3033,1.6856,1.1391-.1815-.1024.8067.5364,1.8463.8562,2.7058,1.321.8407.4546,1.6632.9431,2.4618,1.4682.3854.2534.7571.5247,1.1378.7847,1.271.8679-1.7894-1.4982-.0385-.0104,1.194,1.0145,2.1559,2.1731,3.2355,3.2913-2.0789-2.1534-.2823-.348.2113.4551.4564.7425.7499,1.6293,1.2302,2.3431-1.2925-1.9211-.6322-1.679-.3592-.7469.1021.3486.2243.69.3197,1.041.0945.3477.1622.7003.2493,1.0495.2448.9809-.2422,1.4665-.095-.9483-.0422.6924.1101,1.4243.0928,2.1264-.0088.3555-.0546.7102-.0629,1.0648-.0335,1.418.5789-2.6171.0479-.5868-.1542.5896-.2842,1.179-.4765,1.7584-.1118.3369-.3149.7007-.3867,1.0455.4722-2.2671.7493-1.5883.2596-.7394-.395.6847-.7626,1.3731-1.2094,2.0278-.4456.653-1.3662,1.3468.4065-.4766-.3939.4052-.7328.8728-1.121,1.2863-.6149.655-1.2676,1.2741-1.9487,1.8598-.5983.5145-1.7402.9667.3154-.1996-.4181.2372-.8062.5886-1.2052.8595-1.8783,1.2749-3.877,2.2773-5.9201,3.2533-1.1618.555,2.1011-.7853.1991-.0892-.5812.2127-1.1555.4419-1.7393.648-1.3607.4804-2.7402.9076-4.132,1.2883-2.9825.8157-6.0792,1.5159-9.157,1.8522,2.3011-.2514-.1319-.0028-.5047.0377-.7184.078-1.4377.1478-2.1575.2109-1.4438.1265-2.8901.2239-4.3375.2997-2.908.1524-5.8201.2141-8.7318.2363-6.0474.0463-12.0956-.0892-18.1425.0329-28.4741.575-55.5217,10.2563-81.9795,19.8931-4.1818,1.5232-6.9614,5.1342-6.3453,9.7194.5222,3.8863,4.3323,8.2675,8.7002,7.6809,13.5421-1.8185,27.213-2.4017,40.8659-1.9524,6.6505.2189,13.2923.6735,19.915,1.3161,3.3908.329,6.7768.7074,10.1574,1.1284.9128.1137,1.825.2315,2.7371.3501.1305.017,1.4335.1947.3911.0515-1.0429-.1432.2615.0376.3916.056,1.6981.2394,3.3957.4816,5.0915.7362,10.4211,1.5649,20.9585,3.0104,31.2065,5.5022,2.4793.6028,4.9412,1.279,7.3712,2.0581,1.113.3568,2.219.735,3.3161,1.1378.546.2005,1.0897.4069,1.631.6199.3598.1416.7168.2904,1.0761.4333,1.098.4368-1.5721-.7157-.5087-.2068,2.2506,1.077,4.4817,2.1335,6.6202,3.4283.9759.5908,1.9321,1.2135,2.865,1.8701.2666.1876,1.7707,1.3217.7147.4967-1.0449-.8164.6043.5075.8857.748,1.9156,1.6374,3.6341,3.4472,5.2574,5.3708,1.0115,1.1985-.9373-1.3051.2227.3033.3317.4598.6542.9259.9671,1.3988.6534.9876,1.2654,2.0029,1.8265,3.0457.2498.4642.49.9339.7194,1.4085.0913.189.2706.7556.4369.9386.0298.0328-.6952-1.798-.3894-.9297.3562,1.0116.7525,1.9998,1.0518,3.0321.2868.9889.4877,1.9889.701,2.9949.0471.2221.0504.4667.1142.684.0345.1176-.2038-2.1336-.1667-1.2056.0209.5225.0997,1.0452.125,1.5686.0458.9494.0377,1.9014-.0268,2.8496-.0267.3919-.2217,1.9882.0044.3256.2291-1.6852-.04.0985-.1251.503-.172.8175-.3902,1.6262-.655,2.4186-.1326.397-.7789,2.003-.1456.4963.6363-1.5139-.07.0869-.2552.4432-.38.731-.804,1.4399-1.2683,2.1205-.1161.1701-.2461.3335-.3578.5062-.5627.8698,1.3164-1.5584.6129-.7946-.3298.3581-.6309.742-.966,1.0964-.5852.6188-1.221,1.1702-1.8521,1.7396-1.0692.9645,1.6264-1.1145.409-.3179-.4925.3222-.9704.663-1.4747.9676-.7808.4716-1.5933.8658-2.4064,1.2758-1.3398.6756,1.8112-.6464.3666-.1584-.6114.2066-1.2131.4356-1.8316.6229-.9638.2919-1.9434.5335-2.9312.7293-.4749.0942-1.1032.0863-1.5469.2683-.0402.0165,1.9774-.211,1.0036-.142-.4556.0323-.9099.0928-1.3658.1261-2.5937.1896-5.1824.0684-7.7721-.1239-1.5873-.1179-3.1724-.265-4.7546-.4382-.7333-.0802-1.4654-.1698-2.1979-.257-.1648-.0196-1.3987-.1769-.3004-.0341,1.1276.1467-.4701-.0687-.6682-.0973-12.9609-1.8742-25.6637-5.1471-38.4013-8.1212-13.2546-3.0947-26.7117-5.9568-40.3358-6.7132-13.2874-.7376-26.5834.5362-39.875.0965-3.2938-.109-6.5797-.337-9.854-.7113-4.5507-.5203-8.919,4.3842-8.7246,8.7246.2325,5.1904,3.8511,8.1435,8.7246,8.7246,1.1174.1332,2.2337.275,3.3502.4151.5401.0678,1.6237.3363-.6494-.0899.548.1028,1.1131.1531,1.6652.2318,2.0245.2885,4.0456.6014,6.0617.9438,3.9734.6749,7.9286,1.4634,11.8466,2.4095,3.8241.9234,7.6136,1.9964,11.3377,3.2658,1.6611.5662,3.3091,1.1712,4.94,1.8196.4796.1907.9615.4333,1.4524.5908-2.0713-.6649-1.1688-.5016-.6416-.2651,1.0255.46,2.0513.9164,3.0642,1.4039,3.3136,1.5948,6.5272,3.4006,9.5855,5.4442.7782.52,1.5459,1.0554,2.3028,1.606.3324.2418.6656.5665,1.0255.7599-1.9851-1.0665-.7321-.5725-.1486-.103,1.4659,1.1796,2.8821,2.4211,4.2411,3.7226,1.3755,1.3174,2.6924,2.696,3.9444,4.1313.5773.6618,1.1288,1.3437,1.6892,2.0195.9318,1.1238-.3181-.3563-.3777-.5033.2382.5874.8993,1.2048,1.2698,1.7264,2.3708,3.3383,4.421,6.9017,6.1523,10.6114.1647.3529.3268.707.486,1.0624.2805.6263,1.2628,1.8458.0583.1015.5064.7333.7876,1.9818,1.0937,2.8167.5148,1.404.993,2.8216,1.4432,4.2476.8412,2.6645,1.58,5.361,2.2321,8.0778.7082,2.9506,1.3138,5.9257,1.8271,8.9163.2535,1.477.4763,2.9582.6928,4.441.0949.6504.2049,1.9262-.1058-.8024.0492.4325.1109.8639.1635,1.296.106.8699.2045,1.7407.2955,2.6123.6753,6.4631.9483,12.971.789,19.4677-.0795,3.2435-.2675,6.4845-.5753,9.7144-.0785.8236-.1649,1.6465-.2592,2.4684-.0843.7348-.565,3.7412-.0578.6016-.2618,1.6209-.4829,3.2463-.7759,4.8626-1.1411,6.2947-2.8075,12.5109-5.1765,18.4585-.1049.2633-.2133.525-.3187.7881-.6174,1.5413.8883-2.0167.211-.5046-.287.6408-.5699,1.2826-.8686,1.9182-.6504,1.3839-1.3438,2.7478-2.083,4.0865-.7325,1.3265-1.5186,2.607-2.3544,3.8695-.3761.568-.7615,1.1298-1.1565,1.6848-.4542.6381-2.3542,2.8729-.3437.5145-1.9277,2.2613-3.8263,4.4828-6.0363,6.4825-.498.4507-1.0051.8914-1.5211,1.3215-.3101.2585-.63.5054-.9398.7641-1.1924.9957,1.5761-1.1453.6676-.52-1.2879.8863-2.538,1.8008-3.8785,2.6104-1.1796.7124-2.3901,1.3736-3.6267,1.9816-.692.3402-1.3999.6426-2.0977.9694-1.0347.4845,2.2826-.9074.7688-.3323-.5341.2029-1.0646.4133-1.6025.6064-2.9459,1.0573-5.989,1.8357-9.0736,2.3617-.4605.0785-.9307.1285-1.3886.2195,2.7547-.5478,1.0304-.1439.3429-.0856-.8628.0732-1.7284.1142-2.5943.1218-.8599.0075-1.7204-.0176-2.5783-.0769-.4915-.034-1.0402-.1631-1.53-.1425.9363-.0394,2.0478.3245.432.0248-1.8143-.3366-3.4779-1.1091-5.2517-1.5104.113.0256,2.1466,1.0181.8673.3459-.4288-.2253-.868-.4269-1.2925-.6614-.8404-.4642-1.5906-1.0933-2.424-1.5529,2.02,1.1141,1.1929.9977.5827.4059-.285-.2765-.5907-.5315-.8734-.8114-.3408-.3375-.6481-.7035-.9814-1.0472-.9876-1.0183.4981.6452.5566.7658-.4172-.8593-1.1091-1.6273-1.5584-2.4869-.1408-.2693-.2668-.6697-.4408-.9006.5998,1.4718.7216,1.7475.3653.8271-.1194-.3267-.2303-.6563-.3327-.9887-.2673-.8666-.4409-1.746-.6302-2.6317-.4335-2.0277.1071,2.5692.0401.097-.0131-.4828-.0669-.9676-.0861-1.4501-.0479-1.2029-.0265-2.4083.0488-3.6096.0407-.6495-.0072-1.5358.1943-2.1563-.7632,2.3509.0292-.0568.1469-.7043.9434-5.1934,2.5759-10.2241,3.9689-15.3061,1.3659-4.9832,2.292-9.9819,2.8831-15.1166,1.0018-8.7021.3842-17.5602-1.3676-26.13-3.583-17.5284-13.241-33.3924-27.4757-44.2315-14.1533-10.7771-31.8417-14.2356-49.2257-11.6419-16.8225,2.5099-32.2168,11.6464-42.3807,25.2463-10.6814,14.2924-12.9298,33.8494-7.8562,50.7184,2.7132,9.021,7.3755,17.3393,13.7004,24.3199,6.7981,7.5028,15.5689,12.4565,24.9642,15.9667,9.1115,3.4042,18.7315,5.0915,28.1477,7.4064,4.7713,1.173,9.516,2.5023,14.099,4.2861.2463.0959,2.339.8755.5686.2143-1.6592-.6196.0484.0455.3314.1803.8395.3999,1.6652.8288,2.4764,1.2832.9859.5522,1.9503,1.1429,2.8919,1.7678.316.2097.6294.4237.9403.6409.3116.218.6205.4398.9268.6652.8251.6191.6134.4518-.6351-.5018,1.2182,1.3949,2.9416,2.4831,4.2624,3.8165.6683.6746,1.3165,1.3693,1.9425,2.0834.3737.4263.729.8668,1.0961,1.2985,1.2409,1.4589-1.4016-1.9259-.0088.0077,1.1264,1.5638,2.1488,3.2037,3.0335,4.9164.2062.3991.3911.8087.5948,1.2087.3935.7732.4164,1.809-.2513-.6543.2715,1.0016.7352,1.964,1.0222,2.9684.2584.9042.3801,1.8454.633,2.7459.3522,1.254-.2434-2.7497-.1096-.8822.0359.5004.0858.9972.104,1.499.0302.8328-.0215,1.6551-.0502,2.4867-.0641,1.8534.4612-2.1582.1441-.9096-.1426.5616-.2118,1.1445-.3557,1.7083-.2073.8118-.5872,1.5928-.7791,2.401.5951-2.506.609-1.391.1398-.4903-.2039.3915-.4219.7745-.6502,1.1522-.2335.3862-.4908.7546-.7343,1.1341-1.1868,1.849,1.5009-1.6297.0055-.0362-.8601.9165-1.7496,1.7632-2.68,2.6092-1.5655,1.4235,1.4331-.9636.2733-.209-.4394.2858-.8598.6021-1.3003.8874-.8864.5741-1.8,1.1055-2.7301,1.6053-1.0281.5524-2.0798,1.0598-3.1447,1.537-1.721.7712-.1167-.3709.322-.1266-.2399-.1336-2.044.7964-2.3573.9125-4.0895,1.515-8.2875,2.7354-12.5508,3.6532-2.1884.4711-4.4971.6388-6.6598,1.1828,2.5533-.6423,1.2901-.1717.5007-.0787-.5072.0598-1.0147.116-1.5228.1677-1.2184.124-2.4392.2244-3.6614.3029-4.4852.2879-8.9896.2656-13.4735-.0348-2.1522-.1442-4.2923-.375-6.4346-.6215-1.4278-.1643,2.6064.3918.4804.063-.6116-.0946-1.2242-.1821-1.8352-.2807-1.2249-.1975-2.4468-.4135-3.665-.6489-4.5036-.8703-8.9572-1.9923-13.3429-3.3349-4.2466-1.3-8.3948-2.844-12.5201-4.4832-2.1047-.8364,2.0753.9114-.003.0044-.5858-.2556-1.1729-.5079-1.7572-.7672-.9755-.433-1.9417-.8857-2.9123-1.3294-2.1447-.9804-4.2701-1.9976-6.3707-3.0705-8.4393-4.3108-16.519-9.3229-24.1813-14.8965-.8697-.6326-1.7343-1.2723-2.5934-1.9193-.5115-.3852-1.0513-.7557-1.5388-1.1709.1813.1544,1.6768,1.3182.3831.2895-1.931-1.5354-3.8505-3.0815-5.7325-4.6769-3.5156-2.9802-6.9402-6.0771-10.2272-9.3083-14.5979-14.35-27.7471-29.8758-40.2829-46.047-.2427-.3131-1.2012-1.5549-.2319-.2983-.4299-.5573-.8577-1.1153-1.279-1.6792-.9729-1.302-1.9802-2.5674-3.0164-3.8166-1.6367-1.973-3.1779-4.0338-4.7597-6.051-3.1679-4.0401-6.3267-8.0873-9.499-12.1239-6.343-8.071-12.7401-16.1022-19.3642-23.9453-6.3244-7.4883-12.8622-14.7955-19.7216-21.7987-1.9798-2.0213-5.4223-1.9859-7.4082,0-2.1287,2.1287-1.849,5.2555,0,7.4082h0Z" style="fill:#003033; stroke-width:0px;"/><path d="M235.0964,138.5296c4.0294,3.6708,8.4979,6.8664,12.859,10.1282,1.0497.7851,2.0994,1.5702,3.1491,2.3554.5083.3802,1.0095.7728,1.5259,1.1419.6338.4529-.9339-.762-.3394-.2645.1888.158.3837.3087.5717.4679.3769.3192.7429.6507,1.0885,1.0037.1711.1748.3249.3709.499.5416.5231.5133-.6767-1.0852-.3539-.4495.0992.1954.2363.4309.3638.6088.3878.5413-.3653-1.2701-.2577-.6167.0396.2404.2197,1.1024.0728.0111-.1614-1.1998-.0801.162-.0957.3907l.2492-1.8549c-.3637,2.6956-1.3155,5.2912-2.1165,7.8794-.8267,2.6711-1.6614,5.3398-2.5041,8.0059-1.6614,5.2564-3.3921,10.4907-5.0446,15.7498-3.3277,10.5907-6.782,21.1415-10.3619,31.6497-7.1603,21.0178-14.823,41.8644-22.9786,62.5164-4.5766,11.5893-9.3296,23.1069-14.1721,34.5873l.7911-1.8745c-1.6466,3.8999-3.3096,7.7928-4.991,11.6778-1.8522,4.2795-4.2611,8.6251-5.2504,13.18-.7839,3.6092.7819,7.207,4.2569,8.6734,3.5662,1.505,7.015.0082,9.181-3.0082,2.2219-3.0942,3.5193-6.8017,5.0421-10.2856,1.503-3.4384,2.992-6.8829,4.4671-10.3334,3.1858-7.4521,6.3002-14.9333,9.3391-22.4464,5.6283-13.9148,11.0321-27.9204,16.2079-42.0098,10.3477-28.1677,19.9881-56.6496,28.1034-85.5448,1.1144-3.968,2.3659-7.9378,3.2815-11.9565.7788-3.4182.6431-6.9152-1.109-10.0308-1.2018-2.137-3.0572-3.7965-5.1066-5.097-1.4971-.95-3.164-1.6235-4.7733-2.3535-1.9377-.879-3.8755-1.7579-5.8132-2.6369-4.137-1.8765-8.306-3.7886-12.6068-5.2588-3.0733-1.0505-5.54,3.2977-3.1742,5.4529h0Z" style="fill:#003033; stroke-width:0px;"/><path d="M147.1569,313.9338c31.6126-53.1303,65.8036-125.2048,84.6403-184.0891-31.9877-17.4519-56.7687-47.4513-68.5266-81.8872-3.6596-10.7181-16.7802-14.7432-25.8275-7.9303-9.7014,7.3055-18.8676,15.3927-27.9778,23.44-24.5446,21.681-49.0893,43.3619-73.6339,65.0429-3.97,3.5068-8.0954,7.2386-9.8496,12.2367-1.8748,5.3417-.7257,11.227.6358,16.722,15.8887,64.1272,59.7784,120.79,117.8965,152.2073" style="fill:#003033; stroke-width:0px;"/><path d="M149.4582,315.2789c13.7557-22.2494,26.7626-44.9924,38.9258-68.1503,12.8542-24.4735,24.3869-49.7135,34.9233-75.2657,5.4595-13.2401,10.5427-26.6141,15.0442-40.2113.924-2.7911-.6027-6.2636-3.1237-7.6761-3.5108-1.967-6.9282-4.0891-10.2804-6.3149-1.6451-1.0923-3.2674-2.2191-4.8656-3.3789-.742-.5385-1.4789-1.0839-2.2104-1.6365-.1771-.1337-1.5541-1.1876-.6464-.4894.7941.6108.1906.1467.0297.0197-.2767-.2185-.5542-.436-.8302-.6554-6.2395-4.9615-12.0689-10.4368-17.4269-16.3388-1.3284-1.4632-2.6277-2.9528-3.8975-4.4671-.635-.7572-1.2624-1.5208-1.8822-2.2905-.2656-.3299-.53-.6608-.7928-.9929-.1753-.2214-.3486-.4443-.5239-.6657-.5667-.7157.1183.1467.3006.3932-2.3954-3.2394-4.7741-6.4707-6.9689-9.8524-4.3411-6.6886-8.1538-13.7219-11.3736-21.0171-.1994-.4517-.3964-.9045-.5913-1.3582-.0835-.1943-.1636-.3905-.2494-.5838-.02-.045.5747,1.3845.2871.6757-.3979-.9804-.802-1.9577-1.1872-2.9432-.719-1.8393-1.3966-3.6939-2.0432-5.5598-1.3999-4.0395-3.4958-7.847-6.7798-10.6735-6.2493-5.3787-15.0926-7.6817-23.0532-4.96-4.7376,1.6198-8.3454,4.6819-12.2299,7.7448-3.8918,3.0686-7.7005,6.2415-11.4645,9.4653-7.6211,6.5273-15.0989,13.2229-22.6205,19.8641-15.4118,13.6076-30.8235,27.2153-46.2353,40.8229-3.8188,3.3718-7.6377,6.7436-11.4565,10.1154-3.4285,3.0272-7.0364,5.9419-10.1808,9.2714-3.5106,3.7173-6.5548,8.2373-7.4621,13.3591-.9915,5.5967-.2787,11.0794,1.0202,16.571,3.7419,15.8194,9.4032,31.2138,16.3127,45.9139,6.6964,14.2465,14.8008,27.8281,24.1264,40.5092,9.6075,13.0645,20.3363,25.2479,32.2947,36.21,11.915,10.9222,24.9233,20.7455,38.7601,29.1051,3.2981,1.9925,6.7335,3.6404,10.114,5.4718,3.0003,1.6255,7.2451.8433,8.9274-2.3409,1.6078-3.0432.864-7.1911-2.3409-8.9274-3.3523-1.8162-6.5697-3.9784-9.8242-5.9676-3.3274-2.0339-6.6029-4.1526-9.8232-6.3521-3.1626-2.1602-6.272-4.3983-9.3251-6.7108-.3886-.2943-.7745-.5922-1.163-.8867-.5991-.4542.601.4665.5647.4379-.1639-.1293-.33-.256-.4947-.3842-.8238-.6413-1.6434-1.288-2.4586-1.9402-1.4676-1.174-2.9212-2.3655-4.3605-3.5739-11.7863-9.8951-22.6198-20.9365-32.3536-32.8546-1.2341-1.511-2.4468-3.0388-3.6475-4.5765-.7483-.9584.9711,1.2671-.0576-.0768-.2541-.332-.5073-.6646-.7597-.9978-.631-.8331-1.2567-1.6702-1.8769-2.5114-2.274-3.0843-4.4759-6.2216-6.6027-9.4091-4.2912-6.4314-8.2774-13.0666-11.936-19.8778-1.8123-3.3739-3.5441-6.791-5.193-10.2476-.8393-1.7595-1.657-3.5293-2.4529-5.3089-.3695-.8262-.7344-1.6544-1.0943-2.4848-.1661-.3833-.3313-.7669-.4954-1.151-.1092-.2555-.213-.5152-.3269-.7688.1154.2571.5752,1.3781.217.5087-2.9456-7.1491-5.5953-14.4083-7.8468-21.807-1.1154-3.6654-2.1396-7.3588-3.0683-11.076-.2573-1.0299-.5074-2.0618-.7333-3.0991-.1256-.5766-.2449-1.1546-.353-1.7348-.0463-.2485-.0904-.4975-.1329-.7467-.0434-.2488-.084-.4981-.1217-.7478l.1094.8512c.0676-1.0447-.2212-2.18-.2368-3.2391-.0085-.5772.0006-1.1548.0364-1.7311.0152-.245.0501-.4918.0593-.7368.0354-.9407-.2771,1.2995-.0499.3864.139-.5588.2249-1.1275.3823-1.6833.0831-.2935.7429-1.9729.2682-.9363-.4621,1.0089.1707-.3227.2923-.5561.2688-.5155.5621-1.0167.8762-1.5058.1196-.1862.9228-1.1582.8701-1.2576.0121.0227-.8987,1.0956-.4128.541.1449-.1653.2793-.3412.4216-.509.7179-.8464,1.4845-1.651,2.2743-2.4302,3.2818-3.238,6.8593-6.1959,10.3125-9.2476,15.0646-13.3128,30.1291-26.6256,45.1937-39.9385,14.7033-12.9935,29.1386-26.4173,44.5015-38.6355.4758-.3784.9528-.7552,1.4311-1.1305.3106-.2437,1.7293-1.4427.4493-.3565.8379-.711,1.7553-1.3791,2.6597-2.0023.6332-.4363,1.2963-.829,1.9832-1.1746.2068-.104.4251-.1897.6281-.2996.6547-.3543-.9603.4611-.8583.3626.2552-.2463.9627-.3448,1.2912-.4423.7032-.2086,1.427-.2982,2.1332-.4801.7112-.1832-1.1266.2401-1.0125.1382.062-.0554.6354-.0545.6627-.0562.3858-.025.7725-.0356,1.1591-.0337.3853.0019.7706.0164,1.1549.0448.1638.0121.3285.0364.4924.0446.8461.0424-1.688-.2953-.8603-.1166.7531.1626,1.4994.2964,2.2387.5236.3673.1129.7245.2485,1.0875.3735,1.0707.3686-1.4451-.7097-.4434-.1801.7334.3878,1.4572.7582,2.1482,1.2212.241.1615,1.2221.8974.2388.1398-1.0297-.7934.1.1132.3202.3145.5722.523,1.0318,1.2182,1.6186,1.7076-.0443-.0369-1.0429-1.4661-.4583-.5896.0952.1427.1978.2805.2937.4228.2256.3351.4398.6777.6404,1.0283.1742.3046.3388.615.4934.93.1004.2046.1817.4542.2993.6442-.098-.1583-.5899-1.5368-.2945-.6498.6173,1.8538,1.2971,3.6902,1.9984,5.5137,5.9591,15.4945,14.2184,29.7623,24.578,42.7246,10.0105,12.5256,22.0606,23.4214,35.4609,32.224,3.1845,2.0919,6.4887,4.0023,9.8476,5.7993-1.0412-2.5587-2.0825-5.1174-3.1237-7.6761-7.6787,24.7984-16.7315,49.1819-26.69,73.1505-.6459,1.5546-1.2966,3.1071-1.9495,4.6588-.3656.8689.4989-1.1745-.1093.2578-.1893.4457-.3779.8917-.5673,1.3373-.3791.8919-.7594,1.7832-1.141,2.6741-1.3374,3.1223-2.69,6.238-4.0576,9.3472-2.7343,6.2163-5.5725,12.3847-8.3614,18.576-5.5495,12.32-11.3243,24.539-17.3358,36.6403-6.3732,12.8293-13.0673,25.4711-20.1753,37.909-1.7076,2.988,2.7999,5.606,4.6025,2.6903h0Z" style="fill:#003033; stroke-width:0px;"/><path d="M86.2215,210.8239c-.9033,1.3785-1.0162,3.0518-.6533,4.625.1712.742.5506,1.4848.8433,2.1546l-.5981-1.4173c.294.7122.5396,1.4426.99,2.0707.4554.635.9325,1.3078,1.4946,1.8643,1.7252,1.7079,3.8808,2.1916,6.1943,2.3223,3.2277.1824,6.5368-1.5624,8.1889-4.3431,1.0495-1.7664,1.0344-4.0444,0-5.812-.5119-.8652-1.2004-1.5537-2.0656-2.0656-.898-.5208-1.8667-.7829-2.906-.7861-.7537.0795-1.5018.1518-2.2569.2603l1.6113-.2165c-.4122.0506-.8216.0427-1.2332-.01l1.7055.2292c-.7542-.1107-1.4977-.247-2.2571-.2619-.2172-.0043-.4331-.0235-.6484-.0518l1.7364.2333c-.3981-.059-.7884-.1547-1.1659-.2953-.895-.3334-1.8423-.2961-2.7729-.4165.5619.0755,1.1238.151,1.6858.2265-.4478-.0659-.8851-.1863-1.3027-.3607.4607.1944.9214.3888,1.3821.5832-.1192-.0526-.2368-.108-.3513-.1703-.0618-.0336-.121-.0717-.1827-.1054l-1.3202-.5571c-.263-.0493-.5279-.086-.7949-.1102-.3701-.0497-.5947-.1055-.9155-.0919-.3267.0138-1.0638.1058-1.3869.1794-1.2666.2885-2.3335,1.2741-3.0208,2.3229h0Z" style="fill:#7e96fc; stroke-width:0px;"/><path d="M110.8316,239.2203c-.9033,1.3785-1.0162,3.0518-.6533,4.625.1712.742.5506,1.4848.8433,2.1546l-.5981-1.4173c.294.7122.5396,1.4426.99,2.0707.4554.635.9325,1.3078,1.4946,1.8643,1.7252,1.7079,3.8808,2.1916,6.1943,2.3223,3.2277.1824,6.5368-1.5624,8.1889-4.3431,1.0495-1.7664,1.0344-4.0444,0-5.812-.5119-.8652-1.2004-1.5537-2.0656-2.0656-.898-.5208-1.8667-.7829-2.906-.7861-.7537.0795-1.5018.1518-2.2569.2603l1.6113-.2165c-.4122.0506-.8216.0427-1.2332-.01.5685.0764,1.137.1528,1.7055.2292-.7542-.1107-1.4977-.247-2.2571-.2619-.2172-.0043-.4331-.0235-.6484-.0518l1.7364.2333c-.3981-.059-.7884-.1547-1.1659-.2953-.895-.3334-1.8423-.2961-2.7729-.4165l1.6858.2265c-.4478-.0659-.8851-.1863-1.3027-.3607l1.3821.5832c-.1192-.0526-.2368-.108-.3513-.1703-.0618-.0336-.121-.0717-.1827-.1054l-1.3202-.5571c-.263-.0493-.5279-.086-.7949-.1102-.3701-.0497-.5947-.1055-.9155-.0919-.3267.0138-1.0638.1058-1.3869.1794-1.2666.2885-2.3335,1.2741-3.0208,2.3229h0Z" style="fill:#7e96fc; stroke-width:0px;"/><path d="M702.9606,438.1832c-.6745-9.4425-1.3502-18.8849-2.0258-28.3279-.2296-3.2071-.6988-6.8575-3.344-8.6857-2.049-1.4164-4.7604-1.253-7.2411-1.0339-11.4859,1.0162-22.9708,2.033-34.4556,3.0492-2.2775.2015-4.8543.568-6.1636,2.442-1.1647,1.6665-.8777,3.9021-.6215,5.918.6138,4.8294.7275,9.9448-1.3822,14.3315-2.1086,4.3867-7.017,7.7473-11.7619,6.6632-7.6286-1.7432-8.9357-11.8828-13.4422-18.281-4.4403-6.3044-12.6352-9.0815-20.3455-8.9302-7.7103.1512-15.1269,2.792-22.3835,5.4018,1.1769,6.3783,3.9357,12.5513,3.7183,19.034-.2175,6.4826-5.0751,13.5874-11.5301,12.9493-4.936-.4885-8.3594-5.1628-10.2583-9.7455-1.8989-4.5821-3.0536-9.6682-6.4065-13.3235-7.4818-8.1569-20.7915-4.8896-31.1558-1.0057-1.5379.5757-3.1839,1.2392-4.0517,2.6336-1.2895,2.0755-.318,4.7361.3323,7.091,1.5334,5.5514.8909,11.9309-2.7357,16.4048-3.6266,4.4739-10.5343,6.3562-15.4714,3.3909-6.6317-3.9838-7.0346-13.8606-12.8527-18.9594-6.0907-5.3384-15.4095-3.5046-23.2203-1.3618-3.5681.9798-7.1384,1.959-10.7065,2.9383-1.518.4168-3.1629.9202-4.0506,2.2201-.9516,1.3932-1.7757,3.8446-.4692,4.9122,31.3316,25.6031,15.3196,48.3288,9.1874,58.7578l1.3104-5.4272c-1.2696,7.4829,1.0079,15.4305,5.0475,21.9507,4.6158,7.452,11.3226,13.3467,18.0933,18.9142,4.1311,3.3964,8.4478,6.784,13.5394,8.4229,5.9019,1.9,12.2808,1.279,18.4477.6381,44.322-4.6092,88.6452-9.2183,132.9683-13.827,6.8856-.7159,13.9644-1.4887,20.085-4.7212,2.7799-1.4683,5.2848-3.408,7.6485-5.4813,14.2216-12.4762,23.6332-30.3024,25.9162-49.0824,1.2034-9.9006.4935-19.9216-.2186-29.8696Z" style="fill:#7e96fc; stroke-width:0px;"/><path d="M702.9607,438.1833c-.5857-7.9717-1.4058-15.9263-2.6201-23.8528-.5683-3.3915-.7593-8.0311-2.9824-10.5172-2.1397-2.2371-6.4315-.3256-9.1387.1257-5.945,1.395-25.4579,6.1356-30.947,7.3201-.0003.0001-.7217.1593-.7217.1593-.2068.0496-.3884.0999-.5588.1492-.6431.1907-1.0444.4346-.8342.5063,1.0721.0605,2.5304-1.627,2.8578-2.6052.4392-1.1781.3428-.5852.7532.7385,2.583,10.5177.9415,22.2206-8.7733,28.9399-6.7654,5.0613-16.8427,5.4887-23.5608.2913-4.7871-3.4084-7.728-9.2575-9.8136-14.0425-1.2618-2.639-1.7853-4.1931-3.3817-5.9958-8.3393-7.193-20.3429-2.0907-29.9067,1.1692,0,.0003,6.7438-11.7363,6.7438-11.7363,1.2297,6.1983,4.0277,13.0298,3.8949,20.399-.0646,7.0086-2.7258,13.576-7.8729,18.5249-9.7818,9.2541-23.9031,6.0256-30.8074-4.7351-2.1688-3.1375-3.6973-7.0435-4.8489-10.3221-.901-2.3351-1.4989-4.444-2.904-6.0542-4.1014-3.8534-15.0603.1021-20.084,1.9276-.4358.163-.562.2604-.2376.0692.2932-.1748,1.1357-.7878,1.8101-1.9053.6589-1.0298.8953-2.2773.9021-2.844.0222-.5854-.0457-.6704.0051-.4595.3085,1.143.8798,3.1375,1.126,4.4515,1.9131,9.0468-.5825,19.9176-7.9008,26.2401-6.158,5.3833-15.0253,7.5441-22.9855,4.5957-4.9537-1.7061-9.3967-6.2191-11.7282-10.4464-1.9931-3.1526-3.9167-8.7766-5.4641-10.6647-.6977-.7932-.7475-.8359-1.7282-1.1641-3.1707-.8089-8.1098.3299-11.9495,1.3741-.0002,0-8.5244,2.3379-8.5244,2.3379l-2.1394.5872c-.7805.2087-1.147.3284-1.095.314.0437-.0295.6704-.2173,1.6248-1.1233.2227-.22.4644-.4893.6865-.7817l.2246-.3186c.1357-.1876.202-.3565.2925-.5486.9803-2.4798-.1784-6.3593-2.7011-8.3779,9.272,7.524,18.5507,18.3891,21.3819,31.0223,2.7359,11.0739.0212,23.1293-5.232,32.8625-1.4203,2.7241-3.1675,5.6407-4.7118,8.2166-2.9513,4.9638-9.3678,6.5949-14.3315,3.6435-4.0361-2.3999-5.863-7.1035-4.8201-11.4417l1.3103-5.427c1.3348-5.6332,6.9997-9.111,12.627-7.751,5.3806,1.2993,8.7686,6.5779,7.8464,11.9541-1.6922,11.7821,8.6183,22.1677,17.7901,29.6436,9.8328,8.3895,12.631,9.7282,25.6281,8.1654,27.546-2.8695,98.1151-10.1978,124.7492-12.9717,7.688-.6709,15.7857-1.8257,23.0193-3.3776,3.9616-.8783,7.3358-3.157,10.7-5.526,10.4434-7.5066,19.432-17.8298,24.6138-29.9592,5.6509-12.6487,5.795-27.1161,4.7178-40.7793h0ZM702.9607,438.1833c.8857,12.2317,2.3901,24.5585,1.1172,36.8647-1.8215,18.5529-9.3583,37.1691-22.7095,50.5793-7.7468,8.0314-18.1214,11.5849-28.8518,11.9499-6.7708.5162-44.4743,4.6822-52.0296,5.3729-7.3795.5263-90.1744,10.0171-95.0462,9.2709-4.5911-.1311-9.7633-1.1092-14.0457-3.0957-6.4272-2.9551-10.4209-6.4674-15.2715-10.4455-10.6292-8.6518-21.6135-20.2004-24.5944-34.8746-.9598-4.5068-1.2328-9.381-.4049-14.3154l20.4734,4.2034-1.3105,5.427-19.1777-7.7542c8.2575-13.0528,12.3627-23.9661,1.5862-37.1157-2.4387-3.0018-5.4797-5.8542-8.5404-8.3847-3.7771-3.0613-5.0688-8.7006-4.011-12.6947.5488-2.5342,1.5348-4.5479,2.9999-6.5891,1.6363-2.3454,5.0464-4.4462,6.8166-5.0121,2.3188-.8347,3.3689-1.0385,5.2832-1.579,6.0219-1.5978,12.3964-3.6913,18.7974-4.4473,9.0197-1.2926,19.6377,1.2318,25.5349,9.3406,3.8416,5.1855,4.606,8.7043,6.9288,12.8459.555.8775.7399,1.1757,1.1016,1.4507.0381.0293-.0884-.0476-.104-.0462-.0789-.0293-.03.0061.1724-.0034,3.5894-.4673,3.4251-5.6817,2.5418-8.5012-3.5461-11.013,1.0163-19.1033,12.021-22.4201,4.044-1.4151,7.9454-2.6129,12.4282-3.3863,10.8803-2.1325,23.5572.3298,30.3585,10.2341,3.1844,4.3987,4.5939,9.5253,6.4387,14.0877.4964,1.1572,1.3258,2.6378,2.0921,3.2692.1877.169.061-.0044-.2727-.071-.2666-.0703-.8213-.0764-1.1882.051-.3696.1172-.4341.2312-.3008.1072.9154-.8903,1.4124-2.6911,1.2548-4.0107-.3038-4.8908-2.5135-10.0783-3.5377-15.8635-.9605-5.1011,1.976-10.033,6.7131-11.7273,13.1627-5.0274,28.9627-9.2182,42.8613-2.5183,8.0676,3.568,13.3656,10.4853,16.5693,18.3507.9817,2.1299,2.1944,4.8902,3.1272,5.8272-.19-.1284-.5247-.2893-1.0843-.281-.2192.012-.3437.0547-.3499.0444-.0073-.0134.0598-.0884.1638-.1899.2043-.2217.4536-.6628.5168-.8833,1.8496-4.0999,1.2092-8.2619,1.4487-13.208.526-7.921,7.0476-13.2298,14.6526-13.0745,6.8865.088,26.4015,1.4665,33.4558,1.7975-.0002.0001,3.047.1544,3.047.1544,9.4989.0597,12.1905,5.3275,11.5418,14.2748-.1246,9.0054.1455,18.0308.7866,26.9889h0Z" style="fill:#7e96fc; stroke-width:0px;"/><path d="M407.2201,436.0204c1.8217,1.4781,3.6897,3.197,5.7835,4.2666,1.8577.949,3.8194,1.7356,5.7189,2.5988,4.2418,1.9275,8.5449,3.66,12.8355,5.4704-.675-.2849-1.3501-.5697-2.0251-.8546,2.2221.9483,4.3977,1.99,6.6252,2.9262-.7112-.3001-1.4224-.6003-2.1336-.9004,3.4355,1.4946,6.7949,3.2039,9.7705,5.4987-.6362-.4916-1.2725-.9831-1.9087-1.4747,2.5198,1.9902,4.78,4.3248,6.7471,6.8604l-1.524-1.9725c1.9789,2.6045,3.6154,5.4284,4.8952,8.4385l-1.0026-2.3759c1.282,3.1017,2.1256,6.3324,2.5787,9.6569-.1203-.8956-.2407-1.7912-.361-2.6869.3018,2.4238.3377,4.8489.0371,7.275l.3608-2.6849c-.3063,2.1811-.8687,4.2871-1.7235,6.318l1.0174-2.411c-.7225,1.6313-1.6114,3.1508-2.6989,4.566l1.5773-2.0416c-1.1348,1.4181-2.4229,2.6654-3.8448,3.7934.6802-.5255,1.3603-1.051,2.0405-1.5765-3.1631,2.4405-6.765,4.1852-10.4046,5.7907-1.8071.7972-3.6409,1.5407-5.4323,2.3728-1.4869.6907-2.7518,1.9548-4.0257,2.9658-1.2752,1.0122-2.1982,2.2765-3.1627,3.5873-1.8056,2.4539-1.4575,6.3687,0,8.8594,1.4927,2.5508,4.5418,4.5223,7.5783,4.3469,2.3524-.1359,4.9362-.5261,7.1974-1.2908,2.419-.818,4.8053-2.0603,7.156-3.0795,3.3776-1.4644,6.7618-2.9967,9.8119-5.0792,4.3301-2.9565,8.1731-6.556,10.7359-11.1924,2.723-4.9264,4.1178-10.4953,4.2378-16.1129.1893-8.8605-2.9475-18.0372-8.1189-25.1945-3.1112-4.306-6.4488-7.7746-10.7366-10.9079-3.7889-2.7687-8.2314-4.5879-12.632-6.1366-5.3015-1.8658-11.1236-2.7576-16.6886-3.3316-2.6158-.2698-5.2318-.5367-7.8477-.805-1.4134-.145-2.6714-.1799-4.086-.032-1.6028.1676-3.1938.391-4.7863.6357-2.5307.3887-3.5202,4.3243-1.5613,5.9137h0Z" style="fill:#003033; stroke-width:0px;"/><path d="M494.2794,459.2201c4.0837.1692,8.2113-.1777,12.1587-1.2708,1.7946-.4969,3.5725-1.0541,5.3295-1.6713,2.3893-.8392,5.3486-1.6818,7.1001-3.604,1.578-1.7318,2.1135-4.0723,1.1866-6.2688-.8474-2.008-2.9695-3.6358-5.2444-3.5276-2.6988.1284-5.1387,1.5908-7.56,2.6844-.35.1581-.7019.3116-1.0531.467-.5752.2472-.4693.2042.3176-.129-.2386.0998-.4776.1986-.7171.2962-.8374.3414-1.6804.6692-2.5284.9833-1.1759.4355-2.3507.8313-3.5004,1.3396-.4584.2027-.9126.4145-1.3719.6153-.2708.1184-1.3204.6337-.1745.0791-1.9293.934-3.9863,1.7088-5.9603,2.5568-1.5412.6621-2.3303,2.991-1.8372,4.5147.5598,1.7298,2.03,2.8594,3.8549,2.935h0Z" style="fill:#003033; stroke-width:0px;"/><path d="M554.3208,448.4061c1.0437.4029,2.1679.2318,3.2555.1855.8598-.0366,1.7148-.0504,2.5703-.1448,1.7837-.1969,3.5697-.3627,5.3603-.4822,1.7356-.1158,3.4737-.1928,5.2128-.2313.8823-.0195,1.7411-.0291,2.6169-.1449,1.3534-.179,2.3565-.2912,3.543-1.0262.6601-.4089,1.2537-.9776,1.8463-1.4882,2.6447-2.279,1.6163-6.5615-1.0602-8.2273-1.4606-.9091-2.9467-1.4981-4.7033-1.3918-1.357.0821-2.6811.3441-4.0077.6209-1.7033.3554-3.3987.7483-5.0845,1.1788-1.6923.4322-3.3775.8973-5.0476,1.409-1.1046.3385-2.1576.8229-3.2188,1.2777-1.0974.4703-2.2396.8527-3.0471,1.7832-2.0882,2.406-1.1197,5.5684,1.7641,6.6817h0Z" style="fill:#003033; stroke-width:0px;"/><path d="M626.6009,438.1186c2.5034-.0164,5.0084-.0073,7.5115-.0493,1.2269-.0206,2.4581-.1542,3.6821-.2405.8982-.0634,1.7904-.131,2.6814-.2714.9452-.1489,1.943-.2913,2.7281-.8817,1.2517-.9413,2.1287-2.0592,2.1287-3.7112,0-1.3725-.7878-3.1301-2.1287-3.7112-.9134-.3958-1.5844-.7083-2.6112-.6977-.3428.0035-.6891.0305-1.031.055-.8961.0642-1.7822.2205-2.6678.368-1.2572.2094-2.5313.3751-3.7781.639-2.4864.5263-4.9559,1.1548-7.4312,1.7316-1.6709.3893-2.6867,2.158-2.4686,3.7813.2241,1.668,1.6579,2.9996,3.3848,2.9882h0Z" style="fill:#003033; stroke-width:0px;"/><path d="M469.6032,516.7861c28.7128-7.9962,57.8464-14.7094,87.2699-19.4974,14.7873-2.4063,29.6735-4.1058,44.5996-5.3803,14.7772-1.2618,29.57-1.5607,44.3892-1.9432,8.2889-.214,16.5815-.2831,24.8727-.2069,4.1466.0381,8.2929.1127,12.4383.2234,4.3038.115,8.6277.6849,12.9126,1.0952,2.208.2114,4.323-2.0954,4.2275-4.2275-.1005-2.2443-1.859-4.2852-4.2275-4.2275-3.8263.0933-7.6521.346-11.4776.4151-3.6639.0662-7.3375-.0504-11.0028-.0329-7.4962.0358-14.9919.1904-22.4832.4633-15.0235.5473-29.938,2.0939-44.886,3.6298-14.9345,1.5346-29.786,3.6439-44.6233,5.9178-14.7395,2.259-29.4083,4.9791-43.9774,8.1567-16.46,3.59-32.6986,7.8771-48.7894,12.8671-1.7442.5409-1.0186,3.2418.7574,2.7472h0Z" style="fill:#003033; stroke-width:0px;"/><path d="M541.3118,507.7556c5.091,21.9967,2.2918,45.2505-4.535,66.7719-6.8268,21.5214-17.5369,41.5796-28.5197,61.3066-7.6351,13.7139-15.5604,27.6878-18.2365,43.154-2.6761,15.4662.9472,33.0263,13.1033,42.9557,2.4961,2.0389,5.5694,4.2089,5.6621,7.4305.092,3.1936-2.8067,5.5361-5.2232,7.626-9.551,8.2602-15.3214,20.7304-15.4358,33.3573-.0533,5.8818,1.2601,12.1426,5.4214,16.2998,4.67,4.6655,11.7864,5.672,18.375,6.0804,15.657.9706,31.364-.0229,47.0088-1.1721,54.4445-3.9993,108.7502-9.8888,162.7863-17.6543,7.9876-1.1479,17.5311-3.6208,19.809-11.3623,1.0524-3.5766.1719-7.4035-.7195-11.0236-2.9723-12.0713-6.8761-25.3044-17.4498-31.8425-7.7768-4.8087-17.83-5.002-25.335-10.2247,14.7181-13.439,12.631-38.0481,2.2884-55.0852-10.3427-17.037-26.8604-29.2369-40.4168-43.8471-23.4596-25.2831-38.1334-58.5675-40.9742-92.9407-.4745-5.7414-2.355-13.3059-8.1154-13.391" style="fill:#7e96fc; stroke-width:0px;"/><path d="M535.8174,509.2703c.0532.3567.1041.7137.1566,1.0704-.0857-.582-.061-.4873.002.0393.084.7019.1659,1.404.2372,2.1073.0802.7898.1777,1.5851.2117,2.3783.0243.5676.0404,1.0634.118,1.6413.1494.9502.1649,1.127.0466.5302-.0608-.4056-.0852-.4228-.0731-.0514-.2849,1.3127-.0964,2.9057-.1813,4.2548-.0446.7099-.1315,1.4231-.1555,2.1336-.0397.4313-.0261.3562.0407-.225.1075-.8341.0825-.6561-.0751.5341-.1044.7772-.1188,1.338-.1057,2.0952.1025,5.9098-.3295,11.8281-1.1052,17.6841l.2996-2.2295c-2.0931,15.3178-6.8924,30.0982-12.8688,44.3137.3319-.7864.6637-1.5728.9956-2.3592-8.6878,20.5296-20.5156,39.384-31.0083,58.9885-5.4477,10.1786-10.4672,20.9564-12.7846,32.3279-2.1283,10.4437-2.1938,21.3278.8031,31.625,1.5655,5.3789,3.9105,10.7806,7.2409,15.3137,1.9147,2.6062,3.9112,5.1602,6.3139,7.3365,1.8393,1.6661,3.9417,3.0392,5.5211,4.9773-.5844-.7564-1.1688-1.5128-1.7531-2.2692.3945.5276.7239,1.062.9971,1.661l-1.1303-2.6783c.1867.4921.3111.9667.387,1.4876l-.4005-2.9806c.0282.4167.0234.7956-.0147,1.2115.1335-.9935.267-1.9871.4005-2.9806-.0915.5339-.2326,1.0199-.4354,1.522l1.1303-2.6783c-.297.621-.6499,1.1785-1.0634,1.7274.5844-.7564,1.1688-1.5128,1.7531-2.2692-1.8022,2.2127-4.1808,3.875-6.1776,5.9022-2.6331,2.6734-4.985,5.6883-7.0635,8.8068-3.6146,5.423-6.3086,11.7524-7.7193,18.1144-3.2639,14.7187-1.2447,33.3733,13.7323,41.018,6.9129,3.5286,14.4749,4.3556,22.1255,4.7454,7.2574.3698,14.5303.336,21.791.0803,14.7029-.5179,29.3893-1.7715,44.0496-2.9674,29.2953-2.3898,58.5458-5.3275,87.7314-8.8098,15.4141-1.8392,30.8071-3.8414,46.1777-6.0141,13.05-1.8447,28.0111-2.9948,35.9377-15.1774,4.9674-7.6345,3.3078-16.6821,1.1844-24.9211-1.5803-6.1316-3.5515-12.0835-6.2102-17.8417-2.5096-5.4351-6.126-10.7845-10.7684-14.6108-2.897-2.3877-5.7998-4.4003-9.249-5.8743-3.4943-1.4932-6.9901-2.7175-10.6311-3.7885-2.8325-.8332-5.6611-1.6747-8.3855-2.8223l2.6637,1.1241c-1.6991-.7415-3.3214-1.5997-4.855-2.6437.7523,5.8377,1.5045,11.6754,2.2568,17.5131,14.6449-13.549,16.5619-35.8615,10.6288-53.9842-3.3229-10.15-8.8569-18.7958-15.5765-27.016-6.1614-7.5373-13.2842-14.2071-20.3217-20.9071-3.9752-3.7845-7.8795-7.6264-11.7074-11.5595-3.838-3.9435-7.3389-8.1103-10.9188-12.2802l1.6861,2.1824c-2.7447-3.6158-5.7882-6.9867-8.5658-10.5794l1.5639,2.0242c-1.8408-2.3959-3.498-5.0268-5.5022-7.2816l1.4753,1.9096c-3.8177-6.4273-7.2189-13.0731-10.135-19.9581.3145.7452.629,1.4905.9435,2.2357-5.2362-12.4672-8.9039-25.5506-10.736-38.9522.1104.8213.2207,1.6426.3311,2.4639-.7574-5.6724-.6784-11.6911-2.4201-17.176-1.048-3.3002-2.5741-6.3499-4.9574-8.8895-2.8475-3.0342-6.7963-4.5252-10.8904-4.6934-4.8735-.2002-9.5315,4.4265-9.3127,9.3127.2337,5.2169,4.0916,9.0982,9.3127,9.3127.2251.0031.4493.0183.6728.0455l-2.4757-.3327c.5321.0772,1.0258.2062,1.5263.4007l-2.2237-.9384c.472.214.8977.466,1.3146.7728l-1.8834-1.4551c.4936.4013.9207.8425,1.3192,1.3384-.4849-.6276-.9697-1.2552-1.4546-1.8828.6134.8229,1.0942,1.708,1.5037,2.6475l-.9373-2.221c.8406,2.0521,1.3126,4.2123,1.6123,6.4041-.1106-.8228-.2211-1.6457-.3317-2.4685.6675,5.2765,1.097,10.563,1.9519,15.821.7774,4.781,1.7647,9.5345,2.9626,14.2279,2.5403,9.9534,6.1131,19.6055,10.3917,28.9392,2.2844,4.9835,4.8217,9.856,7.6215,14.5697l-.9511-2.2539c2.0552,5.601,5.4109,10.9394,8.5788,15.9756,3.2559,5.176,7.3706,9.9782,11.4028,14.5703,7.1782,8.175,15.5217,15.2761,23.2187,22.9465,4.3677,4.3526,8.5709,8.8728,12.354,13.7474-.5812-.7523-1.1624-1.5045-1.7436-2.2568,3.6802,4.7899,6.9273,9.8712,9.2831,15.446l-1.1241-2.6637c1.931,4.6595,3.2793,9.528,3.9653,14.5264l-.3983-2.9643c.5477,4.2275.6103,8.4904.0537,12.7204l.3983-2.9643c-.4508,3.1941-1.2522,6.3085-2.476,9.2953l1.1241-2.6637c-1.0981,2.5955-2.4944,5.0251-4.2128,7.26l1.7436-2.2568c-1.0549,1.3362-2.204,2.5776-3.4536,3.7336-2.5855,2.392-3.5202,5.9928-3.0668,9.3669.4831,3.5954,2.3551,6.1253,5.3236,8.1462,7.1971,4.8997,15.9721,6.0029,23.8716,9.2545l-2.6637-1.1241c2.1959.9357,4.2608,2.0818,6.1677,3.5203l-2.2602-1.7462c1.9393,1.5123,3.6403,3.2574,5.15,5.1967-.583-.7546-1.166-1.5091-1.7489-2.2637,2.1841,2.8804,3.8815,6.0601,5.2897,9.3823-.3767-.8926-.7534-1.7853-1.1301-2.6779,1.314,3.1635,2.3723,6.4211,3.294,9.7187,1.0005,3.5793,2.0199,7.2262,2.5732,10.9042-.1341-.9978-.2682-1.9956-.4022-2.9934.205,1.5889.2631,3.1531.0579,4.7444.1342-.9988.2684-1.9976.4026-2.9964-.1552.8965-.3821,1.7514-.7117,2.5995.379-.898.7579-1.796,1.1369-2.694-.3794.8882-.8445,1.7059-1.4121,2.4871.5882-.7613,1.1763-1.5226,1.7645-2.2838-.7331.9469-1.5696,1.7668-2.5097,2.5074l2.2855-1.7658c-1.4028,1.0525-2.9286,1.869-4.5419,2.5502l2.7005-1.1396c-3.4614,1.4027-7.1303,2.1566-10.815,2.691-5.3532.7763-10.7153,1.4964-16.0762,2.2177,1.0074-.1354,2.0149-.2707,3.0223-.4061-25.92,3.481-51.8766,6.6675-77.8897,9.3719-26.0142,2.7045-52.0834,5.0802-78.1825,6.8031-7.2554.479-14.5209.8497-21.7927.9298-6.955.0766-14.0244.0668-20.9347-.8115l2.9837.4009c-2.7841-.3793-5.5184-.9785-8.1189-2.0624.8931.3769,1.7862.7538,2.6793,1.1307-1.4581-.6431-2.8138-1.4215-4.0762-2.396.7564.5844,1.5128,1.1688,2.2692,1.7531-.9096-.7437-1.7231-1.5567-2.4657-2.4674.5844.7564,1.1688,1.5128,1.7531,2.2692-.982-1.276-1.7608-2.6463-2.3937-4.1256l1.1303,2.6783c-.7758-1.9299-1.2681-3.9231-1.5664-5.9796l.4005,2.9806c-.4461-3.4402-.3503-6.907.1017-10.3415-.1335.9935-.267,1.9871-.4005,2.9806.5583-3.9268,1.6139-7.7384,3.1352-11.4008-.3768.8928-.7535,1.7855-1.1303,2.6783,1.5578-3.6477,3.5475-7.0668,5.9597-10.216l-1.7531,2.2692c2.108-2.6946,4.5057-5.0057,7.0666-7.2601,4.2546-3.7455,7.393-8.7463,7.3827-14.5799-.0099-5.5958-3.1513-10.5863-7.343-14.0589-2.4782-2.053-4.8072-4.1012-6.8121-6.638.5844.7564,1.1688,1.5128,1.7531,2.2692-2.0267-2.6277-3.6722-5.4927-4.9845-8.5387l1.1303,2.6783c-1.6315-3.8927-2.6871-7.9717-3.2647-12.1496.1335.9935.267,1.9871.4005,2.9806-.6583-5.0647-.6314-10.2022.035-15.2645-.1328.9884-.2656,1.9769-.3984,2.9653,1.0269-7.3774,3.3271-14.4944,6.2131-21.3408-.3696.8758-.7391,1.7515-1.1087,2.6273,4.0999-9.6147,9.3116-18.691,14.2939-27.8627,5.1007-9.3897,9.9088-18.9364,14.2601-28.6986,4.5993-10.3185,8.9498-20.8884,11.9441-31.7981,2.983-10.8686,4.9345-22.0953,5.6069-33.3503.3573-5.9804.2946-11.983-.2395-17.951-.3139-3.5078-1.4727-6.8329-2.3339-10.2324-.7427-2.9318-1.4423-5.8736-2.3439-8.7705-.8846-2.8421-4.0135-4.9491-7.0091-3.9796-3.2283,1.0447-4.4525,3.8392-3.9796,7.0091h0Z" style="fill:#7e96fc; stroke-width:0px;"/><path d="M549.1228,549.7448c2.526-.3017,5.0586-.6469,7.5962-.8318,2.452-.1786,4.9178-.2656,7.3648-.4996,5.0027-.4783,9.9994-.9871,15.0106-1.3755,10.0237-.7769,20.0716-1.2839,30.1227-1.5182,2.885-.0672,5.7706-.1112,8.6564-.132,1.4056-.0101,2.8021-.0173,4.2055-.1004,1.4972-.0886,3.1298.0067,4.5448-.536,2.0754-.7959,2.0964-3.4621,0-4.2537-1.2105-.4571-2.5252-.406-3.8026-.4589-1.3239-.0548-2.6336-.0775-3.9582-.0433-2.5564.0659-5.1124.1501-7.6676.2523-5.0291.2012-10.0554.4733-15.0769.8155-10.1305.6902-20.2418,1.7022-30.3144,2.9827-5.7118.7261-11.3855,1.9181-17.0598,2.9008-1.5632.2707-1.2201,2.989.3787,2.7981h0Z" style="fill:#003033; stroke-width:0px;"/><path d="M568.5498,572.7539c7.3485-.0598,14.8239.0484,22.0337-1.5703,1.1252-.2526,1.8431-1.4776,1.6786-2.5713-.1795-1.1934-1.1082-1.9543-2.3016-2.032-7.3571-.4786-14.7316.8568-21.9848,1.9314-1.0472.1551-1.6895,1.4223-1.547,2.3696.1568,1.0427,1.0255,1.8815,2.1211,1.8726h0Z" style="fill:#003033; stroke-width:0px;"/><path d="M582.6002,593.498c4.2577,0,4.2647-6.6169,0-6.6169-4.2577,0-4.2647,6.6169,0,6.6169h0Z" style="fill:#003033; stroke-width:0px;"/><path d="M505.8565,734.0289c13.3138-2.9575,26.6867-5.8063,40.1491-8.0042,13.3169-2.1741,26.5935-4.0011,39.998-5.5331,13.504-1.5433,27.0302-2.8162,40.5928-3.7113,6.7861-.4479,13.5662-.7878,20.3646-.977,3.4049-.0948,6.795-.2992,10.1958-.4949,3.4033-.1958,6.8173-.2867,10.2035-.6843,4.2967-.5045,8.5482-1.1655,12.8168-1.8607,1.8898-.3078,3.7804-.6102,5.6719-.9071.8666-.136,1.7333-.2709,2.6002-.4047.2501-.0386,1.2837-.1186.3105-.0423.5676-.0445,1.1355-.0859,1.7032-.1282,7.7043-.5735,15.4166-1.0132,23.1254-1.5163,2.2262-.1453,4.3814-1.8615,4.2734-4.2734-.1056-2.3576-1.8772-4.2205-4.2734-4.2734-6.8958-.1524-13.7952-.1131-20.692-.038-6.9033.0751-13.7764-.5276-20.6747-.793-6.8109-.2621-13.6417.6395-20.4065,1.318-7.1784.72-14.3289,2.0208-21.4733,3.0303-27.076,3.8259-54.0026,8.5638-80.7788,14.1063-15.0947,3.1245-30.1917,6.2456-45.1968,9.7815-3.5172.8288-2.0253,6.1867,1.4903,5.4057h0Z" style="fill:#003033; stroke-width:0px;"/><path d="M940.2999,236.7707c0-1.3331-2.468-2.6155-7.0241-3.8137-25.486-6.7028-34.2012-39.2272-15.4811-57.775,3.3467-3.3159,4.8429-5.6605,4.1763-6.8151-.6667-1.1548-3.4455-1.0314-7.9907.209-25.4228,6.9379-49.2324-16.8716-42.2944-42.2944,1.2404-4.5452,1.3638-7.324.209-7.9907-1.1546-.6666-3.4992.8297-6.8151,4.1763-18.5479,18.7201-51.0722,10.005-57.775-15.4811-1.1982-4.5561-2.4806-7.0241-3.8137-7.0241s-2.6161,2.4682-3.8145,7.0246c-6.7034,25.4856-39.2274,34.1997-57.7754,15.4802-3.3157-3.3464-5.6603-4.8425-6.815-4.1759-1.1548.6667-1.0314,3.4456.209,7.9908,6.9378,25.4226-16.8713,49.2319-42.294,42.2942-4.5451-1.2403-7.3239-1.3637-7.9906-.2089-.6666,1.1546.8296,3.4991,4.1762,6.8149,18.7202,18.5479,10.0053,51.0724-15.4809,57.7752-4.5561,1.1982-7.0242,2.4806-7.0242,3.8137s2.4682,2.6161,7.0246,3.8145c25.4855,6.7034,34.1997,39.2274,15.4802,57.7754-3.3464,3.3157-4.8425,5.6604-4.176,6.8151.6667,1.1548,3.4455,1.0314,7.9907-.209,25.4225-6.9379,49.2318,16.8714,42.2939,42.2939-1.2404,4.5452-1.3638,7.324-.209,7.9907,1.1547.6666,3.4994-.8296,6.8153-4.1761,18.5479-18.7194,51.0718-10.005,57.7751,15.4804,1.1984,4.5564,2.481,7.0246,3.8145,7.0246s2.6155-2.468,3.8137-7.0241c6.7028-25.4859,39.227-34.2011,57.7748-15.4812,3.316,3.3467,5.6607,4.843,6.8153,4.1764,1.1547-.6667,1.0314-3.4454-.2089-7.9903-6.9377-25.4228,16.8716-49.2323,42.2943-42.2943,4.5452,1.2404,7.324,1.3638,7.9907.209.6665-1.1547-.8296-3.4993-4.1759-6.815-18.7195-18.548-10.0053-51.0721,15.4802-57.7754,4.5564-1.1984,7.0246-2.481,7.0246-3.8145Z" style="fill:#003033; stroke-width:0px;"/><path d="M946.1816,236.7707c-.5028-7.3368-8.4211-8.3513-13.9738-10.2884-.5149-.1796-1.053-.4639-1.58-.595,1.2823.3191.903.3954.4812.2028-.302-.1379-.6055-.2716-.9054-.4142-.9856-.4686-1.9484-.9852-2.8835-1.5478-.921-.5541-1.799-1.1641-2.6724-1.7892-.3297-.236-.6753-.686.4307.3389-.1523-.1411-.3339-.2656-.4956-.398-.4896-.4009-.9679-.8158-1.4339-1.2439-.7328-.6731-1.4353-1.379-2.1057-2.1142-.316-.3465-.625-.6993-.9264-1.0587-.1961-.2338-.3763-.5099-.5915-.7252.4175.4176.7516,1,.1635.2007-1.2253-1.6653-2.3002-3.4408-3.2121-5.2962-.2047-.4166-.3941-.8398-.5889-1.2609s-.3324-1.1525.169.4096c-.0618-.1925-.1549-.3847-.2284-.5743-.4094-1.0561-.7685-2.1319-1.0758-3.2221-.2514-.8919-.4682-1.7936-.6496-2.7023-.1009-.5054-.182-1.0133-.2696-1.521-.1946-1.1272.1341,1.2851.0609.4922-.0331-.359-.0837-.7166-.1172-1.0757-.187-2.0054-.2027-4.0266-.0433-6.0345.0369-.4653.0894-.9284.1386-1.3923.1262-1.1904-.249,1.5087-.0388.3293.0365-.2047.0665-.4107.1026-.6156.1902-1.0799.4328-2.1504.7268-3.2068.2682-.9637.579-1.9154.9324-2.8513.0934-.2474.2018-.4909.29-.74.2624-.7417-.6432,1.4211-.1567.377.2261-.4851.4463-.9719.6872-1.4501.4874-.9673,1.0221-1.9108,1.6012-2.8261.2938-.4644.5991-.9215.9153-1.3709.1275-.1811.2568-.3611.3878-.5397.5828-.7945.3779-.2769-.1068.1268.8324-.6932,1.4883-1.7724,2.252-2.5593,1.0399-1.0715,2.0965-2.1142,3.043-3.272,2.225-2.7218,4.1282-5.7911,3.2499-9.4716-.8917-3.7368-4.7963-5.495-8.3281-5.3992-3.2064.0869-6.2108,1.1347-9.3193,1.7596-.4524.0909-1.5929.0706-1.9113.3298.0788-.0641,1.4838-.1578.4226-.0659-.3159.0274-.6308.0639-.9469.0894-1.3072.1056-2.6206.1359-3.9312.0866-.6144-.0231-1.2282-.0626-1.8404-.1194-.2435-.0226-.4863-.0504-.7296-.0758-1.2639-.132,1.1214.2246.2968.0391-1.2384-.2786-2.4877-.4555-3.7167-.7909-1.0384-.2834-2.0633-.6166-3.0701-.9974-.3175-.1201-.6669-.32-.9966-.3949.1083.0246,1.3113.5935.4228.1679-.643-.308-1.2878-.6053-1.9189-.9383-.9424-.4972-1.862-1.0378-2.7553-1.6186-.4955-.3222-.9829-.6569-1.4616-1.0035-.1213-.0878-1.0503-.8182-.2555-.1779.8139.6557-.3715-.3093-.5109-.4259-1.7764-1.485-3.3485-3.1454-4.839-4.9121-.409-.4848-.2757-.8494.1551.2141-.0699-.1726-.3032-.4068-.4214-.57-.3466-.4787-.6813-.9662-1.0035-1.4616-.6779-1.0425-1.3003-2.1208-1.8636-3.2293-.2422-.4767-.4615-.9633-.6933-1.4448-.5589-1.1611.4931,1.2972.0328.0921-.085-.2226-.1755-.443-.2599-.666-.4232-1.1191-.7877-2.2606-1.0904-3.4182-.2926-1.119-.3123-2.4861-.7257-3.5487.3998,1.0278.1207,1.031.0669.4769-.0355-.3654-.0779-.7298-.1077-1.0958-.0501-.6139-.0832-1.2292-.0991-1.8449-.0324-1.2505.0052-2.5033.1136-3.7495.022-.2528.053-.5051.0741-.7579.1138-1.3599-.2479,1.3927-.0089.0412.113-.639.2169-1.2785.3524-1.9134.6509-3.0509,1.7096-6.0773,1.6843-9.2378-.0288-3.6022-1.8372-7.131-5.5629-8.0553-3.7114-.9208-6.9385,1.2868-9.6281,3.5392-1.0846.9083-2.0622,1.9239-3.0808,2.9027-.3712.3568-.7499.7057-1.1365,1.0457-.3813.3353-2.1946,1.5936-.6369.5795-1.8458,1.2017-3.5698,2.4696-5.5593,3.448-.4315.2122-.8776.3953-1.3082.608-.7064.3489,1.4498-.5686.3758-.1612-.1981.0751-.3942.1553-.5925.2302-1.0828.4089-2.187.7613-3.3063,1.056-.9083.2392-1.8267.4403-2.7518.6033-.3024.0533-.6265.075-.9238.1497.0401-.0101,1.5916-.1872.6375-.0859-.6188.0657-1.2358.1318-1.857.1727-2.0091.1324-4.0292.0893-6.0313-.1238-.2559-.0272-.5114-.0669-.7676-.0898,1.739.1557,1.0471.149.6456.08-.5077-.0873-1.0157-.1687-1.521-.2696-1.0602-.2117-2.1106-.4718-3.1473-.7785-.9381-.2776-1.8649-.5933-2.7771-.9469-1.4926-.5786,1.1549.5337-.306-.1221-.4703-.2111-.9361-.4325-1.3967-.6639-1.8552-.9321-3.5915-2.0405-5.269-3.26-.9508-.6912,1.1067.9122.2071.1542-.159-.134-.3224-.263-.4818-.3967-.3992-.3349-.7909-.679-1.1743-1.0319-.7711-.7097-1.5093-1.4552-2.2109-2.2337-.3532-.3919-.6972-.7923-1.0315-1.2005-.1307-.1596-.2569-.3432-.398-.4956,1.1637,1.2566.4118.5335.1497.1731-.6317-.8687-1.2213-1.7681-1.766-2.6938-.5546-.9424-1.0627-1.9122-1.5225-2.9044-.0932-.201-.1813-.4042-.2735-.6057-.4916-1.0746.3905,1.0871.1406.3252-.1928-.5878-.4449-1.1589-.6433-1.7461-.9685-2.8665-1.5969-5.7748-2.9301-8.5187-1.4176-2.9177-4.0471-5.1056-7.3958-5.123-3.4957-.0181-6.0662,2.7814-7.3807,5.7435-1.2314,2.775-1.8511,5.6986-2.8741,8.5406-.1052.2921-.7482,1.8066-.3139.8664.4372-.9463-.2499.5459-.3792.8177-.515,1.0831-1.088,2.1387-1.7162,3.1603-.5065.8235-1.0601,1.6088-1.6209,2.3955-.6645.9323.752-.8941.2399-.3062-.1734.199-.3319.4129-.5012.6156-.3715.445-.7548.8799-1.1489,1.305-.6763.7294-1.3846,1.4287-2.1227,2.0955-.3864.3491-.781.6894-1.183,1.0204-.1549.1275-.3383.2524-.4851.392,1.2771-1.2146.4647-.356.075-.0719-1.629,1.1872-3.3616,2.2313-5.1706,3.1204-.463.2275-.9328.4382-1.4023.6515-1.0276.4669,1.1426-.4308.4076-.174-.2424.0847-.4793.1903-.7196.2811-.9633.3638-1.9424.6859-2.9335.9653s-1.9941.5159-3.0055.7087c-.5031.0959-1.0262.14-1.5234.2565.0374-.0088,1.5963-.1878.6444-.088-.3075.0323-.6144.0695-.9223.0982-2.0568.1918-4.1307.2037-6.1893.0309-.517-.0434-1.0302-.117-1.5464-.1649,2.0589.1911.2176.0124-.2847-.0808-1.0272-.1907-2.0458-.4286-3.0509-.7134-1.0138-.2873-2.0142-.6223-2.9964-1.0039-.1952-.0759-.3928-.1721-.5909-.2361,1.542.4981.7939.3478.3787.1507-.5327-.2528-1.0672-.4974-1.5914-.768-.9157-.4725-1.8091-.988-2.6771-1.5432-.4168-.2666-.8279-.5421-1.2326-.8269-.2722-.1915-.5384-.3906-.8076-.5863-.8778-.6381,1.026.8541.1322.0944-2.0162-1.7138-3.8053-3.678-5.8754-5.3263-2.5725-2.0483-5.8644-4.119-9.314-2.9589-3.7315,1.2549-5.4558,4.8278-5.2354,8.5991.185,3.1645,1.1789,6.1099,1.7822,9.1916.0818.4177.0424,1.3843.2923,1.7197l-.1095-.8024c.0305.2527.0581.5057.0829.759.0246.2519.0463.5043.0654.7567.0988,1.3062.1193,2.6184.0635,3.9271-.0236.5527-.0604,1.1047-.1115,1.6555-.032.3444-.1383.749-.1196,1.0928-.006-.1101.2383-1.4775.0552-.4801-.2292,1.2488-.4702,2.4854-.8114,3.71-.3048,1.094-.6645,2.1725-1.0773,3.2305-.0778.1993-.2135.4488-.2666.6628.3714-1.4967.2311-.5547.0196-.0987-.2496.5382-.5131,1.07-.79,1.5948-.5524,1.047-1.1582,2.0658-1.8135,3.0517-.3274.4926-.6757.969-1.0179,1.4513-.2848.4014-.5893.3986.275-.3451-.2544.2189-.4511.5643-.6694.8254-1.5225,1.8212-3.2286,3.4335-5.0496,4.9506-.9405.7835.8887-.6075.2097-.1606-.2455.1616-.4762.3517-.7162.5218-.4823.3419-.9731.6717-1.4719.989-.9994.6357-2.0309,1.2211-3.0895,1.7523-.4633.2325-1.2137.435-1.612.7577.7358-.5961.958-.3852.4179-.1779-.3339.1282-.6653.2616-1.0013.3847-1.1243.4118-2.2705.7645-3.4322,1.0549-.5849.1462-1.1737.2768-1.7656.3913-.2377.046-.476.0894-.7146.1302-.1659.0284-1.3649.163-.299.0595,1.0755-.1045-.149.012-.3075.0284-.2435.0252-.4875.0479-.7315.0679-.7373.0602-1.4768.0962-2.2165.1067-1.1906.0169-2.3815-.0293-3.5672-.1386-.2182-.0201-.7634-.1816-.9484-.1003.4637-.2038,1.1886.1868.421.0526-.769-.1345-1.5354-.2646-2.2973-.4366-2.9931-.6756-6.0283-1.7079-9.1386-1.5936-4.0888.1502-7.8692,2.7043-7.9807,7.1201-.0813,3.2197,1.9068,5.9006,3.8878,8.2268.9084,1.0667,1.9193,2.0292,2.8838,3.0428.3934.4134.7769.8365,1.1496,1.2687.1476.1712.2936.3438.4378.5179.1434.1731.2852.3477.4252.5236-.5395-.7066-.6749-.8826-.4062-.528,1.2591,1.7999,2.4546,3.5885,3.4174,5.5706.2088.4298.3788.8882.602,1.31-.9028-1.7056-.0519-.0886.1155.3676.3622.9874.6776,1.9919.9454,3.0089.2657,1.0089.4844,2.0303.656,3.0594.2634,1.5795-.1327-1.3274.0469.2878.0572.5148.1029,1.031.1369,1.5479.1358,2.0604.0874,4.1328-.1401,6.185-.1801,1.6244.2221-1.3389-.0421.2734-.0833.5081-.1776,1.0145-.2828,1.5185-.2103,1.0079-.4641,2.0067-.7605,2.9927-.297.9882-.6515,1.952-1.016,2.9166-.1376.3641-.4748.9474.2391-.5479-.1108.2321-.2058.4728-.3122.7071-.2345.5164-.481,1.0273-.7401,1.5318-.9544,1.859-2.1218,3.53-3.3077,5.2413,1.0956-1.581.0588-.104-.2564.2648-.3049.3568-.6173.7069-.9367,1.0507-.7494.8068-1.5379,1.5771-2.3628,2.3066-.396.3502-.805.6835-1.2115,1.0212-.3154.262-.8249.4625.4372-.3324-.176.1108-.3435.2574-.513.3806-.9563.6954-1.9499,1.3398-2.9748,1.9296-.8538.4913-1.7295.9447-2.6233,1.359-.2993.1387-.6198.2533-.9116.4062.0763-.04,1.3802-.5432.4751-.211-.6374.2339-1.2683.4776-1.9141.6887-5.3217,1.74-14.2282,3.4426-13.2127,10.9999.9047,6.7327,9.0397,7.6231,14.179,9.473.465.1674,2.1539.9933.4728.1461.4922.2481,1.0127.4483,1.509.6903.979.4773,1.9349,1.0023,2.8626,1.5729.9106.5601,1.7399,1.2634,2.6509,1.8123-.0581-.035-1.1569-.9321-.4372-.3324.2031.1693.4101.3339.6123.5044.443.3734.8764.7581,1.2995,1.154.7639.715,1.4944,1.4658,2.1886,2.2486.311.3507.6065.714.9103,1.0708.2795.3283.6952,1.0291-.2435-.3345.1756.2551.3752.4981.5566.7494,1.2098,1.6758,2.2687,3.4603,3.164,5.3231.2231.4641.4114.9467.6392,1.4077-.0228-.0462-.5673-1.4239-.2392-.5479.0903.2411.1874.4797.2773.721.3776,1.0131.7095,2.0432.9938,3.0864.2572.9438.4754,1.8981.6545,2.8597.0846.4546.1328.9196.2282,1.3715-.4399-2.0834-.0079.0477.0376.586.1739,2.0589.1675,4.1334-.0238,6.1909-.0285.3063-.2099,1.906-.0753.7636.1342-1.1389-.0862.4514-.143.7579-.2098,1.1304-.4769,2.2502-.8007,3.3534-.2672.9104-.573,1.8096-.9167,2.694-.164.4221-.7072,1.3169.1088-.2263-.0978.185-.1736.3953-.2599.5845-.2447.5364-.5041,1.066-.777,1.5886-.4774.9142-.9969,1.8062-1.5569,2.6723-.299.4624-.6094.9176-.9307,1.3648-.1296.1804-.2637.3573-.394.5371-.6628.9149.916-1.0808-.0127-.0017-3.4989,4.0656-10.0193,8.8769-8.1781,15.0589,1.118,3.7536,4.9302,5.4497,8.5991,5.2354,3.2263-.1884,6.2374-1.2205,9.3831-1.8197.4524-.0862,2.5611-.2151.7258-.1452.6295-.024,1.2634-.1344,1.8932-.1745,1.2431-.0793,2.4904-.0887,3.7346-.0294.6129.0292,1.2255.0758,1.8358.1395.2155.0225.5035.0908.7275.0837-1.5763.0502-.6527-.0867-.1211.0041,1.188.2031,2.3651.4707,3.5243.8004,1.0948.3114,2.1584.6955,3.2232,1.0948.638.2392.5867.5972-.2518-.112.1364.1154.4715.2105.6499.2933.6457.2995,1.2823.619,1.9084.9575.9891.5348,1.9519,1.1178,2.8852,1.7449.4418.2969.8696.612,1.3041.919,1.0438.7374-1.0486-.8734-.0677-.0546.272.227.5491.4475.8187.6775.8083.6894,1.5859,1.415,2.3296,2.1736.8638.8811,1.6183,2.1711,2.5708,2.9249-.0841-.0665-.8422-1.1445-.275-.3451.171.2409.3479.4775.5176.7194.3055.4356.6016.8778.8872,1.3267.6994,1.0995,1.3379,2.2379,1.9103,3.4085.1043.2133.2065.4278.3064.6431.0694.1497.4812,1.2417.1369.2756-.3481-.9766.0543.1453.1102.2886.0867.2221.171.4452.253.6691.4325,1.181.7992,2.3858,1.0978,3.6075.1288.5272.2453,1.0574.3484,1.5903.069.357.1242.716.1895,1.0736.0846.463-.0839.8568-.0552-.4801-.0272,1.2692.2482,2.5811.2599,3.8617.0109,1.192-.0424,2.3839-.1577,3.5703-.0163.1675-.2492,1.3689-.0281.3579.2252-1.0302-.039.2149-.0636.362-.1182.7067-.2582,1.4094-.4196,2.1075-.6759,2.9249-1.6607,5.9054-1.5493,8.9465.1538,4.1996,2.7141,7.708,7.1201,7.9807,3.2163.1991,6.1121-2.0592,8.3896-4.0263,1.0925-.9435,2.0768-1.9977,3.1311-2.9814.3747-.3497.7573-.6908,1.1471-1.0235.2145-.1831.4351-.3589.6499-.5417.9375-.7978-1.1224.8139-.1322.0944,1.7687-1.2853,3.6082-2.4397,5.5818-3.3867.4622-.2218,2.1868-.7814.3482-.1869.4509-.1458.8875-.3529,1.3339-.5142,1.0379-.3751,2.0941-.699,3.1639-.97.9627-.2439,1.9334-.4229,2.9093-.6024.4443-.0817,1.2986-.1091-.4842.0524.2059-.0187.4123-.0515.618-.0744.6177-.0687,1.2373-.1206,1.8578-.156,2.0682-.1177,4.1244-.0249,6.1822.1945.4207.0449,1.0102.2553-.6444-.0879.2509.052.5101.0777.7631.1203.457.0769.9125.1624,1.3662.2571,1.1087.2313,2.2064.5153,3.2881.8507.8872.275,1.7522.5994,2.6212.9257,1.1012.4135-1.3351-.6039-.2643-.1162.1876.0854.3768.1672.5642.2532.5154.2368,1.025.4862,1.5284.7474.8709.452,1.723.9399,2.553,1.4633.4377.276.8693.5618,1.2942.8571.1702.1182.3393.2381.5073.3594.1655.1195,1.2883.9495.4001.2882-.8541-.636.387.3307.6142.5248.3964.3387.7851.6866,1.1655,1.0433.8037.7535,1.5701,1.5464,2.296,2.375.3135.3579.6124.7272.917,1.0925.7312.8769-.6751-.9554-.2366-.3095.1492.2198.3176.4285.4719.645.6243.8761,1.2061,1.7826,1.7426,2.715.5465.9497,1.0461,1.9264,1.4971,2.925.0899.199.1687.4143.2682.6097-.79-1.552-.2411-.5587-.0892-.1612.2021.5286.3911,1.0622.5669,1.6.9366,2.8644,1.5556,5.7774,2.9637,8.4773,1.6522,3.1679,5.1014,5.6663,8.8188,4.6307,3.4251-.9542,5.1538-3.8618,6.4095-6.9383.9897-2.4247,1.4872-5.0014,2.3971-7.4534.0782-.2107.1635-.419.2408-.63.4265-1.1636-.5924,1.2906-.0783.1693.2072-.4519.4103-.905.6305-1.3509.5055-1.0241,1.0629-2.0225,1.6707-2.9896.2855-.4543.582-.9017.8891-1.3416.1707-.2444,1.132-1.5232.4872-.6916-.6594.8505.3629-.4321.5393-.6394.4093-.4809.8324-.9503,1.2682-1.4073.6496-.6812,1.328-1.3351,2.0322-1.9596.3898-.3457.793-.6739,1.1916-1.0089.8641-.7263-.9639.6947-.3312.2481.2963-.2091.5821-.4338.8782-.6436,1.6442-1.1647,3.3901-2.1847,5.2098-3.0497.4188-.1991.8504-.3722,1.268-.5729-1.7955.8626-.1459.0784.3178-.0922,1.0147-.3733,2.0464-.7001,3.0908-.9799.9449-.2532,1.8999-.4679,2.8624-.6429.4731-.086,2.3677-.2571.2685-.0739.5645-.0492,1.1259-.1307,1.6913-.176,2.0084-.1608,4.0304-.1504,6.0367.0361.5516.0513,2.2559.4452.2904.0131.5052.1111,1.0295.1645,1.538.2637,1.0262.2002,2.0432.4478,3.0464.7422,1.0145.2978,2.0016.6595,2.9898,1.0332.8841.3344-.4661-.1943-.5222-.2254.2298.1273.4907.2166.7299.3271.5356.2475,1.0646.5089,1.5863.7845.9612.5079,1.8975,1.063,2.8045,1.6621.4143.2737.8222.5568,1.224.8485.2238.1624.4385.3461.6691.4979-1.4028-.9236-.457-.3464-.1377-.0818,2.3438,1.9418,4.3592,4.2002,6.8049,6.0322,2.7215,2.0385,6.334,3.2186,9.5287,1.4464,2.9727-1.6491,4.0834-5.1191,3.8049-8.3424-.2795-3.2355-1.2988-6.2551-1.8646-9.4292-.0453-.2543-.0849-.5093-.1274-.7641-.2174-1.3033.1087,1.0963.0308.2311-.0512-.568-.1164-1.1338-.1527-1.7033-.0871-1.3659-.0906-2.7373-.0095-4.1037.0327-.5508.0796-1.1005.1396-1.649.0707-.6454.4232-.8532-.0469.2948.0751-.1834.0792-.5103.1149-.7191.2132-1.2472.4979-2.4819.8505-3.6971.317-1.0926.704-2.1551,1.1105-3.2166.4418-1.1537-.4901.9792-.1054.255.1384-.2604.2454-.543.3724-.8094.2805-.589.5781-1.1697.8913-1.7419.5398-.9863,1.1267-1.9465,1.7585-2.8765.2973-.4377.8259-.959,1.0322-1.4408-.3959.9243-.6135.7687-.2667.3516.2643-.3178.5232-.6396.7931-.9528.732-.8496,1.5036-1.6649,2.3121-2.4421.8189-.7871,1.9516-1.464,2.6708-2.3241-.8898,1.064-.5281.4053-.059.0657.1914-.1386.3843-.2753.5785-.4101.4857-.3371.98-.6621,1.482-.9744,1.006-.6258,2.0437-1.2009,3.1081-1.7213.3202-.1566.6458-.3009.9672-.4546.4003-.1915.8463-.1606-.4228.1679.5576-.1443,1.1235-.4478,1.6687-.641,1.1295-.4003,2.2804-.7411,3.446-1.0192.587-.1401,1.178-.2644,1.7717-.3726.2384-.0434.4786-.0784.7169-.1225,1.2994-.2408-1.4361.1369-.1168.0114,1.2282-.1168,2.4499-.2127,3.6847-.2178,1.2611-.0052,2.5084.0908,3.7634.1987.7326.063.0787.284-.4226-.0659.1857.1296.7176.1105.9543.1514.7071.122,1.4102.2659,2.1085.431,2.9213.6907,5.9812,1.7141,9.0217,1.4878,3.9479-.2939,7.8487-2.8711,7.7239-7.2727-.0963-3.3957-2.1621-6.1223-4.3308-8.5538-.8615-.9659-1.8048-1.8513-2.6872-2.7969-.3882-.4161-.7664-.8416-1.1338-1.2763-.1808-.2139-.3479-.4456-.537-.652-.2785-.3485-.1447-.1718.4015.53-.1351-.1768-.2685-.355-.4002-.5345-1.2553-1.7114-2.348-3.541-3.2569-5.459-.1144-.2413-.2216-.4858-.3346-.7277-.401-.8585.1977.4623.2165.5246-.1513-.5012-.3918-.9878-.5681-1.4829-.37-1.0392-.688-2.0966-.954-3.1671-.2393-.9634-.4167-1.9343-.5895-2.9111-.2003-1.1323.1329,1.2783.0581.4837-.0243-.2579-.0617-.5151-.0881-.7729-.0578-.5666-.1013-1.1347-.1311-1.7034-.1059-2.0178-.0082-4.0199.2026-6.0273.1245-1.1855-.2461,1.513-.0419.3388.0353-.2029.0649-.4069.1-.6098.0877-.5073.1863-1.0129.2958-1.5159.219-1.006.4814-2.0026.7863-2.986.3055-.9854.7223-1.93,1.0412-2.9079-.5974,1.8322-.0733.1854.1519-.2937.2193-.4667.4489-.9287.6884-1.3853.4798-.9148.9999-1.8085,1.5587-2.6773.252-.3918.5121-.7783.7796-1.1597.3159-.4502,1.5885-1.8113.2898-.4309,1.4435-1.5344,2.7277-3.1386,4.3305-4.5292.3944-.3422.8473-.6495,1.2225-1.0107-.0497.0479-1.1951.8841-.4307.3389.2171-.1548.4303-.3148.6483-.4686.8355-.5893,1.6979-1.1403,2.584-1.6503.9497-.5465,1.9264-1.0461,2.925-1.4971.2006-.0906.4145-.1687.6097-.2682-1.4336.7305-.7326.2997-.3182.1501.4781-.1726.9513-.3573,1.433-.5201,5.4943-1.8565,13.1595-2.9881,13.6522-10.1787.2108-3.0761-2.8559-6.0172-5.8817-5.8817-3.3669.1508-5.6559,2.5866-5.8817,5.8817l.1696-1.2681c.5486-1.136.6758-1.4577.3819-.9651-.0446.0667,1.0961-1.3237.531-.7547,1.2819-1.291.6148-.4387-.1073-.0621-.1587.0827-.4642.1749-.5833.2815.7905-.707.8965-.3619.2048-.1061-.764.2826-1.5421.5264-2.3252.7499-2.6406.7534-5.1539,1.5951-7.6703,2.7167-4.2021,1.8729-8.0875,4.6541-11.3225,7.9174-6.6499,6.7081-10.4713,15.4462-11.5849,24.7524-1.0748,8.9823,1.2266,18.5943,6.288,26.0959,1.4411,2.1359,3.0698,4.1755,4.8689,6.0215.4821.4946.977.9759,1.4511,1.4783.3031.3212,1.3809,1.2207,1.4704,1.6699-.0068-.0339-.7957-1.157-.2439-.2985.1458.2269.3031.4444.4401.6772.1171.1991.2054.4294.3329.6195-.6896-1.0281-.4607-1.212-.3003-.5439-.4637-1.9305.2657-4.2452,2.1268-5.2126-.0831.0432,1.6452-.6151.8704-.3778-.8826.2703,1.4536-.0166.7341-.0851-.4434-.0422-.9262-.0091-1.3759-.0296-1.2293-.056,1.1121.2177.2514.0372-.5023-.1053-1.0094-.1852-1.5109-.2968-2.9858-.6643-5.8362-1.3898-8.8929-1.7235-10.7832-1.1774-21.5098,2.7312-29.732,9.6049-8.1198,6.788-13.0411,16.6983-14.1273,27.1499-.2579,2.4821-.2287,4.9862.0644,7.4637.372,3.1447,1.2023,6.0943,1.8216,9.1838.0255.1271.2576.9938.1886,1.0417-.0461.0321-.1135-1.3501-.0708-.4532.0236.4963-.015,1.018.021,1.5095-.0914-1.2487.2359-1.4043.0936-.8677l-.0607.1963c.2047-.7694.5911-1.4334,1.1593-1.9919.5913-.5411,1.2853-.9885,2.0641-1.2058.6111-.2013,1.2215-.229,1.8312-.0831.6616.1128.7937.1267.3964.0417-.8818-.2249,1.2068.6951.6242.2864-.191-.134-.429-.228-.6292-.3509-.1873-.115-.3624-.2453-.5475-.3628-1.0209-.6477.7765.6852.1405.1139-1.146-1.0294-2.2474-2.0905-3.3633-3.1525-7.0272-6.6874-16.1957-10.5428-25.8721-11.007-8.8646-.4253-18.1808,2.245-25.3865,7.4473-4.0238,2.9051-7.4087,6.3018-10.2152,10.4056-2.8038,4.0998-4.3834,8.683-5.7915,13.3993-.2067.6923-.4502,1.3663-.6839,2.0492-.3367.9836.0849-.3011.1752-.3919-.1772.1784-.2956.6205-.423.847-.0898.1596-.1963.3111-.2848.4708-.4073.7355.481-.6192.4886-.6273-.6335.6694,1.3629-.8128.6087-.4408,1.1535-.5689,2.3668-.8284,3.6477-.4721,1.0571.294,1.6132.7369,2.0357,1.33.7066.9919-.1057-.2405-.2537-.5243l-.141-.2824c-.2508-.5477-.193-.3987.1733.4469.0214-.0362-.2905-.7683-.2768-.7301-.2821-.7819-.524-1.578-.7479-2.3783-1.3103-4.6841-3.1186-9.2388-5.957-13.222-5.4558-7.6561-13.2774-13.2606-22.3507-15.818-9.2228-2.5995-18.9728-1.797-27.7125,2.0336-4.2884,1.8796-8.2098,4.6647-11.5402,7.947-.5651.5569-1.1217,1.1211-1.7066,1.6578-.223.2047-.4483.4071-.6771.6053-.0747.0647-1.16.9422-.3476.3112.7233-.5618-.5611.363-.8017.4994-.1969.1116-1.0783.5376-.0125.0506.5511-.216.6401-.263.2669-.1409-.5933.1296-.2623.0865.9931-.1291,1.6688.0689,3.1169.8951,4.0192,2.3014.8182,1.2752.4737,1.3441.3281.6562.0058.0272.0834,1.6905.1262.8146.0209-.4283.1853-1.2224.0742-1.5956.0411.1382-.2668,1.4742-.0396.403.0924-.4354.1665-.8744.2632-1.3092.692-3.1104,1.4524-6.0809,1.7628-9.2721.2345-2.4111.2099-4.8452-.0803-7.2505-.6687-5.543-2.2425-10.7943-5.0105-15.6735-5.1415-9.0632-13.8048-15.983-23.7555-19.0432-4.9903-1.5347-10.4173-2.0581-15.6011-1.4241-3.1516.3855-6.1093,1.2438-9.212,1.8415-.1276.0246-1.5049.2154-.4203.0913,1.0216-.1168-.1242-.0014-.2864.0081-.3484.0203-1.8832-.0856-.6323.0673,1.0899.1332.3971.0423.1305-.0387.7834.2379,1.4001.6136,1.9918,1.1592.7669.7073,1.1526,1.6787,1.2911,2.6813.0625.4525-.3805,2.5451.0202,1.4-.009.0257-.7552,1.4497-.2911.7145.1325-.2098.2445-.4335.3777-.6437.0758-.1195.5017-.5958.4843-.701.0169.102-.9431,1.1099-.1918.2706.9817-1.0965,2.0081-2.1395,3.0222-3.2053,1.8058-1.8977,3.4492-3.9988,4.8712-6.1982,2.4495-3.7886,4.2588-8.1445,5.2043-12.5566,3.9137-18.2628-5.2101-38.2902-22.6445-45.86-2.6717-1.16-5.3526-1.921-8.1208-2.7866-.6014-.188-1.1876-.4102-1.7819-.6178-.7904-.2761,1.2925.6588.2689.104-.1803-.0977-.3672-.182-.5461-.2826-.1518-.0854-.5124-.4089-.6777-.428.0014.0002,1.2063,1.0012.6851.487,1.1258,1.1107,1.6111,3.1083.8259,4.9566l-.2361.5557c.2922-.4629.0955-.2118-.5899.7534.3816-.4005.3156.0744-.6851.4871.3996-.1648.8391-.5018,1.2237-.7105.8554-.464-.3724.2223-.4469.1734.0799.0524.7943-.2991.9261-.3454.7976-.2801,1.6077-.5212,2.4223-.7462,2.6343-.7276,5.1588-1.6365,7.6438-2.7881,8.0997-3.7538,14.9241-10.7318,18.6453-18.8326,3.9672-8.6363,5.1391-18.2549,2.8787-27.5373-1.0713-4.3994-2.9731-8.7325-5.544-12.4631-1.4676-2.1296-3.108-4.156-4.9271-5.9952-.5171-.5228-1.0376-1.0416-1.5349-1.5836-.3011-.3281-.5836-.6723-.8825-1.0021-.5635-.6218.2332-.0935.1917.2706.0231-.2031-.7497-1.1601-.862-1.3446-.2234-.367-.3031-1.044.2911.7145-.3357-.9934.0509.5194.065.7828.1107,2.0681-1.511,3.8656-3.3681,4.4578,1.2214-.3895-1.6515.0216-.1195.0094.3983-.0032.9366.1724,1.3109.0806l-.8065-.1068c.2754.0435.5499.0917.8236.1447.4548.0871.9074.187,1.3579.2938,3.0009.7114,5.9051,1.3876,8.9926,1.672,5.1612.4754,10.5847-.2019,15.4862-1.8812,9.8381-3.3706,18.3706-10.4097,23.244-19.6461,2.6172-4.9603,4.1258-10.254,4.6122-15.8325.5018-5.7545-.8564-11.1695-2.0594-16.7374-.1402-.649.2279-.4504.0396.403.0512-.232-.0587-.6029-.0689-.8493-.0307-.74.2978-1.8492-.1315.0683.0615-.2746.334-.9544-.1089.1228-.3739.9097-.9946,1.7129-1.8865,2.187-.724.3848-1.5213.6531-2.352.6478-1.8886-.012-1.3709-.2716-.7828-.065-1.9703-.6921-.4608-.1723.0637.1728.0096.0063.5053.4049.5665.398l-.5864-.4517c.2167.1753.4303.3543.6408.5371,1.0922.9443,2.0766,1.9975,3.131,2.9814,3.7647,3.5128,8.0327,6.1392,12.7856,8.0697,17.4371,7.0823,38.2719.0288,48.618-15.4173,2.8521-4.258,4.2771-8.969,5.8152-13.7923.1858-.5826.458-1.1579.6191-1.746-.436,1.5923-.0206.1335.2514-.344.0367-.0644.2662-.333.2859-.4329l-.6317.8341c.2826-.276.181-.2124-.305.191-1.1445.8654-3.3116,1.2244-5.0625.2498.7163.3987-1.1547-.9917-.681-.5154.4597.4622-.9039-1.4132-.4163-.5527.216.3812.4059.7989.6375,1.1673.4113.6544-.5353-1.4516-.105-.2415.091.2558.1873.5093.2755.7661.3079.8971.5608,1.8094.8109,2.7239,2.5739,9.4106,8.315,17.41,16.3675,22.8997,7.3349,5.0005,16.6993,7.5177,25.5529,6.8546,9.7581-.7308,18.7227-4.7874,25.6851-11.6779.5914-.5853,1.1822-1.1694,1.8037-1.7232.2166-.193.4446-.3759.659-.5713.9848-.8975-.8056.4603-.1266.0878.4065-.223.8039-.5123,1.2007-.7582.9023-.559-1.4184.4953-.5042.2271l.2003-.0456c-.8084.2316-1.6176.233-2.4279.0042-1.5735-.5155-2.8226-1.8285-3.193-3.0995.295,1.0124-.0513-1.6632-.0397-.2176.0021.2643-.025.526-.0319.7894-.0148.5631-.3628.9628.0581-.285-.2556.7578-.3078,1.6438-.4976,2.424-1.3177,5.4171-2.1708,10.7799-1.4456,16.3553,1.3556,10.4219,6.5321,20.1527,14.8213,26.7295,8.9381,7.0917,19.9047,10.2313,31.2305,8.6337,2.6659-.3761,5.2529-1.1089,7.8783-1.6849,1.3771-.3022-1.3302.0584-.0496.0036.2191-.0094.4358-.0344.6556-.0404.1951-.0053.392.009.5867.0022,1.0733-.0377-1.5339-.324-.6004-.0765.4972.1318.5336.435-.8704-.3778-.8978-.5198-1.4938-1.2931-1.8923-2.226-.4265-.9985-.4911-1.9212-.2345-2.9866-.1492.6196-.4989.6273.3002-.5439-.2785.4082-.5044.8777-.773,1.2967-.2894.4515-.4992.248.2439-.2985-.1811.1332-.3798.4588-.5371.6408-.9817,1.1354-2.0806,2.1559-3.0981,3.2572-1.7359,1.8787-3.3274,3.9358-4.6954,6.0979-10.0299,15.8512-6.9975,37.8,6.5109,50.6828,3.2355,3.0857,7.0027,5.6769,11.1071,7.4571,2.5288,1.0968,5.0443,1.8654,7.6754,2.6509.5627.168,1.1227.3464,1.6751.5459l.3741.138c.6066.2398.476.1814-.3919-.1752.1226.1094.4516.2128.5833.2814.6177.3221,1.5211,1.2702.1072-.0623.3807.3588.2364.5122-.5311-.7548l.0902.1461c-.4281-.7345-.6421-1.5277-.6418-2.3796.2099,3.063,2.5549,6.0307,5.8817,5.8817,3.0065-.1347,6.107-2.5944,5.8817-5.8817Z" style="fill:#003033; stroke-width:0px;"/><path d="M743.2628,251.5942c.7997,2.7269,2.2915,4.8839,3.7535,7.2692,1.5806,2.5789,3.0401,5.0797,4.9012,7.4813-.5163-.6683-1.0327-1.3366-1.549-2.0049,2.9281,3.7956,5.6498,7.7367,8.4878,11.5976,2.8537,3.8824,5.5657,7.8664,8.1442,11.9366,1.8469,2.9154,4.4988,4.7105,7.9094,5.1688,3.2459.4361,6.8111-.45,9.0946-2.9777,2.5084-2.7766,4.7421-5.827,7.0781-8.7503,2.346-2.9359,4.6987-5.8665,7.0645-8.7865,4.6259-5.7094,9.4649-11.2593,14.3266-16.7684,9.6812-10.9702,19.8231-21.5349,30.6605-31.3726,3.0825-2.7982,6.2207-5.5353,9.4194-8.1999,1.5991-1.3321,3.2133-2.646,4.8431-3.9404.8073-.6412,1.6966-1.2326,2.4572-1.9272-1.7686,1.6153.4403-.2965.9898-.8876.8491-.9134,1.142-1.53,1.5892-2.5512.9344-2.1338,1.2413-4.2489,0-6.3701-1.05-1.7943-3.2872-3.3091-5.449-3.1255-1.7685.1502-3.468.2869-5.0439,1.2168-.7623.4498-1.4774,1.0199-2.2019,1.5285-1.5825,1.1109-3.1524,2.2396-4.71,3.385-3.3948,2.4964-6.7358,5.0686-10.0347,7.6902-5.8463,4.6462-11.5207,9.5063-17.0552,14.5191-10.9749,9.9404-21.4364,20.4192-31.7433,31.0447-2.9138,3.0038-5.8828,5.9553-8.8101,8.9463-2.914,2.9775-5.9808,5.8743-8.6914,9.0381,5.668.7304,11.336,1.4608,17.004,2.1912-4.4354-6.61-9.1416-13.1592-14.5061-19.0463-1.2135-1.3318-2.4449-2.6473-3.6931-3.9466-1.7299-1.8005-3.5892-3.3204-5.5928-4.8214-3.1429-2.3545-6.2541-4.9663-10.0507-6.1285-5.0731-1.5531-10.0657,3.5659-8.5918,8.5918h0Z" style="fill:#7e96fc; stroke-width:0px;"/><path d="M224.2098,877.5666c6.5166,22.9646,13.9545,45.6678,22.2898,68.0365,1.7858,4.7925,3.7551,9.7776,7.6348,13.11,6.2865,5.3997,15.5471,4.9234,23.7966,4.1343,227.7059-21.7803,454.46-53.5089,679.3988-95.0648,2.9735-.5493,6.1723-1.2221,8.1958-3.4692,2.7428-3.0459,2.2817-7.6937,1.8011-11.7642-2.9151-24.6912-.2735-50.0225,7.6733-73.581-27.9061,5.8721-54.3191,17.3068-81.8236,24.8387-19.822,5.4281-40.1386,8.8097-60.4298,12.0722-198.5864,31.9296-398.8638,53.3387-599.7122,64.1075" style="fill:#7e96fc; stroke-width:0px;"/><path d="M219.4309,877.5666c.941,7.4773,1.615,15.0301,3.6559,22.2874,2.0426,7.2633,4.1775,14.5006,6.4033,21.7099,2.1527,6.9727,4.4126,13.9121,6.715,20.8348,2.205,6.6299,3.938,13.7518,8.2516,19.3799,9.0438,11.7998,23.725,11.5548,37.1627,10.3349,15.0042-1.3621,29.9956-2.8921,44.9855-4.4026,60.6998-6.1166,121.3283-12.9406,181.8691-20.4695,60.6917-7.5477,121.2865-15.887,181.7779-24.8985,60.1049-8.9539,120.1059-18.6048,179.987-28.9503,29.9329-5.1715,59.9011-10.2899,89.7295-16.039,7.7894-1.5013,14.6436-5.6489,16.8621-13.7308,1.8338-6.6807-.0298-13.946-.4513-20.7025-.8628-13.8288-.0734-27.7719,2.6655-41.3604,1.3665-6.7798,3.1578-13.4459,5.4018-19.9872,2.5907-7.5518-5.249-13.4392-12.0507-12.0507-22.9726,4.6898-44.8179,13.1091-67.1118,20.1619-22.7509,7.1974-46.0471,11.691-69.5708,15.5-48.2352,7.8104-96.5892,14.9245-145.0166,21.4356-97.0324,13.0461-194.4246,23.4776-292.0043,31.4447-55.1652,4.5041-110.3896,8.1691-165.6579,11.1396-5.8166.3126-10.7831,4.7322-10.7831,10.7831,0,5.5968,4.9388,11.0972,10.7831,10.7831,98.7013-5.3049,197.2659-13.3586,295.5445-23.8966,98.6957-10.5827,197.1332-23.6951,295.1557-39.329,26.4878-4.2246,53.1058-8.2738,78.8671-15.9327,25.0827-7.4571,49.415-17.4755,75.0026-23.1968-4.0169-4.0169-8.0338-8.0338-12.0507-12.0507-4.3786,13.5818-7.2798,27.5003-8.5646,41.7198-.6215,6.8784-.8278,13.7945-.6066,20.6976.1032,3.2201.2965,6.4386.588,9.6472.2891,3.1826,1.1009,6.6194.7752,9.8246.0891-.877-.0422.1065-.0567.0924.8646.842-.7616.412-.0625.0897-2.7256,1.2567,1.3593-1.681,1.5191-1.3213.0185.0416-2.3987.6876-2.2037.6401-3.373.8209-6.8543,1.3077-10.2675,1.9346-7.2888,1.3387-14.5795,2.6672-21.8721,3.9853-14.5852,2.6362-29.1778,5.2311-43.7777,7.7847-57.9128,10.1293-115.9393,19.6086-174.0648,28.4357-57.9832,8.8055-116.0663,16.9112-174.2254,24.4644-58.3103,7.5727-116.7055,14.4914-175.171,20.7539-14.739,1.5788-29.4824,3.1158-44.2301,4.6111-13.8419,1.4035-27.8173,3.449-41.7167,4.0563-4.8232.2107-9.2799.3363-12.1787-2.8551-3.666-4.0361-5.6086-10.3739-7.6231-15.4844-5.2328-13.2751-10.1001-26.7008-14.6629-40.2217-2.3385-6.9296-5.7672-13.4158-8.8157-20.0642-1.9147-4.1758-9.4915-2.2463-8.9053,2.412h0Z" style="fill:#7e96fc; stroke-width:0px;"/><path d="M254.5829,893.1151l1.0275-.1869c.4503-.0819.8758-.2675,1.2544-.5253l.2151-.1465c.0331-.0225.0663-.045.0993-.0676.2482-.168.4858-.3506.7129-.5477.1827-.2349.3647-.4705.5458-.7066.3022-.5211.4543-1.0833.4562-1.6864-.0019-.6031-.1539-1.1653-.4562-1.6864-.5897-1.0077-1.7111-1.6677-2.8851-1.6549-.406.0044-.7534.0597-1.1146.1847l-.223.0772c-.355.1228-.7195.24-1.0429.4317-.3311.1963-.5817.4307-.8491.6809l-.7357.6882-.4814.6231c-.225.3534-.3468.7349-.3653,1.1447-.0733.2728-.0733.5456,0,.8184.0186.4097.1404.7913.3653,1.1447l.4814.6231.6231.4814c.3534.225.7349.3468,1.1447.3653.4092.0916.8184.0733,1.2277-.055h0Z" style="fill:#003033; stroke-width:0px;"/><path d="M279.1023,884.8484l.204.3033c.198.2944.3938.5657.6264.8457.2494.2685.5448.4583.8861.5693.3281.1724.6818.2514,1.0608.2371l.732-.0984c.4664-.1308.8714-.3669,1.215-.7081.226-.272.4301-.5538.6264-.8457l.204-.3033c.291-.5017.4373-1.0428.4392-1.6235-.0018-.5806-.1482-1.1218-.4392-1.6235-.5725-.9783-1.6435-1.5931-2.7774-1.5931s-2.2049.6148-2.7774,1.5931c-.291.5017-.4373,1.0428-.4392,1.6235.0018.5806.1482,1.1218.4392,1.6235h0Z" style="fill:#003033; stroke-width:0px;"/><path d="M271.3583,902.8448c.2646-.119.5291-.2381.7937-.3571.3867-.2288.6944-.5365.9232-.9232.2328-.4014.3499-.8343.3513-1.2988-.0014-.4645-.1186-.8974-.3513-1.2988-.2288-.3867-.5365-.6944-.9232-.9232-.2646-.119-.5291-.2381-.7937-.3571-.4659-.2702-.9684-.4061-1.5075-.4078-.5391.0017-1.0416.1376-1.5075.4078-.9084.5316-1.4793,1.5261-1.4793,2.579s.5709,2.0474,1.4793,2.579c.4659.2702.9684.4061,1.5075.4078.5391-.0017,1.0416-.1376,1.5075-.4078h0Z" style="fill:#003033; stroke-width:0px;"/><path d="M270.187,929.7014c.2416-.3882.4831-.7765.7247-1.1647l.2409-.5708c.0996-.3176.1138-.6352.0427-.9528-.0007-.2157-.055-.4167-.1631-.603-.0964-.2962-.261-.5526-.4941-.769l-.4836-.3736-.5708-.2409c-.3176-.0996-.6352-.1138-.9528-.0427-.318.0144-.6141.1089-.8884.2836-.3882.2416-.7765.4831-1.1647.7247-.4074.241-.7316.5652-.9726.9726-.2452.4229-.3686.879-.3701,1.3683l.0968.7207c.1288.4593.3612.858.6972,1.1963.2456.2644.5364.4512.8725.5606.3231.1697.6713.2476,1.0445.2335.4894-.0015.9455-.1249,1.3683-.3701.4074-.241.7316-.5652.9726-.9726h0Z" style="fill:#003033; stroke-width:0px;"/><path d="M307.7782,922.1625c4.5218-5.3968,8.8546-10.9539,12.9796-16.6599,1.9957-2.7606,3.9202-5.5697,5.8516-8.3752.966-1.4032,1.9195-2.8149,2.8601-4.2352,1.1301-1.7064,2.5147-3.3484,2.39-5.5071-.1221-2.1127-2.1006-3.0893-3.9411-2.2616-1.811.8144-2.5847,2.6281-3.5515,4.2488-.8711,1.4602-1.7551,2.9127-2.6524,4.357-1.7943,2.8883-3.6949,5.7104-5.6295,8.5064-3.8273,5.5315-7.8541,10.9212-12.0759,16.1577-.9026,1.1196-1.0942,2.6748,0,3.7691.9495.9495,2.8403,1.1085,3.7691,0h0Z" style="fill:#003033; stroke-width:0px;"/><path d="M336.2686,921.5667c1.6927-1.5278,3.3854-3.0556,5.0781-4.5833l2.5022-2.2585c.991-.8944,1.723-2.0263,2.5095-3.1003.6879-.9394.3996-2.5785-.4311-3.3411-.9107-.836-2.2442-1.0596-3.3411-.4311l-1.4332.8212c-.674.3862-1.2689.8519-1.8487,1.3666l-2.5962,2.3045c-1.7061,1.5144-3.4122,3.0288-5.1183,4.5431-1.2983,1.1524-1.2632,3.5192,0,4.6789,1.3764,1.2635,3.3045,1.2405,4.6789,0h0Z" style="fill:#003033; stroke-width:0px;"/><path d="M910.161,797.859c-12.6085,15.0749-23.7029,31.2668-32.9377,48.6199-1.2666,2.38-2.5004,4.7775-3.7009,7.1915-1.3522,2.7191-2.6014,5.3912-3.1548,8.3834-.303,1.6386.1842,3.5191,1.7738,4.359,1.4132.7466,3.5763.7448,4.6775-.6035.8759-1.0725,1.7912-2.1071,2.466-3.3213.5829-1.0486,1.1435-2.0967,1.6708-3.1746,1.0534-2.153,2.1328-4.2933,3.2386-6.4198,2.2115-4.2529,4.5269-8.4518,6.9431-12.5918,4.8261-8.2693,9.9829-16.3733,15.5007-24.1985,1.5085-2.1393,3.0458-4.2584,4.6111-6.3566.8048-1.0788,1.6178-2.1513,2.4367-3.2195.4497-.5865-.2778.3573.1756-.2288.2295-.2967.4601-.5925.691-.888.4618-.5911.9263-1.18,1.3922-1.7678,1.3259-1.6731,1.7554-4.1722,0-5.7836-1.5131-1.389-4.318-1.7523-5.7836,0h0Z" style="fill:#003033; stroke-width:0px;"/><path d="M933.3262,813.7625c-3.6122,7.1388-7.5295,14.0993-11.464,21.0631-1.9298,3.4156-3.9147,6.8001-5.9542,10.1513-1.0608,1.743-2.1623,3.4608-3.2262,5.2016-1.1554,1.8905-1.8796,3.8034-2.5206,5.9143-.873,2.8749,2.7326,4.5583,4.7617,2.7719.9248-.8141,1.894-1.577,2.6349-2.566.565-.7541,1.1221-1.5237,1.6264-2.3194,1.0492-1.6556,2.0398-3.3523,3.0382-5.0389,2.0385-3.4437,4.0201-6.921,5.9432-10.4304,3.8491-7.0244,7.2421-14.3152,10.4774-21.6398.6713-1.5198.4437-3.3067-1.1045-4.2122-1.3703-.8015-3.4587-.3848-4.2122,1.1045h0Z" style="fill:#003033; stroke-width:0px;"/><path d="M953.0379,849.7969c.5413-.2851,1.0825-.5702,1.6238-.8553.5111-.2692.9748-.5003,1.4121-.9107.2257-.2118.4404-.4364.6594-.6552l.4958-.6417c.2317-.3639.3571-.7569.3763-1.1788.0755-.281.0755-.5619,0-.8429-.0191-.422-.1446-.8149-.3763-1.1788l-.4958-.6417-.6417-.4958c-.3639-.2317-.7569-.3571-1.1788-.3763-.4214-.0944-.8429-.0755-1.2643.0566l-.419.1735c-.3779.1565-.8318.2989-1.1656.489-.4679.2665-.9143.6996-1.3398,1.0514-.4723.3904-.9446.7809-1.4169,1.1713-.3002.2789-.5124.6091-.6366.9908-.1928.3669-.2811.7623-.2652,1.1862l.11.8184c.0953.4006.2789.7496.5511,1.047.1369.2313.3209.4154.5522.5522.2973.2721.6463.4558,1.047.5511l.8184.11c.5557-.0017,1.0737-.1418,1.5539-.4203h0Z" style="fill:#003033; stroke-width:0px;"/><path d="M852.8251,830.1908c.6781-.1427,1.3328-.3566,2.0035-.525.6798-.1707,1.3486-.3848,2.0007-.6419.8189-.3229,1.6312-.6731,2.4071-1.0903.8277-.4451,1.4289-1.1431,2.0115-1.861.4467-.5505.8276-1.1693.7941-1.917-.0274-.6121-.2056-1.1554-.5821-1.6427-.7689-.9952-2.3837-1.4741-3.4973-.6983-.6962.4851-1.4928.8614-2.1014,1.4584-.4572.4485-.9414.8675-1.4473,1.2601l.536-.4141c-.7383.5647-1.5346,1.147-2.393,1.5138l.5457-.2303c-.4758.1992-.9587.3775-1.45.5345-1.0972.3508-1.9177,1.5475-1.5405,2.7132.3865,1.1945,1.5017,1.7954,2.7132,1.5405h0Z" style="fill:#003033; stroke-width:0px;"/><path d="M166.3661,390.2431c-19.9427,1.7933-39.1778,8.019-56.6842,17.7098-17.9699,9.9474-33.2687,23.6683-45.7175,39.9566-5.9716,7.8134-11.1886,16.2446-15.3147,25.1763-5.1769,11.2063-8.7262,22.7166-6.9439,35.143,2.9483,20.5569,19.5778,36.8553,38.1378,44.4591,22.0442,9.0312,47.4788,4.6733,68.844-4.1297,10.5671-4.3539,21.4279-9.2632,30.4123-16.4379,8.1629-6.5186,14.2738-17.0263,10.394-27.6304-8.9975-24.5918-42.0478-19.989-61.1196-12.0919-20.6768,8.5617-38.9579,23.404-52.9421,40.7744-13.7178,17.0395-24.0454,37.1865-27.2073,59.0073-3.0952,21.3601-1.0288,48.4373,18.1433,62.01,9.2336,6.5368,21.771,8.284,32.7929,6.9476,10.8666-1.3176,21.3845-4.5566,30.6906-10.4186,9.1419-5.7586,17.0453-13.2806,23.1932-22.1643,5.2661-7.6094,11.8654-21.4766,1.0826-27.767-4.7089-2.747-10.5722-1.7694-15.6109-.7004-4.8017,1.0187-9.5224,2.4141-14.112,4.1538-9.0159,3.4175-17.5706,7.9365-25.3843,13.5919-15.9578,11.5499-28.9324,27.2217-37.009,45.2283-4.124,9.1944-7.0183,18.7158-8.3881,28.7092-1.6197,11.8163-2.0625,24.8435,5.0184,35.1151,12.2662,17.7936,37.5696,23.5179,57.3749,16.2055,18.6447-6.8839,34.335-22.106,40.3009-41.2724,1.5503-4.9805,2.9274-10.9435,1.9304-16.1343-1.1403-5.9373-6.2301-9.1819-11.9222-9.7634-10.7071-1.0937-20.4753,7.2699-26.67,15.0788-13.6977,17.2671-22.369,38.9583-25.3929,60.7297-1.521,10.9507-1.7773,21.9599-.4139,32.9445.7039,5.6714,1.6838,11.2942,3.1335,16.8252,1.5363,5.8614,4.1646,12.4304,10.6172,14.2557,7.2949,2.0636,12.6796-3.5871,17.785-7.7942,4.9471-4.0767,9.7933-8.2807,14.6789-12.4312-4.2578-1.7637-8.5157-3.5273-12.7735-5.291-1.3744,15.6291,1.8515,31.2776,8.3249,45.4942,6.531,14.3432,16.9456,26.1356,29.6635,35.2826,3.1915,2.2954,8.48.6586,10.2477-2.687,2.0463-3.8731.7192-7.7978-2.687-10.2477.8692.7261.4878.4406-1.1442-.8563.5828.4472.5297.3991-.1592-.1442-.7273-.6097-1.4645-1.2057-2.1806-1.8289-1.2526-1.0901-2.47-2.2204-3.6517-3.387-2.3657-2.3355-4.6289-4.7696-6.725-7.3512-.2994-.3687-.5955-.74-.8885-1.1137.4769.6176.4456.5704-.0938-.1415-.4164-.5781-.8427-1.1487-1.2531-1.7311-1.0948-1.5535-2.1371-3.1441-3.1252-4.7676-1.7287-2.8402-3.3013-5.7845-4.7094-8.7966-.3522-.7534-.6931-1.512-1.023-2.2755-.2162-.4999-.1887-.4361.0827.1914-.1798-.4404-.3559-.8823-.5284-1.3257-.6034-1.5512-1.1611-3.1199-1.6738-4.7034-1.0971-3.3885-1.9813-6.8484-2.638-10.3491-.1312-.6996-.2538-1.4008-.3675-2.1034-.0756-.4684-.1471-.9373-.2146-1.4069.1092.8365.1073.8011-.0058-.1063-.1713-1.6547-.3358-3.3048-.4268-4.9664-.195-3.5609-.1348-7.1237.142-10.6786.228-2.9288-2.0688-5.7701-4.5997-6.8381-2.8926-1.2207-5.8492-.4681-8.1738,1.5472-4.4937,3.8958-9.0272,7.7512-13.4784,11.6952-1.789,1.5852-4.2579,3.5927-5.592,4.9928l.1157-.0779c-.7845.4092-.8868.5247-.3068.3468.2265.1265.8854.0017,1.173.0899.0003,0,1.806,1.0769.9708.5442-.2196-.1981-.422-.4128-.6074-.644.4272.5385.5021.5956.2245.1711-.2541-.4641-.5141-.9168-.7399-1.3969.5245,1.1156.0752.1704.0007-.0811-.3478-1.1756-.7503-2.3354-1.0942-3.513-.7155-2.4501-1.3487-4.9242-1.8999-7.4164-1.0805-4.8857-1.6814-8.7497-2.0893-13.3585-1.6777-18.9589.8183-38.3632,8.4421-55.9111,3.7475-8.6258,8.4827-17.3564,14.649-24.5077,2.9124-3.3776,6.1824-6.411,10.2197-8.3854,1.3418-.6562,3.332-1.2945,4.3898-1.3938.9708-.0911,1.7137-.0696,2.2983.0489-.0004,0,.9369.2565.431.0594.1191.0464,1.1769.7806.8289.4409,1.6268,1.5879-.39,7.6158-1.1372,10.0449-1.2099,3.9331-2.6866,7.0476-4.9668,10.6982-2.2448,3.594-4.1677,5.8507-7.2905,8.8442-.7085.6792-1.4332,1.341-2.1746,1.9841-.4128.3581-.831.7097-1.2535,1.0563-.1789.1468-1.2697,1.0098-.4867.4066-1.72,1.3249-3.5397,2.5334-5.4024,3.6474-.7481.4474-1.506.8784-2.2731,1.2925-.5757.3108-1.1593.6063-1.7377.9121.5272-.2786,2.3531-1.0043-1.1891.5524-.4.1758-.7952.3622-1.1961.5361,1.2088-.5243-.1025.0307-.4079.1493-1.1082.4306-2.2295.8279-3.3631,1.1869-1.8549.5874-3.7456,1.0869-5.6403,1.5258-1.0546.2443-2.1124.4679-3.1791.653-.4265.074-.8551.1342-1.282.2061,1.8396-.31-.2807.0165-.541.0416-1.9363.1867-3.8839.2614-5.8288.2182-1.0856-.0241-2.1712-.084-3.2527-.1826-.4347-.0396-.8674-.0891-1.3013-.1359,1.8896.2036-.1266-.0333-.5434-.1072-2.1585-.3825-4.3091-.9124-6.4022-1.5628-1.0005-.3108-1.9835-.6634-2.9626-1.0347-1.4218-.5391-.3356-.145-.0502-.0141-.6325-.2902-1.2629-.5835-1.8832-.8991-1.0278-.523-2.0342-1.0893-3.0124-1.7002-.3889-.2428-.7741-.493-1.1539-.75.0529.0358-1.7787-1.2628-.8741-.5938.8966.6632-.8422-.7073-.803-.6735-.3423-.296-.68-.5986-1.0102-.9083-.9104-.8539-1.6891-1.8024-2.5519-2.6978-.8627-.8953.9174,1.4482-.2245-.2946-.2466-.3763-.5082-.7396-.7501-1.1197-.6086-.9562-1.1251-1.9489-1.6288-2.9626.6808,1.3702-.4081-1.1376-.576-1.6872-.2529-.8278-.4655-1.6676-.6458-2.514-.0431-.2022-.4091-2.4258-.2723-1.3794-.642-4.9114-.2571-10.0298.2985-14.934.0503-.4439.1053-.8872.1603-1.3306-.1975,1.5945-.0059.0934.055-.3055.1516-.9934.3182-1.9845.5006-2.9728.405-2.1935.8856-4.3732,1.4387-6.5341,1.0486-4.0967,2.3499-8.1445,3.8608-12.0939.1989-.5201.4026-1.0382.6098-1.555.1276-.3182.6932-1.6793.1538-.4066.3489-.8234.7131-1.6406,1.0849-2.4538.9298-2.0334,1.9235-4.0376,2.978-6.0092,2.0562-3.8444,4.3442-7.5642,6.8429-11.1367.5764-.8241,1.1637-1.6407,1.7623-2.4488.266-.3591.5345-.7164.8046-1.0724-.8062,1.063.5424-.6857.5697-.7199,1.3985-1.7515,2.8498-3.461,4.3513-5.1252,11.1679-12.378,24.1946-22.1948,39.8971-27.9967,3.1957-1.1808,19.0334-7.7394,17.0132.5089-.9545,3.8973-4.1357,7.4911-6.7167,10.4392-2.7563,3.1484-6.1898,6.4323-9.2215,8.8064-3.5482,2.7786-7.4515,5.1614-11.468,7.1954-1.0675.5406-2.1528,1.0394-3.2379,1.543-.1061.0492-1.2045.5225-.3293.1549-.4371.1836-.8807.3494-1.319.5296l-1.6671.7035c.4598-.1985.4659-.2054.0182-.0207-.5533.2195-1.1062.4392-1.6636.6483-1.1147.4181-2.2398.8087-3.3738,1.1712-2.0423.6527-4.114,1.2141-6.207,1.6794-1.1637.2587-2.3342.4879-3.5097.6866-.4705.0795-.942.1536-1.414.224,1.3672-.2038-.6499.0729-.9247.1018-2.3666.2484-4.7554.3741-7.1352.3716-1.1402-.0012-2.2799-.0366-3.4177-.1106-.6311-.041-1.2601-.0988-1.8893-.1616-.5172-.0602-.5025-.0516.0442.0257-.3739-.0533-.7467-.1128-1.1185-.1788-9.3275-1.6007-15.3957-5.6525-19.6111-13.6385-1.1803-2.2361-1.3142-2.5922-2.1196-4.9858-.7799-2.3179-1.3951-4.6902-1.8793-7.0868-.2171-1.0746-.4019-2.1545-.5724-3.2374-.2155-1.3688.1818,1.701-.0985-.6898-.0581-.496-.1153-.9921-.1665-1.4889-.2546-2.4701-.4018-4.951-.4468-7.4337-.1781-9.8364.9866-17.4805,3.7821-26.9865,2.7313-9.2876,6.2189-16.8237,11.2279-25.3874,9.3925-16.0581,22.4385-30.3189,37.8181-41.2139,8.1267-5.757,16.9369-10.6631,26.4507-13.647,8.9298-2.8007,19.3396-4.7244,28.4777-1.7705,3.7176,1.2017,7.0085,3.5348,8.8939,6.7314.7619,1.2919,1.3107,2.9495,1.4123,4.1582.0551.6553.0453,1.3331-.0031,1.9886-.0069.0932-.1755,1.1079-.0364.3689-.0773.4108-.1742.8216-.2848,1.2251.0036-.0131-.5836,1.7777-.2567.9642-1.4146,3.5205-4.3365,6.3377-7.0677,8.3766-3.6329,2.712-7.6729,4.8145-11.7292,6.8092-18.8962,9.2923-39.6526,16.0872-60.6909,13.8098-3.7559-.4066-8.6868-1.6138-12.7247-3.1005-.5287-.1946-1.0526-.4002-1.5773-.6053-.1748-.0683-1.2161-.5351-.2071-.0845-.9278-.4143-1.8479-.8428-2.7563-1.2984-2.0208-1.0134-3.9845-2.1379-5.882-3.3667-.8533-.5526-1.6904-1.1286-2.5198-1.7163-.4598-.3259-.9166-.6548-1.3679-.9924-1.0227-.7649,1.2039,1.0283-.4449-.355-1.7186-1.442-3.3964-2.9141-4.9679-4.5178-1.394-1.4227-2.7311-2.9155-3.9527-4.4897.6802.8766-.0019-.0168-.1093-.1714-.3128-.4506-.6382-.8922-.947-1.3458-.6758-.9924-1.3183-2.0078-1.9199-3.047-.4892-.8452-.953-1.7046-1.3897-2.5781-.2418-.4837-.4652-.9755-.7005-1.4622-.0934-.1931-.5094-1.2177-.0721-.134-.8052-1.9953-1.4697-4.0468-1.9654-6.141-.2233-.9433-.4046-1.8936-.5658-2.8493-.206-1.2214.1235,1.633-.0535-.426-.0372-.4326-.0816-.8639-.1115-1.2971-.1555-2.2514-.1377-4.5417.1286-6.7843,1.0658-8.9756,5.6451-18.3417,10.0599-26.493,2.1489-3.9677,4.4924-7.8296,7.0148-11.5708,2.5555-3.7903,4.6274-6.5744,7.3101-9.8269,5.6026-6.7927,11.8184-13.076,18.5332-18.7708,13.0562-11.0729,28.118-20.8786,44.5883-26.6716,8.0883-2.8448,16.2762-5.259,24.7218-6.8202,3.5286-.6523,2.7658-6.6438-.8551-6.3182h0Z" style="fill:#7e96fc; stroke-width:0px;"/><path d="M221.7499,601.834c4.8532-.0138,9.7141.0476,14.5618-.1803,4.853-.2281,9.7055-.4667,14.5574-.7157,9.7081-.4983,19.4069-1.2687,29.1007-1.9902,19.2014-1.429,38.3972-2.965,57.5566-4.8814,19.1703-1.9174,38.3242-3.9984,57.459-6.2426,19.2439-2.257,38.4267-5.0974,57.6086-7.8233,21.5535-3.0629,43.0742-6.3301,64.5471-9.9159,1.3473-.225,2.1-1.8904,1.7652-3.1089-.4002-1.4562-1.7516-1.9551-3.1089-1.7652-38.0792,5.3304-76.2001,10.2667-114.4344,14.3532-19.1538,2.0471-38.2798,4.3229-57.4472,6.2529-19.176,1.9308-38.3543,3.8618-57.5465,5.6252-10.6649.9799-21.3399,1.8374-32.0071,2.7879-10.8986.9711-21.7593,2.0897-32.6123,3.4686-2.5563.3248-2.7442,4.1433,0,4.1356h0Z" style="fill:#7e96fc; stroke-width:0px;"/><path d="M216.7374,688.7779c17.5325-1.7737,35.0459-3.735,52.5358-5.8889,17.615-2.1693,35.1994-4.5465,52.7509-7.1816,17.3501-2.6048,34.6721-5.3974,51.9617-8.3775,17.3756-2.9949,34.7187-6.1791,52.0249-9.5519,8.6499-1.6858,17.2739-3.5025,25.8921-5.3427,4.2663-.911,8.5302-1.8335,12.7916-2.7675,4.336-.9504,8.7362-1.7724,13.0105-2.9731,2.0996-.5898,4.1907-1.1942,6.273-1.8428,1.1501-.3583,1.9267-1.4602,1.7445-2.6721-.1604-1.0666-1.1771-2.2736-2.3919-2.1117-8.8129,1.1746-17.4629,3.1213-26.1727,4.8805-8.5601,1.729-17.1296,3.4119-25.7079,5.0485-17.3215,3.3046-34.6299,6.648-51.9994,9.6959-17.2805,3.0323-34.594,5.8773-51.9362,8.5343-17.3359,2.6561-34.6997,5.1552-52.0777,7.5198-17.3716,2.3638-34.7706,4.5286-52.19,6.5095-2.1694.2467-4.3391.4902-6.5091.7313-1.5537.1726-2.8949,1.207-2.8949,2.8949,0,1.4434,1.3298,3.0532,2.8949,2.8949h0Z" style="fill:#7e96fc; stroke-width:0px;"/><path d="M229.5884,783.4928c16.3906-2.1839,32.7622-4.5077,49.1109-6.9866,16.2739-2.4675,32.6017-4.7301,48.8077-7.6184,16.1883-2.8852,32.3503-5.9184,48.4832-9.0992,16.132-3.1806,32.2348-6.5087,48.3059-9.9839,16.059-3.4726,32.036-7.3866,47.9901-11.3092,1.9847-.488,3.8781-1.3591,5.7795-2.103,1.5109-.5911,2.5944-1.8678,2.3369-3.5796-.2206-1.4667-1.5677-2.9934-3.2042-2.8289-2.167.2178-4.4105.2988-6.539.7653-1.9973.4378-3.9856.9218-5.9786,1.3791-3.9869.9149-7.9759,1.8207-11.9669,2.7175-8.0622,1.8115-16.1328,3.5859-24.2114,5.3232-16.0703,3.4559-32.1101,7.0397-48.2101,10.3592-16.0968,3.3188-32.2239,6.4903-48.3788,9.514-16.1372,3.0204-32.2313,6.2738-48.3922,9.17-16.1611,2.8963-32.3698,5.5492-48.5886,8.1003-2.0173.3173-4.0349.6321-6.0528.945-2.9354.4551-2.2731,5.6324.7085,5.2351h0Z" style="fill:#7e96fc; stroke-width:0px;"/><path d="M681.7641,554.92c10.5576-1.2602,21.1152-2.5204,31.6729-3.7805,10.47-1.2497,20.9352-2.6539,31.4254-3.7191,10.5576-1.072,21.1152-2.144,31.6729-3.2161,10.4637-1.0625,20.9402-1.8732,31.4254-2.6931,5.9375-.4643,11.8846-.8637,17.816-1.3994,6.2727-.5665,12.7141-.8223,18.9091-1.9657,2.9157-.5382,4.6426-3.8475,4.2789-6.5542-.3704-2.7563-2.8926-5.3875-5.8669-5.1796-5.6262.3932-11.2622,1.6255-16.8293,2.5234-5.2238.8425-10.4296,1.801-15.6408,2.7184-10.2618,1.8066-20.5102,3.7166-30.8112,5.2854-10.4866,1.5971-20.9731,3.1941-31.4597,4.7912-10.381,1.581-20.801,2.9016-31.2081,4.2998-11.7948,1.5847-23.5897,3.1693-35.3845,4.754-1.1066.1487-2.0678.8439-2.0678,2.0678,0,1.0148.9514,2.201,2.0678,2.0678h0Z" style="fill:#7e96fc; stroke-width:0px;"/><path d="M720.5683,628.8232c20.5804-2.7908,41.0823-6.0088,61.5203-9.7013,10.1293-1.8301,20.2421-3.7521,30.3365-5.7659,5.1271-1.0228,10.2495-2.0692,15.367-3.1391,5.0576-1.0574,10.1263-1.9216,15.2215-2.7784,5.7396-.9652,11.4744-1.9596,17.2039-2.9831,5.797-1.0356,11.6207-2.0203,17.3235-3.4976,2.6296-.6812,4.481-3.747,3.6266-6.3873-.8978-2.7741-3.5474-4.2755-6.3873-3.6266-10.087,2.3047-19.9831,5.575-29.9462,8.366-4.9389,1.3835-9.8758,2.903-14.8872,3.9983-5.1054,1.1159-10.2159,2.2083-15.3313,3.2771-20.2203,4.225-40.5177,8.0811-60.8786,11.5662-11.4993,1.9683-22.9882,3.978-34.5126,5.7977-1.3493.2131-2.0977,1.8987-1.7652,3.1089.4014,1.4606,1.7507,1.9493,3.1089,1.7652h0Z" style="fill:#7e96fc; stroke-width:0px;"/><path d="M744.9463,704.0773c5.7442-.0455,11.4692-.7822,17.1821-1.3702,5.6501-.5815,11.2813-1.2939,16.9121-2.0383,11.525-1.5235,23.0314-3.1847,34.5136-5.0033,11.2434-1.7808,22.4639-3.7068,33.6576-5.7774,11.3614-2.1016,22.7342-4.1543,34.0815-6.3306,6.234-1.1956,12.4594-2.4354,18.6739-3.7288,3.1858-.6631,6.3691-1.3378,9.5499-2.0243,1.5898-.3431,3.1759-.7016,4.7614-1.0645.8856-.2027,1.748-.3719,2.5873-.7261,1.2467-.5261,2.1634-1.3584,3.0594-2.3393,2.5279-2.7669,1.3335-6.7734-2.1088-7.9873-2.05-.723-3.7795-.6963-5.8654-.1399-1.4911.3977-2.9842.7878-4.4735,1.1923-2.6645.7238-5.3303,1.443-7.9989,2.1519-5.571,1.4799-11.1508,2.9274-16.7388,4.3415-11.0162,2.7876-22.0531,5.4935-33.1858,7.7766-22.3487,4.5832-44.8163,8.5861-67.3726,12.0035-6.2576.9481-12.529,1.8013-18.785,2.7584-6.3866.977-12.8527,1.6684-19.1585,3.0708-2.9566.6575-2.2705,5.2587.7085,5.2351h0Z" style="fill:#7e96fc; stroke-width:0px;"/></svg>