<?xml version="1.0" encoding="UTF-8"?><svg id="ARTWORK" xmlns="http://www.w3.org/2000/svg" viewBox="0 0 1000 1000"><path d="M590.3738,477.1582c-14.7329-13.7713-24.1816-32.0448-32.5042-50.154-8.1333-17.9895-15.8146-37.1099-22.3995-55.7281-2.1938-6.4959-4.4988-13.4754-6.6419-20.0049-1.6104-5.3189-4.4518-14.9127-6.0117-20.2294-5.2659-19.0977-9.9795-39.378-13.6415-58.8497-1.6233-9.9024-2.8129-20.0106-3.6104-30.0206-.7612-7.567-1.5505-16.5796-2.0334-24.1019-2.5093-36.1908-2.0782-72.5998,1.0314-108.7508,0,0,13.1505,10.0471,13.1505,10.0471-125.7101,46.6069-256.5605,79.3066-389.4173,97.3159l8.3314-8.0432c-35.5046,215.7596,73.8049,418.4634,219.2822,570.2308,2.5704,2.6097,7.6697,8.1831,10.3118,10.7776,1.8256,1.6436,2.7803,2.6171,4.0093,2.9175,1.4314-.0816,2.8692-.7955,5.4347-2.058,20.3471-10.1811,41.3134-20.5978,61.5016-30.9825,66.4755-30.4913,142.8428-64.3184,209.8254-93.6466,0,.0002-26.6817,15.0781-26.6817,15.0781-54.1395,30.3082-119.6672,67.024-174.1926,96.4833-18.0613,8.8914-36.8582,18.043-54.861,27.1591-7.0038,3.1973-14.3583,8.4874-23.2104,7.4185-7.782-.8673-13.8634-6.3492-18.3752-11.3053-1.4113-1.5577-6.4223-6.6963-7.9729-8.3803C206.6139,651.2969,102.3012,467.8957,110.7337,267.3927c1.0342-20.7819,3.2304-41.5045,6.6013-62.0638.7054-4.3018,4.1427-7.4744,8.2477-8.0349,131.4561-17.805,260.9428-50.1684,385.326-96.2812,6.5721-2.5286,13.9141,3.014,13.1504,10.0473-3.4038,38.9854-3.3949,78.3883-.143,117.3997.5298,5.5042,1.1902,11.9755,1.8771,17.5327,2.9964,21.3431,4.977,42.8552,8.6234,64.1451,2.6439,15.0253,5.7494,31.4931,9.3973,46.2795,4.4656,19.0732,9.9081,38.426,16.0382,57.0167,7.3042,22.3556,15.0208,45.5574,30.5217,63.7246h0Z" style="fill:#7e96fc; stroke-width:0px;"/><path d="M680.744,596.4497c-.3985.23-.8151.4179-1.2182.6371-.5507.2995.746-.2653.1564-.0605-.2458.0854-.4863.1856-.7332.2687-.8355.2812-1.9274.2877-2.7056.6455.3527-.1622.8314-.0898.1946-.0323-.2401.0217-.4798.0459-.7205.0606-.5312.0325-1.0571.0322-1.5886.0032-.4771-.026-.9511-.0753-1.4266-.121-.8922-.0857.7701.1349.067.0114-.3004-.0527-.6023-.0959-.9024-.1506-1.0674-.1945-2.1243-.4447-3.1701-.733-.5762-.1588-1.149-.3294-1.7188-.5096-.2514-.0795-.5021-.161-.7522-.2442-.1691-.0562-.3369-.1171-.5067-.1711-.5373-.1709-.2089.0697-.0762,0l.3064.1325-1.1199-.4726c-.1698-.0619-.3528-.1049-.5251-.1637-.2641-.0902-.5245-.1945-.7853-.2938-.6717-.2558-1.338-.5246-2.004-.7947-1.0238-.4152.7638.3346-.0348-.0117-.2721-.118-.5448-.2346-.8165-.3536-.6968-.3052-1.387-.624-2.0788-.94-5.8439-2.6693-11.5515-5.6329-17.315-8.4699-6.8821-3.3875-13.7592-6.7868-20.7447-9.9578-4.1771-1.8961-8.3974-3.6814-12.6717-5.3473-1.9969-.7783-3.9972-1.5882-6.0372-2.2472-2.4708-.7982-5.0074-1.1835-7.5789-1.5014-4.6823-.5787-9.4044-.1579-14.029.6973-4.1637.77-8.3461,2.0838-12.0253,4.2097-7.7715,4.4907-13.8212,12.6637-13.8481,21.8845-.0162,5.5514,3.0784,9.8228,6.3456,13.9941,6.2877,8.0276,14.0078,15.0469,21.6484,21.7574,9.0482,7.9468,18.9572,14.7797,28.9801,21.4346,12.5007,8.3001,25.4627,15.8975,38.734,22.8953,13.9497,7.3556,28.1702,14.4225,42.7518,20.4426,13.6528,5.6367,27.7384,10.3067,42.0133,14.0824,7.3658,1.9482,14.7668,3.7627,22.1924,5.4684,3.6281.8334,7.2846,1.4555,10.9556,2.069,1.7766.2969,3.5542.5879,5.3327.8728,1.0269.1645,2.0529.3305,3.0836.469,1.9124.257.273.0367-.0974,0,.6693.0662,1.3538.1822,2.0281.2725.481.0644.962.1285,1.4432.1921,1.5319.2024,3.0644.4,4.5976.5928.2245.0282.4707.0822.694.0869-.3046-.0065-1.7264-.2474-.044-.0213.5906.0794,1.1694.131,1.7624.1741.3398.0247.6795.0491,1.0193.0733.3986.0284,1.7739.2411.3524-.0608,2.5462.5408,5.5144-.7505,6.1372-3.4846.5708-2.5061-.7545-5.5573-3.4846-6.1372l.5718.278c-.5027-.2354-1.0152-.4456-1.5376-.6307-.3237-.1221-.6499-.2381-.9747-.3575-.6589-.2422-1.317-.4812-1.9816-.7049-1.4756-.4968-2.9631-.9606-4.4449-1.4398-2.9809-.9641-5.9747-1.8809-8.965-2.8165-6.3612-1.9901-12.7276-3.8917-19.1277-5.7529-13.0245-3.7876-25.9982-7.8843-38.824-12.2986-6.7341-2.3177-13.4116-4.8065-19.9749-7.5733l1.9757.8337c-6.8041-2.8807-13.4601-6.1161-20.1045-9.3441-6.8032-3.3051-13.56-6.7069-20.2385-10.2577-13.0881-6.9587-25.8083-14.5515-38.1773-22.7189-6.5051-4.2953-13.092-8.6157-19.2641-13.3826l1.6687,1.2892c-8.3782-6.4989-16.3139-13.8207-23.6078-21.5076-2.0614-2.1725-4.0678-4.4051-5.9013-6.7748l1.2754,1.6508c-1.1833-1.5432-2.3484-3.1569-3.1244-4.9505l.821,1.9455c-.2066-.497-.3779-1.0039-.4595-1.5372l.2908,2.1641c-.1258-1.0116-.0688-2.0484.0474-3.0575l-.2906,2.1623c.1968-1.4005.5735-2.7532,1.1-4.0652l-.8164,1.9345c.6115-1.4337,1.3911-2.7595,2.3215-4.009l-1.254,1.623c1.2013-1.5538,2.5856-2.9193,4.1357-4.1241l-1.6029,1.2384c1.5762-1.1853,3.2649-2.1705,5.077-2.9495-.6227.2628-1.2454.5256-1.8681.7883,3.2151-1.3202,6.6387-2.1689,10.0734-2.6668l-2.0318.273c3.248-.4352,6.5108-.5071,9.767-.1147l-1.9876-.2671c4.1256.5544,8.0238,2.0277,11.9258,3.4203,3.8435,1.3717,7.678,2.7777,11.4918,4.23,6.9156,2.6334,13.7491,5.4724,20.5923,8.2864,1.5993.6576,3.1994,1.3131,4.8025,1.9612.166.0671.3327.1468.5027.203-.316-.1044-1.6725-.7088-.0501-.0242.5686.2399,1.1399.4409,1.7184.6531.7645.2804,1.5298.5586,2.2962.8337,2.8166,1.0108,5.6475,2.0166,8.5216,2.852,1.2942.3762,2.5904.7433,3.8969,1.075.6003.1524,1.2022.2985,1.8059.437.3172.0728.6371.1365.9536.2123.1329.0318.2668.073.4003.1007.2443.0759.496.1163.755.1211.858.1125.8308.112-.0815-.0016.4361.2274,1.2253.2287,1.7077.3079.8977.1474,1.7996.2683,2.7018.3847,1.0784.1392,2.1607.2451,3.2473.2928,1.1615.051,2.3267.0399,3.4855-.0582.7989-.0676,1.6116-.1388,2.4018-.2689-.0314.0052-1.0205.1362-.3944.0515.4047-.0547.8105-.1035,1.2144-.1646.2693-.0408.538-.0851.8054-.1369,2.2318-.4324,4.4386-1.3157,6.3431-2.5567,1.633-1.0641,2.3151-3.2009,1.2961-4.943-.9922-1.6964-3.2471-2.2752-4.943-1.2961h0Z" style="fill:#003033; stroke-width:0px;"/><path d="M581.6463,569.7177c28.665-44.102,61.7535-85.3273,98.6078-122.8564,2.0525-2.0901,4.3491-4.2871,7.2578-4.6351,2.8272-.3383,5.514,1.1587,7.9679,2.603,8.4896,4.997,18.1432,12.1068,17.2991,21.9217-.5463,6.352-5.4798,11.3261-10.1132,15.7053-27.2089,25.7156-54.4179,51.4312-81.6268,77.1468-1.8806,1.7774-3.778,3.5678-5.9781,4.9299-7.8549,4.8628-17.9019,3.4668-27.0071,1.9045" style="fill:#003033; stroke-width:0px;"/><path d="M583.988,572.0594c4.2103-4.8423,7.4346-9.4108,11.2122-14.1581,3.9586-4.9748,7.5401-10.2841,11.3799-15.3553.8307-1.097,1.6642-2.1919,2.5005-3.2846.4647-.6071.9302-1.2136,1.3967-1.8193.1866-.2423.3733-.4845.5602-.7266-.7619.9873.2503-.322.4006-.5157,1.0852-1.3984,2.1748-2.7926,3.2491-4.1993.4634-.6068.9276-1.213,1.3927-1.8184.186-.2422.3722-.4843.5586-.7263.2849-.37.8283-1.0801.2327-.3026,3.7019-4.8326,7.5083-9.5891,11.344-14.3158,15.222-18.7577,31.4546-36.6305,48.11-54.1196,2.0503-2.1529,4.1127-4.2942,6.1872-6.4237,1.0379-1.0654,2.07-2.138,3.1258-3.1858.4808-.4771.9686-.948,1.48-1.3924.2023-.1758.4273-.3377.6219-.52-1.3512,1.2653-.5259.4159-.0755.1379.2806-.1732.5768-.313.8614-.4768.7632-.4393-1.665.487-.3584.1844.0874-.0202.6556-.1028.7639-.1813l-.9968.1482c.2799-.0155.5597-.0144.8394.003-.0939.1104-1.7353-.4068-.5716-.068.3383.0985.6811.1711,1.0169.2807.5951.1943,1.0496.6842-.2338-.1416.3464.2229.8011.3823,1.1675.5747,2.2503,1.182,4.4265,2.5603,6.5282,3.9876.5144.3493,1.0243.7054,1.528,1.0699.2016.1459.4023.2931.602.4417.1633.1215,1.1704.8913.1979.1443-.9871-.7582.5093.4295.7507.6337.5603.4741,1.1083.9633,1.64,1.4694.7802.7425,1.5271,1.5213,2.2228,2.3438.3623.4283.8564,1.3965-.1925-.287.1199.1924.279.3768.4087.561.3617.5134.7006,1.0426,1.0125,1.5877.252.4405.4702.895.6981,1.3477.5848,1.1615-.5674-1.6347-.1782-.3981.0667.2119.1477.4191.2144.6312.1684.535.2755,1.0742.4082,1.6176.2634,1.0781-.1047-.8466-.0919-.82.1221.2557.0672.7262.0789,1.0187.0233.584-.0024,1.1623-.0408,1.7444-.0914,1.3862.2808-1.3876.0605-.478-.0749.3093-.1258.6241-.2056.9329-.1474.5705-.2821,1.3054-.5888,1.8056.035-.057.7572-1.5816.2342-.5866-.178.3386-.339.6856-.5237,1.021-.3104.5638-.6487,1.1129-1.0077,1.6469-.145.2157-.2934.4292-.4447.6405l-.2303.3165c-.4285.5697-.3121.42.3494-.449-.436.3491-.7786.9428-1.1502,1.3634-.4841.5478-.9827,1.0826-1.4906,1.6084-2.0487,2.1208-4.2356,4.1092-6.3779,6.1339-4.7767,4.5145-9.5534,9.029-14.33,13.5436-9.6138,9.0862-19.2276,18.1724-28.8415,27.2585-9.5534,9.029-19.1067,18.0581-28.6601,27.0871-2.3858,2.2548-4.7645,4.5175-7.158,6.7641-.9986.9373-2.02,1.8382-3.0722,2.7145-.7413.6174,1.3992-.9798.1821-.161-.2383.1603-.4713.3274-.7122.4838-.6933.4498-1.4144.8566-2.1578,1.2175-.2419.1174-.4985.2159-.7363.3395,1.5987-.8311.8101-.3442.3211-.1679-.5683.2049-1.1446.3866-1.7274.5457-.649.1771-1.3057.3256-1.9667.4504-.3323.0628-.6665.1113-.9998.1679-.5371.0798-.2674.0431.809-.1102-.2708.0311-.542.0586-.8135.0827-2.6998.24-5.4206.1438-8.1155-.1114-.6312-.0598-1.2615-.1285-1.8909-.2047-.1855-.0224-1.5977-.1926-.3489-.0405,1.2469.1519-.1589-.0273-.3453-.0549-1.3795-.2039-2.755-.4331-4.1295-.6682-1.8591-.3179-3.5858-.2959-5.2695.6894-1.4185.8301-2.7714,2.4566-3.1427,4.0869-.755,3.3149,1.0058,7.7674,4.7763,8.4122,6.1821,1.0572,12.5843,2.1699,18.8734,1.5295,3.723-.3791,7.072-1.1514,10.5011-2.6387,3.1317-1.3584,5.843-3.4402,8.3675-5.7183,4.9612-4.4772,9.7375-9.1757,14.5943-13.766,4.9581-4.686,9.9161-9.3719,14.8742-14.0579,10.0371-9.4862,20.0741-18.9724,30.1112-28.4586,4.9581-4.686,9.9161-9.3719,14.8742-14.0579,4.5857-4.3341,9.4903-8.4948,13.6731-13.2283,4.3789-4.9554,7.9816-11.1111,7.5357-17.9707-.4087-6.2867-3.4289-11.73-7.7999-16.1627-3.8518-3.9062-8.5584-7.0375-13.2861-9.782-3.3353-1.9362-7.0909-3.6276-11.0424-3.3127-4.2538.339-7.7371,2.4751-10.7826,5.3567-4.5265,4.2829-8.7466,8.9479-13.012,13.4884-4.2843,4.5607-8.4865,9.1826-12.5832,13.9126-8.2941,9.5766-16.3723,19.3481-24.2381,29.2795-15.7734,19.9157-31.1692,40.4612-43.8376,62.518-1.5275,2.6596-2.9714,5.306-4.2717,8.0838-.6988,1.4928-.5437,3.2285.853,4.2722,1.24.9266,3.2488,1.0057,4.3484-.2589h0Z" style="fill:#003033; stroke-width:0px;"/><path d="M689.4301,598.8202c-1.4072-4.4712-2.8442-8.9338-4.4181-13.3496-1.7744-4.9786-4.1382-9.8555-6.5594-14.5504-2.2441-4.3514-4.8487-8.5205-7.7794-12.4436-3.1348-4.1964-6.5116-8.3003-10.5106-11.7111-2.4013-2.0481-4.9751-3.9551-7.6682-5.605-1.1444-.7011-2.3174-1.3555-3.5167-1.9579-2.1226-1.0663-4.5258-2.2461-6.968-1.9712-2.8321.3188-5.1589,1.486-6.3282,4.2567-1.1385,2.6977-.4146,5.388,1.4318,7.5643,1.827,2.1534,4.8199,2.9871,7.2401,4.3059,2.0372,1.1102,3.9928,2.3672,5.8604,3.7432.4661.3434.9224.6989,1.3824,1.0503.8728.6668-.5995-.4704-.6195-.484.2862.194.5532.4359.8218.6534.9079.735,1.7938,1.497,2.6589,2.2818,1.7393,1.5777,3.3911,3.251,4.9651,4.9932.7921.8768,1.5639,1.7719,2.3173,2.6821.3401.4109.6762.825,1.0088,1.2419.185.2319.3677.4657.5518.6984.8215,1.0382-.9279-1.2352-.1303-.1648,1.4395,1.9321,2.8337,3.8951,4.2019,5.8784,2.7323,3.9605,5.1907,8.0813,7.5961,12.2451,2.5952,4.4924,5.3618,8.8862,7.9372,13.3936,1.9771,3.4603,7.7577,1.1668,6.5247-2.7507h0Z" style="fill:#003033; stroke-width:0px;"/><path d="M605.3988,527.3179c-1.0789-1.0727-2.1383-1.5168-3.6694-1.5284-.9933-.0075-1.9786.0406-2.9651.144-1.8748.1966-3.7626.2633-5.6467.2047-2.0567-.064-4.1339-.129-6.1819-.3365-.2951-.0299-.5898-.0628-.8842-.0988l.847.1155c-.1635.143-1.4912-.2403-1.7268-.2842-.9368-.1744-1.8611-.4003-2.7915-.6036-1.8452-.4033-3.6727-.8672-5.449-1.5158-.3445-.1258-.6833-.2878-1.0325-.3991,2.1245.6767.5337.2171-.002-.0485-.7128-.3534-1.4078-.7423-2.0772-1.1725-.355-.2281-.6868-.5099-1.0483-.724,1.6395.9713.8303.6531.3372.212-.6228-.5571-1.1206-1.2208-1.7165-1.7954,1.4317,1.3805.662.8776.3083.3115-.2497-.3997-.4171-.8695-.6772-1.2564.9158,1.3626.4469,1.1402.2072.335-.142-.477-.239-.9614-.3212-1.4516l.2585,1.9237c-.1492-1.1173-.1496-2.2191-.0216-3.3381l-.2587,1.925c.1252-.8747.3113-1.7321.5847-2.5727.0786-.2414.1632-.4808.2537-.718-.4725,1.0803-.5933,1.3637-.3623.8502.1966-.402.3832-.8059.6013-1.1973.1865-.3346.3844-.6631.593-.9844.1391-.2138.2831-.4243.432-.6315-.7573.955-.9023,1.1427-.435.5631.5313-.5946,1.0588-1.1831,1.6436-1.7272.3849-.3581.8795-.6693,1.2281-1.0577-1.1355,1.2654-.776.5898-.169.1677.7798-.5422,1.5915-1.0389,2.4217-1.4997.8362-.4641,1.6933-.8903,2.563-1.288.4901-.2241,1.7945-.628-.2296.0769.4507-.157.8896-.3617,1.3353-.5338,7.7587-2.9951,15.9283-4.788,24.1521-5.9104-.6476.087-1.2952.174-1.9428.2611,5.1308-.6815,10.2944-1.0717,15.4678-1.217,2.5516-.0717,5.1046-.0859,7.6569-.0507,1.2364.017,2.4727.0458,3.7086.085,1.9127.0607,3.6376-.0339,5.5422-.396,2.846-.541,5.211-3.8353,5.0837-6.6772-.1388-3.0992-2.0602-5.7783-5.0837-6.6772-2.8136-.8365-5.8686-.7474-8.787-.8109-2.3972-.0521-4.7954-.0611-7.1928-.0203-4.8641.0828-9.7267.3705-14.5605.9245-9.8267,1.1262-19.6781,3.0857-28.8673,6.8374-4.8824,1.9933-9.5978,4.3882-13.3143,8.235-3.896,4.0326-6.2364,9.1971-6.6191,14.7883-.3552,5.1891,1.924,10.766,5.7982,14.2379,3.6352,3.2577,8.1528,5.3216,12.8734,6.459,5.7161,1.3772,12.1318,1.6916,17.9037.3558,2.782-.6438,5.4455-1.642,8.0645-2.7665,1.2359-.5307,2.8381-1.4159,3.7555-2.4153,1.2279-1.3376,1.8598-3.8692.4121-5.3085h0Z" style="fill:#003033; stroke-width:0px;"/><path d="M710.9028,542.9563c-3.2642-2.456-6.6186-4.8283-9.7726-7.4242-3.0879-2.5415-6.1758-5.0829-9.2637-7.6244l-9.2637-7.6244c-1.5109-1.2436-2.9987-2.5153-4.4937-3.778-.7441-.6284-1.5274-1.2314-2.2338-1.9021-.4109-.3902-.7894-.8219-1.182-1.2306l-.5066-.5274c1.2429,1.4935,1.6084,3.0721,1.0963,4.7358-.563.966-1.1259,1.9319-1.6889,2.8979l.1081-.0862c-.9549.5565-1.9098,1.113-2.8647,1.6695-.3196.0667-2.6641.3833-.5464.0987.6339-.0852.5948-.0433.9212-.1388,1.4935-.4368,2.8896-1.4798,3.6793-2.8293,1.4844-2.5365.9343-5.7956-1.0726-7.8739-1.6648-1.724-4.3073-2.4249-6.6145-1.8164-2.7464.7243-4.6711,3.1585-5.0398,5.9025-.3964,2.9502,1.1453,5.6151,3.5826,7.1899,1.1311.7309,2.4883,1.0795,3.7144,1.6281.6223.2784-.2568-.123-.3132-.1044.0839-.0278.5689.304.6555.3503l1.3111.7006c1.0197.5449,2.0395,1.0898,3.0592,1.6347,7.4254,3.9677,14.7638,8.1056,22.1386,12.1665,4.2664,2.3493,8.3897,4.9433,12.5491,7.4765.9325.5679,2.2218.2047,2.7657-.7252.6051-1.0346.1499-2.1073-.7252-2.7657h0Z" style="fill:#003033; stroke-width:0px;"/><path d="M736.302,528.1836c-9.3824-11.8291-20.573-22.3519-32.7491-31.2702-1.5004-1.099-3.014-2.1799-4.5401-3.2429-2.2631-1.5763-5.5327-3.1258-8.3691-2.3447-1.9961.5497-3.5944,2.1366-4.133,4.133-.6554,2.4295.3328,4.5448,1.9509,6.286,1.6231,1.7466,3.5972,2.8345,5.612,4.0472,6.2032,3.7336,12.255,7.6908,18.2555,11.7385,7.0103,4.7289,13.3091,9.5038,19.8368,14.7892,2.9511,2.3895,6.4793-1.1818,4.1361-4.1361h0Z" style="fill:#003033; stroke-width:0px;"/><path d="M695.956,494.3179c.0447.3322-.1026.9316-.0998.9262.1256-.2028.0605-.1167-.1955.2581.1019-.1005.2108-.1927.3268-.2767l-1.5059.8776c.6676-.2613,1.2087-.4541,1.7293-.9747.1867-.1867.3991-.2619-.1738.0882.3744-.2288.7475-.4422,1.1318-.6551.1674-.0927.6596-.2705-.144.0443.1682-.0659.3355-.133.5048-.1957.4821-.1785.9721-.3346,1.4649-.4804,1.8072-.5345,3.645-.9788,5.4989-1.317.584-.1065,1.1697-.1978,1.7563-.2882.8828-.1359-.0729-.0094-.1999.0261.2672-.0747.5868-.0697.8637-.099,1.2113-.1283,2.4303-.2127,3.6468-.2722,2.2145-.1083,4.4218-.0449,6.6314.1209,1.1016.0826,2.2035.1347,3.303.2493.5358.0559,2.0829.4747.3713.0299.6009.1562,1.265.1953,1.8768.308,2.2093.407,4.3903.9679,6.5205,1.6816.9773.3274,1.9306.7955,2.9157,1.0854-1.8413-.5418-.0334-.0074.4473.2173.5723.2675,1.1465.5323,1.7139.8102,2.0186.9887,3.9644,2.1274,5.8101,3.4105.4692.3262.9151.7333,1.4069,1.0194-1.4551-.8464-.5319-.4151-.1455-.1031.2715.2192.5404.4417.8066.6675.9818.8328,1.9263,1.7099,2.8291,2.6277.8724.8869,1.7056,1.8121,2.4973,2.7717.1844.2236.3537.4999.5636.6973-1.1243-1.0571-.4178-.5475-.0918-.1054.4314.5852.8451,1.1826,1.249,1.7871,1.7253,2.5825,4.7904,3.7745,7.7316,2.5333,2.743-1.1576,4.5032-4.3353,3.5849-7.3042-.0919-.2971-.1209-.7522-.2582-1.0219l.1401.9593c-.0153-.2296-.0193-.4594-.0121-.6893-.0738-1.2342-.3989,1.4715-.0514.2793.0972-.3335.1899-.6717.2853-1.0059.3432-1.2017-.7362,1.2495-.0557.1924.1608-.2498.2942-.5172.4579-.7663.547-.8324.366.0477-.2193.2502.2695-.0933.7924-.8153,1.0073-1.0356.8897-.9118-1.2196.729-.1227.0876.306-.1789.624-.3617.9237-.5503,1.0442-.6572-1.3311.3767.0072-.0179.3379-.0996.6679-.2197,1.0089-.3108.3407-.0909.6866-.1517,1.0287-.2345,1.4126-.342-1.4393.0407.0179.0027,1.0046-.0261,1.9899-.0685,2.9953.0062l.43.0362c.6999.0772.5736.0539-.3789-.0698.2553-.0735.7956.1267,1.0659.1763.7736.1419,1.5403.3133,2.3002.5162,1.6966.4529,3.3639,1.0203,4.9946,1.6704,1.1038.44.168-.2346-.1699-.0801.1323-.0605,1.0038.4483,1.1486.5155.7627.3536,1.5167.726,2.2618,1.1151,1.4967.7817,2.9573,1.6318,4.3826,2.5369,1.4338.9105,2.8317,1.877,4.1965,2.8879.2281.1689.4543.3404.6815.5106,1.2125.9083-1.1851-.9553-.0099-.0056.7704.6226,1.5425,1.2418,2.2988,1.8817,2.5541,2.161,4.9735,4.4668,7.3512,6.8187,2.2432,2.2189,4.4029,4.522,6.4775,6.8992,1.0822,1.24,2.1415,2.5001,3.1772,3.7792.4317.5331.8595,1.0693,1.2832,1.6088.2865.3648,1.0743,1.5777-.095-.1284.3084.45.6655.8737.9924,1.3108,3.8655,5.1686,7.3729,10.6024,10.535,16.2281,3.2551,5.7912,6.0473,11.738,8.7915,17.7803-.9949-2.1905.0399.11.2277.57.3128.7663.6204,1.5347.9226,2.3052.6043,1.5405,1.1874,3.0893,1.7498,4.6455,1.1432,3.1639,2.1977,6.359,3.1734,9.5784,2.1464,7.0823,3.9669,14.2507,6.4447,21.2304,2.653,7.4734,5.8575,14.7678,10.5862,21.1764,2.3396,3.1708,4.8568,6.2027,7.8073,8.8257,1.5374,1.3668,3.2313,2.564,4.9903,3.6295,1.4313.867,2.7497,1.5137,4.4606,1.7034.7722.0856,1.5462.1373,2.3224.1671,3.1548.1213,5.3072-3.6863,3.6395-6.3423-.3675-.5852-.6986-1.1889-1.0517-1.7821-.6063-1.0187-1.3334-1.6691-2.1798-2.4374-1.2443-1.1295-2.3787-2.3667-3.5523-3.5672-1.0949-1.12-2.1066-2.3065-3.0957-3.5197-.8864-1.0872.8439,1.1672.0301.0322-.2277-.3175-.4626-.6298-.6886-.9486-.5291-.7467-1.0384-1.5073-1.529-2.2798-1.6948-2.6687-3.1652-5.4772-4.4494-8.3648-.3209-.7216-.6162-1.4555-.944-2.1738.8937,1.9581.2226.5205.06.1177-.1761-.4363-.3486-.8741-.5179-1.3131-.7336-1.902-1.4046-3.8278-2.0315-5.7675-2.3699-7.3331-4.2041-14.8329-6.427-22.2111-2.1077-6.9957-4.6412-13.8288-7.4956-20.5527-5.4849-12.9203-12.5389-24.8874-21.1705-35.9531-8.5457-10.9556-18.915-21.2029-31.0618-28.109-3.763-2.1395-7.7878-3.9396-11.9202-5.2331-3.9929-1.2498-8.3854-2.2148-12.585-1.9576-4.8926.2996-9.8177,1.9822-13.0931,5.7987-3.2642,3.8034-4.9944,8.9552-3.43,13.8915,3.7722-1.5903,7.5443-3.1806,11.3165-4.7709-6.6055-9.7413-16.3031-17.0274-27.6892-20.1866-5.2476-1.456-11.0253-2.3157-16.4725-1.8342-5.9661.5274-11.5349,1.97-17.0171,4.3652-2.0764.9072-4.133,1.8867-5.9324,3.2781-1.2424.9608-2.3648,2.0775-2.6739,3.6804-.3412,1.7693.043,3.2965,1.2541,4.6464.7954.8865,2.2877,1.0062,3.2836.4237,1.1296-.6607,1.4079-1.8504,1.2452-3.06h0Z" style="fill:#003033; stroke-width:0px;"/><path d="M603.9337,528.477c-1.8083,1.7171-3.8537,3.1492-5.6181,4.9133-1.7537,1.7533-3.5525,3.4737-5.2495,5.2819-3.3413,3.5603-6.6837,7.1377-9.9072,10.8045-6.3706,7.247-12.7786,14.4514-19.2222,21.626-1.3143,1.4634-1.7761,3.4011-.9944,5.2535.6818,1.6157,2.5175,3.1422,4.395,2.9563,4.1647-.4123,8.0711-1.4926,11.9775-2.9583,3.5953-1.349,7.1419-2.9058,10.868-3.87.7625-.1973,1.5321-.3679,2.3074-.5072.048-.0086,1.0781-.1955,1.0838-.1752-.6643.0878-.7239.0998-.1787.0359.182-.0193.3642-.0362.5466-.0507.7863-.0659,1.5758-.0993,2.3649-.0912.3609.0037.7218.0151,1.0821.0353.1362.0076,1.5691.085.7903.0466-.7586-.0374.608.1077.7635.1392.3431.0695.6844.1486,1.0227.2388.3355.0894.6685.1891.9976.3001.2182.0735.4346.1519.6492.2353-.5527-.2422-.6679-.2901-.3459-.1437.6686.345,1.2981.706,1.9414,1.0937.8754.5276-.5524-.5566.1343.0986.3408.3251.6869.6356,1.0118.9778,1.7932,1.8886,4.9064,1.745,6.7223,0,2.195-2.1093,4.4711-4.1312,6.8368-6.0473.2365-.1915.4738-.3821.712-.5715.0177-.0141,1.1564-.9066.4797-.3836.5419-.4188,1.0909-.8287,1.6422-1.2351,1.4865-1.0957,3.0271-2.0945,4.3499-3.3917,1.6108-1.5796,1.703-4.1823.3531-5.9296-1.4728-1.9062-3.7294-2.087-5.8257-1.1631-2.9958,1.3203-5.7033,3.793-8.2385,5.8264-2.4347,1.9528-4.7759,4.0168-7.0318,6.1733h6.7223c-5.5683-5.8954-14.1215-6.6068-21.6639-5.129-3.7887.7423-7.3831,2.2303-10.9737,3.6068-1.9417.7443-3.8912,1.4757-5.8839,2.0736-.9885.2966-1.9865.563-2.9956.7803-.4322.0931-.8687.1636-1.3016.2524-.5702.0874-.5823.0946-.0363.0217-.2941.036-.5887.067-.8839.0929l3.4006,8.2099c1.7746-1.9655,3.5118-3.9316,5.1252-6.0297-.2612.315-.2122.2562.1471-.1764.2041-.2458.4079-.4917.6116-.7378.4074-.4923.8139-.9852,1.2199-1.4786.7105-.8635,1.4192-1.7285,2.1273-2.5939,3.143-3.8413,6.2826-7.6853,9.4238-11.528,3.0416-3.7209,6.1528-7.8277,9.2471-11.8156,1.6017-2.0642,3.0764-4.2321,4.5969-6.3565,1.4321-2.0009,2.4926-4.2245,3.8716-6.2608,1.3219-1.9519-1.557-3.9859-3.1748-2.4496h0Z" style="fill:#003033; stroke-width:0px;"/><path d="M584.2502,554.7054c-12.2621,12.1026-30.7577,36.1975-43.0198,48.3001-3.8358,3.7859-7.6876,7.5901-10.9143,11.9069-7.5828,10.1447-11.3697,22.6973-12.9979,35.2577,10.1316-3.1477,20.2633-6.2954,30.3949-9.4431,2.9512-.9169,5.9455-1.8537,8.5323-3.5443,1.8024-1.1779,3.3572-2.6904,4.8995-4.1929,4.9476-4.8196,9.8952-9.6393,14.8428-14.4589-9.2247-4.5584-15.9013-13.9252-17.2014-24.1323" style="fill:#003033; stroke-width:0px;"/><path d="M582.3342,552.7894c-10.9452,9.4938-20.6272,20.3838-30.248,31.1824-4.5595,5.1177-9.1528,10.2346-14.0903,14.9939-6.6112,6.3725-12.9049,12.9985-17.2046,21.2021-4.6601,8.8912-7.3465,18.6508-8.6911,28.5638-.2694,1.9866-.1116,3.7616,1.3916,5.2648,1.3346,1.3346,3.4331,1.9526,5.2648,1.3916,8.8751-2.7181,17.7503-5.4362,26.6254-8.1543,4.3576-1.3346,8.9515-2.4765,12.9265-4.7752,3.9459-2.2819,7.0722-5.8271,10.2799-9.0015,3.7397-3.7009,7.4446-7.4414,11.2411-11.084,2.4207-2.3225,1.997-6.9492-1.0996-8.5335-1.1033-.5645-2.1745-1.184-3.2041-1.8744-.5107-.3424-.9889-.7572-1.5096-1.0812.2681.1668.7688.6188.2359.1657-.2829-.2405-.569-.4757-.8475-.7215-.882-.7781-1.7199-1.6059-2.5108-2.4764-.4174-.4595-.8013-.9448-1.21-1.4112-.4783-.5458.7956,1.0989.0678.0938-.1816-.2508-.3658-.4993-.5436-.7528-.6757-.9633-1.3002-1.9628-1.8671-2.9939-.2984-.5428-.5818-1.094-.8488-1.653-.1335-.2795-.2545-.565-.3877-.8445-.315-.6607.4974,1.3111.063.1397-.4311-1.1623-.8396-2.3237-1.1522-3.5248-.1403-.5391-.2643-1.0825-.3742-1.6285-.0838-.4169-.4012-2.6807-.1778-.8777-.1961-1.5826-.576-2.8305-1.6628-4.0144-1.2112-1.3194-3.0563-1.7916-4.769-1.5614-1.5407.207-2.7526.9049-3.7037,2.1359-1.1951,1.5468-1.2857,3.075-1.0162,4.9492,1.6558,11.5134,9.517,22.1829,19.9335,27.3146l-1.0996-8.5335c-3.2154,3.1801-6.5096,6.2819-9.7738,9.4118-1.6027,1.5368-3.2053,3.0736-4.8081,4.6103-.6894.661-1.3763,1.3249-2.0829,1.9676-.3187.2899-.6392.578-.9648.86-.2167.1877-.4421.3655-.6588.5529-.5874.508.7666-.4977.1047-.0909-.8114.4986-1.5837,1.0325-2.4379,1.4633-.1964.099-.3948.1938-.594.2871-.221.1035-.8494.6018-.3439.1626.404-.3509.0891-.0379-.1539.0517-.2767.102-.5517.2087-.8291.309-2.0448.7394-4.1358,1.3545-6.2091,2.0078-4.2695,1.3453-8.539,2.6907-12.8084,4.036-4.902,1.5447-9.804,3.0893-14.706,4.634l6.8497,5.2179c.0371-.2907.0254-1.0226-.0262.1671.0091-.2093.0596-.428.0894-.6355.0709-.4945.145-.9885.2228-1.4819.1781-1.1292.3745-2.2555.591-3.378.4061-2.105.8807-4.1969,1.4343-6.2681.5337-1.9967,1.1404-3.9741,1.8284-5.9231.3311-.9381.681-1.8694,1.0507-2.7929.1055-.2635.2145-.5256.3213-.7886.23-.5665-.1085.242-.1208.2896.15-.5796.5342-1.2065.7867-1.746.8708-1.8604,1.8299-3.6798,2.8834-5.4433.5088-.8517,1.0394-1.6905,1.5922-2.5143.3164-.4715.6401-.9383.9709-1.3998.1743-.2431,1.134-1.5232.5195-.7282,2.782-3.5995,6.0206-6.8042,9.1948-10.0506,10.0431-10.2719,18.8336-21.6683,27.7385-32.9136,1.4524-1.8341,2.8871-3.6772,4.3069-5.5365.2932-.3839.5869-.7675.8812-1.1505.1094-.1424.219-.2846.3284-.4269.2204-.2865-.1769.2267.1986-.2573.6151-.7928,1.2322-1.5841,1.8535-2.3721,2.1972-2.7867,4.4377-5.5416,6.7912-8.1984,2.3241-2.6236-1.1966-6.1179-3.832-3.832h0Z" style="fill:#003033; stroke-width:0px;"/><path d="M682.4175,499.3684c-20.9761,25.3163-42.7969,49.9327-65.4139,73.7944-.3621.382-.752.7807-1.2614.9135-.6232.1625-1.2685-.1094-1.855-.3754-2.4142-1.0949-4.8284-2.1897-7.2425-3.2846-.4672-.2119-.9782-.4692-1.1561-.9503-.2312-.6256.2107-1.2818.6301-1.8003,13.4208-16.5924,29.7337-30.5707,45.9468-44.4474,4.1017-3.5106,8.2034-7.0212,12.3051-10.5318" style="fill:#003033; stroke-width:0px;"/><path d="M680.6231,497.574c-4.7269,5.372-9.7646,10.4313-14.8063,15.5076-5.0485,5.0831-10.082,10.1414-14.9647,15.3841-9.6593,10.3713-19.2228,20.8332-28.9773,31.116-2.7722,2.9224-5.5563,5.8334-8.3524,8.733-.2083.216-.4847.4528-.6713.6957-1.0138.9423-.1755.6837,2.5151-.7756,1.9554.6509,2.4637.7598,1.525.3267-.8327-.5103-1.7773-.903-2.6492-1.346-.8829-.4486-1.7622-.9055-2.6492-1.346-.4454-.2212-.8951-.427-1.3467-.6352-.2467-.1095-.4914-.2232-.7342-.341-1.2613-.7517-.6163.0932,1.9349,2.5348v3.3203c-.1634.9392-.5714.941-.1822.3969-.8518,1.1906-.3682.4848-.1489.231.4476-.5182.8737-1.057,1.3145-1.5812.8327-.9904,1.6758-1.9721,2.5287-2.9452,1.7553-2.0029,3.5547-3.968,5.3501-5.9348,3.5428-3.8809,7.2192-7.6384,10.9808-11.3071,7.4283-7.2448,15.2158-14.0902,23.0411-20.8996,2.3016-2.0028,4.6078-4.0003,6.9056-6.0075,1.2312-1.0754,2.4602-2.1533,3.6903-3.23.6013-.5263,1.3047-1.0284,1.845-1.6152.7685-.8347,1.183-1.7919,1.6467-2.8032.8086-1.7634.8772-3.5969-.3665-5.2067-1.1355-1.4697-3.1014-2.1906-4.9277-1.68-1.0244.2864-2.0762.5429-3.0238,1.0436-.9252.4888-1.8057,1.4392-2.6213,2.1218-1.3813,1.1561-2.7638,2.3109-4.144,3.4683-2.5746,2.1589-5.1412,4.3274-7.7099,6.4934-4.7876,4.0369-9.5393,8.1131-14.2707,12.2155-9.5492,8.2796-18.8809,16.8859-27.0381,26.5633-1.2243,1.4524-2.4718,2.9064-3.5933,4.4401-2.1104,2.8861-2.0152,7.0062.4947,9.6321,1.5091,1.5789,3.6139,2.2847,5.585,3.0881,1.6774.6836,3.3606,1.3549,5.0437,2.0242,2.3224.9235,5.0006,1.0733,7.2262-.2448,1.7291-1.0241,3.0377-2.721,4.3865-4.1773,2.2458-2.4247,4.4834-4.857,6.7128-7.2968,9.031-9.8828,17.9919-19.8341,26.553-30.1279,2.5851-3.1082,5.2617-6.1734,7.683-9.4112,2.1956-2.9361,4.3684-5.8896,6.5357-8.8466,4.4061-6.0116,8.6824-12.1133,13.268-17.9889.8423-1.0793,1.0526-2.5361,0-3.5887-.9228-.9228-2.6796-1.0331-3.5887,0h0Z" style="fill:#003033; stroke-width:0px;"/><path d="M884.5562,624.6354c-2.2539.3442-4.4881.9709-6.6857,1.5712-2.5585.6989-4.7502,1.8283-7.0134,3.1771-3.994,2.3803-7.8594,4.8806-11.6923,7.5132-8.1055,5.5674-15.9827,11.4424-23.4975,17.7902-14.2431,12.0315-26.4522,26.2291-35.7576,42.4208-2.4842,4.3225-4.7533,8.7686-6.795,13.3169-1.2329,2.7466-2.4043,5.5244-3.506,8.3263-.47,1.1953-.8718,2.4007-1.247,3.6287-.4886,1.5993-1.1235,3.5768-.9109,5.2312.1607,1.2506.3108,2.4452.9628,3.5593.776,1.326,1.9735,2.2951,3.3723,2.8854,2.5828,1.09,5.6885.5609,7.7036-1.4582,1.7471-1.7505,2.4774-3.9846,3.4118-6.2094-.2533.6003-.5067,1.2006-.76,1.8009,1.2556-2.9658,2.431-5.9617,3.678-8.9307l-.7714,1.8279c3.111-7.3482,6.7874-14.4498,11.0169-21.2171,2.0761-3.3217,4.2821-6.5622,6.612-9.7111.2965-.4007.5949-.8001.8954-1.1979.1836-.243,1.2667-1.6538.4425-.5859-.7839,1.0157.1407-.1741.3247-.4071.3532-.4472.709-.8923,1.0673-1.3353,1.2541-1.5507,2.5394-3.0761,3.8552-4.5749,11.0187-12.5515,23.8898-23.1248,36.9853-33.4118.9403-.7386,1.8829-1.4744,2.8272-2.2079.472-.3667.9467-.7301,1.4174-1.0984.0034-.0026-1.0639.8202-.4713.3645.2387-.1836.477-.3677.7156-.5515,2.2235-1.7119,4.3694-3.4922,6.5058-5.3107,1.7358-1.4775,3.4482-2.8744,4.954-4.5851.7015-.7969,1.4166-1.5684,2.2352-2.2465.0641-.0531.7433-.5617.3973-.3206-.25.1742.396-.2335.461-.2714.1851-.1078.3761-.2077.5664-.3062-.0132.0068.9475-.461.6666-.3431,1.8406-.7724,3.1614-2.4467,2.5834-4.55-.5804-2.1121-2.5676-2.8862-4.55-2.5834h0Z" style="fill:#003033; stroke-width:0px;"/><path d="M917.9123,648.4111c-2.1685,1.1943-4.305,2.3136-6.5767,3.2988-2.1264.9221-4.2421,1.87-6.3339,2.8684-2.1992,1.0497-4.371,2.1593-6.4979,3.349-2.339,1.3083-4.4551,2.917-6.5681,4.5596-3.8501,2.9929-7.1957,6.3287-10.2023,10.1665-3.3561,4.284-6.4131,8.7683-9.6538,13.1348-.179.2411-.3603.4805-.5403.7209-.3327.4443-.2693.8037.2336-.2982-.2243.4916-.7821.985-1.1279,1.4044-.7662.9295-1.5565,1.8391-2.3647,2.7322-1.7191,1.8996-3.5302,3.7133-5.2861,5.5783-3.4153,3.6276-6.9595,7.1389-10.2233,10.9064-6.4492,7.4444-12.0948,15.6839-16.9228,24.2626-2.8166,5.0047-5.4206,10.0841-7.5205,15.4332-.4717,1.2016-.933,2.4073-1.385,3.6164-.0435.1163-.3118.9657-.1442.4491.2552-.7865-.4253,1.0475-.5536,1.3613-.2726.6669-.5408,1.3356-.8073,2.0048-1.1337,2.8468-1.8917,5.6965-1.1719,8.7434.4099,1.735,2.6093,2.5948,4.1068,1.6707,2.2657-1.3981,3.8256-3.5317,4.9685-5.9098,1.0335-2.1504,2.1106-4.26,3.2789-6.3403,2.2988-4.093,4.5278-8.2288,6.8727-12.2956,2.3421-4.062,4.8695-8.0182,7.5938-11.8349.67-.9386,1.3518-1.8687,2.0461-2.7895.1407-.1866.352-.5658.5232-.6888-.1057.0759-.8059.995-.112.1521.4097-.4977.8175-.9967,1.2322-1.4903,1.524-1.8135,3.1024-3.5812,4.7367-5.2961,6.7463-7.079,14.5764-13.0224,20.7161-20.6819,3.3786-4.2149,6.3366-8.6664,9.2074-13.2332,1.2732-2.0254,2.5723-4.0365,3.9664-5.9813.0867-.121,1.1026-1.3518,1.0603-1.4417.0109.0231-.9189,1.1827-.1369.1857.4153-.5294.8214-1.0647,1.2203-1.6063.2071-.2812.5105-.9125-.1632.2065.1387-.2304.3748-.4721.5391-.675.4066-.5019.8219-.9968,1.2442-1.4855,3.372-3.9027,7.2055-7.5293,11.0259-10.9904,1.8842-1.707,3.8187-3.3579,5.7803-4.975,2.0578-1.6964,4.1585-3.1372,6.4144-4.5577,2.6666-1.6791.3006-5.7622-2.4747-4.2337h0Z" style="fill:#003033; stroke-width:0px;"/><path d="M941.6862,688.8059c-7.4332,1.7856-14.4451,4.8872-20.6721,9.3284-3.2139,2.2922-6.3664,4.7951-9.0674,7.6841-2.7353,2.9257-5.2324,6.115-7.4286,9.4639-2.2943,3.4985-4.0322,7.27-5.975,10.9638-.9853,1.8733-2.0646,3.7067-3.238,5.4686-.5465.8207-1.1173,1.6249-1.7073,2.4148-.1078.1444-.3172.3392-.3818.5061.0523-.1352.8263-1.0406.1485-.2004-.3545.4394-.7074.8798-1.0686,1.3138-2.6384,3.1708-5.5636,6.0629-8.3384,9.1084-2.9754,3.2656-5.8333,6.6819-8.4194,10.2643-2.8718,3.9781-5.2009,8.2904-6.9216,12.8886-1.7616,4.7072-2.7189,9.9191-.9339,14.7457.5878,1.5895,1.986,2.9869,3.8155,2.905,1.652-.074,3.4735-1.1622,3.8155-2.905.7289-3.7138,1.314-7.5573,2.6804-11.1017.0739-.1916.1513-.3817.2262-.5728-.0659.168-.4227.937-.0259.0762.1725-.3742.3438-.7486.5244-1.119.455-.9332.9687-1.8359,1.5078-2.7229.4717-.776.9667-1.5378,1.4817-2.2858.2787-.4047.5636-.8051.8535-1.202.1659-.2271.3381-.4497.5028-.6776.4567-.6321-.5641.6976-.076.096,5.0331-6.203,11.0734-11.4757,16.3248-17.4903,2.8577-3.273,5.6904-6.7552,7.8013-10.5693,2.019-3.6482,3.3933-7.613,5.2898-11.3229.8382-1.6397,1.7515-3.241,2.735-4.7979.9068-1.4355,1.8417-3.1522,3.0322-4.3711-.0125.0128-.6222.789-.2498.3224.1589-.199.3153-.4001.4748-.5987.2391-.2978.4809-.5934.7254-.8869.6112-.7336,1.2431-1.4493,1.8627-2.1756,1.1547-1.3537,2.3696-2.6571,3.6346-3.9083,1.4385-1.4228,2.9448-2.7772,4.5129-4.0558.2013-.1642,1.2833-1.0151.5947-.4862.4049-.311.8142-.6165,1.2268-.9172.824-.6005,1.6649-1.178,2.4971-1.767,3.303-2.3376,6.8269-4.3429,10.522-5.9915,1.3311-.5939,1.7513-2.484,1.2142-3.7059-.6025-1.3707-2.0285-2.072-3.501-1.7183h0Z" style="fill:#003033; stroke-width:0px;"/><path d="M945.9266,737.5247c-5.0973,5.0729-9.9629,10.4242-14.4794,16.0213-1.234,1.5293-2.4402,3.0814-3.6302,4.6451-1.0004,1.3146-2.1496,2.6323-2.9155,4.1016-1.3241,2.54-1.2985,5.5882.6999,7.7793,1.7682,1.9388,4.7893,2.522,7.0564,1.0594,1.487-.9593,2.4738-2.8819,1.8975-4.6628-.5246-1.621-2.1416-3.2024-3.9814-3.0313.5792-.0539,1.6057.5118,1.9329.9747.2036.288.336.6302.4029.9756.0432.2231.1434.9066-.1504,1.048.1181-.0568.2992-.5683.3709-.6938.7095-1.2424,1.4947-2.4479,2.264-3.6539,1.523-2.3873,3.1053-4.7368,4.7454-7.0452,3.2096-4.5173,6.6947-8.7845,10.4096-12.8954,2.8078-3.1071-1.6191-7.6119-4.6227-4.6227h0Z" style="fill:#003033; stroke-width:0px;"/><path d="M975,773.6271c1.9798,0,3.8764-1.7409,3.7848-3.7848-.0918-2.0506-1.663-3.7848-3.7848-3.7848-1.9798,0-3.8764,1.7409-3.7848,3.7848.0918,2.0506,1.663,3.7848,3.7848,3.7848h0Z" style="fill:#003033; stroke-width:0px;"/><path d="M670.1083,458.3732c-.9764,5.2809.5421,10.5329,3.9688,14.6357,1.5126,1.8111,3.471,3.3866,5.5738,4.4577,1.1667.5943,2.3663,1.1013,3.6613,1.3094,1.6713.2685,3.0846.2534,4.7386-.1514,3.1006-.7588,2.9585-5.3034,0-6.138-.9244-.2608-1.851-.578-2.7588-.8919-.2113-.0731-.4197-.1686-.6324-.2364,1.2773.4072-.1686-.0807-.6271-.2516-.1211-.0451-1.0121-.4182-.3812-.1282.614.2822-.1402-.0711-.2617-.1301-.4388-.2129-.8671-.4474-1.2824-.7032-.3361-.207-.755-.6597-1.1195-.7595.4603.361.5355.4178.2256.1705-.088-.0714-.175-.1441-.261-.218-.1727-.1471-.3421-.2978-.5083-.4521-.3601-.3343-.7053-.6849-1.0328-1.0512-.1513-.1692-.2958-.3431-.4427-.5161-.4947-.5826.4511.5984.0227.0333-.6795-.8765-.7716-.9972-.2762-.3623l-.134-.1838c-.1475-.2199-.303-.4338-.4466-.6565-.2648-.4108-.5112-.8337-.7352-1.2682-.103-.1997-.1977-.4023-.2952-.6046-.3207-.6653.2327.6561.0023.0085-.0826-.2323-.9051-2.7726-.7624-2.8045.0592.4777.0738.5872.0437.3283-.0134-.1119-.0249-.224-.0344-.3363-.0196-.2244-.0332-.4495-.041-.6746-.0183-.5275.0026-1.0532.0478-1.5788.1355-1.5732-1.3156-2.9318-2.7597-3.1259-1.4485-.1946-3.2034.7188-3.4921,2.2798h0Z" style="fill:#7e96fc; stroke-width:0px;"/><path d="M660.2401,479.8237c-1.4679,2.5179-1.261,5.534-.0437,8.0996.6306,1.3292,1.6315,2.3554,2.8402,3.1754.5864.3978,1.2511.6927,1.917.9279.9967.352,1.9195.0876,2.796-.434.9217-.5485,1.1145-1.8702.3395-2.6344-.1433-.1413-.6629-.7777-.1562-.1259-.4671-.6009-.9389-.9286-1.656-1.1776-.4026-.1398.4802.2352.1282.0509-.1177-.0617-.2373-.1188-.3532-.1841-.2158-.1217-.4093-.2808-.623-.4028.5327.3041.2805.2231.1122.0801-.0873-.0742-.1727-.1507-.2562-.2293-.1961-.1847-.3794-.3815-.5538-.5866-.1494-.1757-.3008-.3498-.4539-.5224-.2834-.3194.3075.434.077.1036-.0779-.1116-.1574-.2216-.2318-.3356-.1373-.2104-.2642-.4275-.3795-.6507-.0529-.1024-.1003-.2074-.1515-.3107-.1907-.385.1834.505.0408.0953-.166-.4771-.252-.9564-.3839-1.4397.149.546.0367.2885.0213.0924-.009-.1139-.015-.2281-.0177-.3423-.0059-.246.0699-.5543.0338-.7925.0306.2018-.0691.4187-.0008.0666.0218-.1126.0471-.2247.0759-.3357.0676-.2607.1564-.5135.2595-.7621.3517-.8482-.3131-1.862-1.0708-2.1818-.8377-.3535-1.8422-.0447-2.3094.7567h0Z" style="fill:#7e96fc; stroke-width:0px;"/><path d="M658.3444,511.4072c3.8744,0,3.8809-6.0213,0-6.0213-3.8744,0-3.8809,6.0213,0,6.0213h0Z" style="fill:#7e96fc; stroke-width:0px;"/><path d="M530.0216,616.7699c-1.1114,5.4735.3288,11.1976,3.6918,15.6382,3.4154,4.51,9.3575,8.9912,15.3316,7.7077,1.2352-.2654,2.2666-1.6453,2.2103-2.9031-.0619-1.3818-.9035-2.4627-2.2103-2.9031-1.1087-.3736-2.222-.6448-3.3574-.9342-.5191-.1323-1.0318-.2917-1.5344-.477-.1134-.0418-.9003-.407-.2071-.0716-.2429-.1175-.4894-.225-.7306-.3462-.4814-.2419-.9511-.5077-1.4075-.7938-.2282-.1431-.4532-.2915-.6747-.4448-.1477-.1022-.2937-.2067-.4383-.3133.2394.1908.272.2167.0977.0779-.8765-.7193-1.7027-1.4862-2.4481-2.3424-.1778-.2042-.3503-.4125-.5202-.6233.3679.4564-.1666-.2356-.1905-.2694-.3141-.4427-.6086-.8997-.8826-1.3684-.2951-.5049-.5657-1.0238-.8104-1.555-.0569-.1218-.1119-.2444-.165-.3679.0902.211.0988.2252.0257.0427-.1118-.2944-.2204-.5895-.3181-.889-.1666-.5104-.3096-1.0291-.4253-1.5534-.0578-.2617-.1048-.5242-.1539-.7876-.1516-.8136.0143.4689-.0482-.362-.0884-1.1753-.0876-2.3269.0654-3.4978.1583-1.2118-1.0703-2.32-2.163-2.45-1.1536-.1373-2.4864.5524-2.737,1.7868h0Z" style="fill:#7e96fc; stroke-width:0px;"/><path d="M380.0787,799.2421c-3.4085,1.7033-7.0553,3.4531-10.846,3.062-4.6478-.4791-8.3122-4.0222-11.5603-7.3816-75.9625-78.5669-142.6082-167.5019-186.1244-267.7495-29.6697-68.3471-48.1564-142.2661-51.0814-216.5248-31.3781,10.0714-63.0278,19.2953-94.9089,27.6414-5.3086,109.1558,27.6571,218.1998,82.9864,312.4434,55.328,94.2443,132.245,174.461,217.1573,243.2582,3.6311,2.942,7.6972,6.0153,12.3689,5.9285,3.8103-.0704,7.2181-2.2491,10.3959-4.3523,82.938-54.8948,165.8759-109.7896,248.8133-164.6844l-14.4325-32.955c-67.5894,33.7711-135.1782,67.5422-202.7682,101.314Z" style="fill:#7e96fc; stroke-width:0px;"/><path d="M380.0787,799.2422c-10.6827,5.951-15.8643,2.9196-23.6607-5.345-27.4649-27.9332-55.0173-55.7641-80.9729-85.2102-19.9768-22.6754-39.0418-46.5398-56.1749-71.5528-6.9509-10.0004-13.0435-20.5434-19.0178-31.1444-20.9415-37.0197-39.5694-75.7987-53.8765-115.8862-20.5726-57.4989-33.1902-117.9748-35.6886-179.0703,0,0,12.7703,8.9336,12.7703,8.9336-31.5457,10.1252-63.3668,19.3992-95.4211,27.7905l7.2968-8.9924c-9.1315,218.4825,123.9022,406.4525,286.6759,539.5044,2.9376,2.3403,8.5549,7.1529,11.5402,9.4505,1.9956,1.4386,3.0879,2.241,4.3331,2.411,1.482-.1772,2.6982-1.1891,5.1458-2.7007,76.1637-50.6337,172.9737-114.1371,248.7695-164.8292,0-.0002-3.6159,12.266-3.6159,12.266-2.4968-5.4524-4.9356-10.9302-7.2124-16.479-2.2737-5.55-4.4197-11.1562-6.6295-16.7344l12.658,4.5823c-67.8888,30.5653-140.5546,59.3044-206.9191,93.0061h0ZM380.0787,799.2422c49.0732-24.1209,101.5278-54.4012,149.1589-81.8242,16.4171-9.4036,32.8974-18.6812,49.4581-27.7977,4.6899-2.6326,10.6873-.3872,12.6583,4.5824,2.6011,5.4067,5.2659,10.7856,7.8029,16.2204,2.5341,5.436,4.9061,10.9431,7.22,16.4756,2.0397,4.4655.4277,9.725-3.616,12.2666-8.6129,5.4722-17.0927,11.1455-25.6031,16.7725-15.9072,10.4862-60.0265,39.7609-76.5699,50.6799-27.9872,18.5276-113.7876,75.3117-140.3778,92.9133-8.7139,5.694-17.3239,13.0688-29.0811,9.0484-7.0573-2.4902-10.4919-6.2804-15.6455-10.3245-41.8675-34.1632-81.5453-71.0891-117.8938-111.1133C100.2626,680.5333,28.1732,545.8147,16.7396,400.2209c-1.488-20.7544-1.8156-41.5905-.9574-62.4067.1796-4.3555,3.2078-7.9207,7.2147-8.9736,31.7359-8.2991,63.241-17.4874,94.4785-27.511,6.0148-2.0151,12.537,2.5218,12.7691,8.8451,1.0159,23.6064,3.4521,47.1777,7.4516,70.5062,13.9718,81.7806,45.4468,160.1753,88.8667,230.729,6.1169,9.9228,12.1217,20.6753,18.2515,30.6434,23.1754,38.1391,48.3009,75.9487,76.4038,110.774,9.3088,11.528,19.3387,23.2624,29.3798,34.1613,4.1422,4.3163,7.8653,9.1574,12.625,12.8046,5.4012,4.1635,11.3255,2.4206,16.8558-.5512h0Z" style="fill:#7e96fc; stroke-width:0px;"/><path d="M375.7909,711.9121c5.2898,2.4378,12.5235,4.5436,17.0202-.5857,2.2869-2.6086,3.1187-6.238,4.046-9.496.9604-3.3739,1.7756-6.7813,2.4079-10.2319.6778-3.6988,1.1983-7.4324,1.576-11.1736.3449-3.4166.7638-6.9687-.8338-10.1582-1.9878-3.9685-6.6075-5.465-10.7388-4.2757-3.5585,1.0244-6.3913,3.5014-8.3704,6.5648-3.5391,5.478-3.8817,12.8293-1.7561,18.8803,2.2529,6.4132,6.5957,12.0107,11.404,16.7395,4.7845,4.7054,10.4378,8.646,16.8287,10.806,6.5369,2.2093,13.5691,1.7966,19.7267-1.3257,14.2746-7.2381,16.9214-24.6252,17.173-38.9814.042-2.3964-2.1365-4.6891-4.5796-4.5796-2.6474.1186-4.3714,2.0153-4.5796,4.5796-.439,5.4067,1.9334,10.4865,6.3153,13.6663,4.3557,3.1606,10.1716,3.0719,14.8394.6786,2.2645-1.1611,4.2287-3.0414,5.5633-5.2004.6019-.9738.999-2.0666,1.435-3.12.0254-.0614.4703-1.0177.1479-.3633-.2792.5668.0312-.0624.103-.2008.1205-.2322.2299-.4687.3619-.6953l.1579-.2615c.2226-.3236.2227-.3328,0-.0278l-.1667.222c.3433-.3315.2549-.2866-.2654.1349.2466-.1564.6693-.3031-.2952.0748.8568-.3357-1.317.0903-.2706.0828-.5282.0038-.3978-.2158-.0274.0281.2732.1799.5688.333.8472.5062.5453.3391,1.0806.6941,1.6523.9878,2.3429,1.2038,4.8449,1.5612,7.4355,1.2131,5.6996-.7659,10.3652-5.2105,10.2745-11.1564-.0259-1.6991-1.2878-3.1776-2.9834-3.3793-1.8057-.2148-3.138.8228-3.7752,2.4646.2654-.6839-.2336.3602-.3107.5088-.0938.181-.4481.5261.0749-.0543-.0985.1093-.1873.2275-.2924.3308-.2897.2844-.575.5521-.8849.8149-.1167.099-.2373.194-.3548.2922-.0655.0547-.8176.5898-.2702.2444.5355-.3379-.5856.3453-.7125.4204-.1887.1117-.7566.5755-.9493.5189.1403.0412.8187-.2763.2028-.0907-.1973.0595-.3885.1329-.5871.1899-.1971.0566-.4005.0935-.597.1503-.7122.2061.2618.0072.2719-.0104-.0738.1296-1.0742.0509-1.2178.0456-.0882-.0033-.5872-.0085-.6059-.0455-.0406-.0804,1.1613.2971.284.0012-.1994-.0673-1.1756-.4825-.6255-.1666.5811.3337-.0676-.0625-.196-.1342-.2855-.1596-.5619-.3341-.8389-.5079-2.4064-1.5094-4.8747-2.5682-7.7675-1.8857-2.3217.5477-4.167,2.4687-5.2061,4.5362-.1684.3351-.3148.6802-.4643,1.0239-.197.4529-.3862.9093-.5756,1.3654-.0608.1465-.3444.7966-.0848.2096.2483-.5614-.2082.447-.3062.6333-.105.1996-.2171.3965-.3364.588-.0746.1197-.6582.853-.2377.3723.3903-.4462-.4257.4273-.5533.5496-.1613.1546-.3457.293-.5037.4509.6073-.6073.3344-.2313.0959-.0872-.3886.2347-.7707.4694-1.167.6915-.0839.047-.6046.3198-.0816.0586.5851-.2922-.2785.0949-.4154.1391-.4328.1399-.8696.2402-1.3136.3358-.1496.0322-.6469.0245-.0734.0177.6509-.0077-.081-.0156-.2454-.0097-.0483.0017-1.1673-.056-1.1804-.0275.0567-.1234.8967.1853.1908.0182-.2763-.0654-.5498-.1243-.8218-.206-.1435-.0431-.8524-.2698-.2764-.0673.6083.2138-.2772-.1476-.4022-.2165-.2024-.1115-.3932-.2396-.5927-.356-.714-.4165.3123.3362-.0596-.02-.3774-.3615-.7559-.7082-1.1126-1.092-.0668-.0719-.4123-.5338-.0838-.0856.3803.5188-.1787-.2912-.2455-.399-.1221-.1968-.2388-.3982-.3483-.6024-.0646-.1206-.4511-1.0174-.2149-.4058.2088.5405.0033-.0184-.0239-.109-.1002-.334-.2071-.6594-.2858-.9997-.039-.1683-.0622-.3414-.1026-.509-.129-.5343.023.864.0223-.0019-.0002-.223.0031-.4668-.0095-.6915-.0522-.9316-.1959.8173.0383-.1629-2.944-.8116-5.888-1.6233-8.8321-2.4349-.9747,5.6467-1.6914,11.3735-3.5925,16.8072-.2252.6438-.4758,1.2765-.7226,1.9122-.3273.8429.5707-1.1774-.0686.1309-.109.223-.2094.4502-.3181.6734-.549,1.127-1.1688,2.2167-1.8479,3.2701-.2727.423-.549.8446-.8321,1.2607-.2124.3122-.4358.6155-.6541.9234-.2592.3657-.6378.4946.223-.2872-.9101.8266-1.632,1.8877-2.5484,2.7294-.1697.1558-1.1423.8051-1.1259.9688-.0246-.245,1.0849-.7976.1619-.1431-.2507.1778-.5046.3506-.7631.5169-.4132.2659-.8362.5168-1.2682.751-.2704.1466-.5444.2858-.8216.419-1.2224.5875.6036-.1959.065-.0136-1.1113.3761-2.199.6614-3.3405.9272-.8534.1987,1.5697-.1363.2524-.0263-.2559.0214-.5108.0449-.767.0619-.7018.0463-1.4034.0614-2.1064.0357-.5749-.0209-1.1441-.1085-1.7169-.1355,1.8122.0855.0311-.0298-.4885-.1445-1.2076-.2667-2.3925-.6297-3.548-1.0698-.2454-.0935-1.0894-.6785-.3856-.1472.7364.5559-.1802-.0963-.3763-.1897-.4844-.2308-.9628-.4741-1.4353-.7284-1.1972-.6443-2.3556-1.3603-3.4754-2.131-.5413-.3725-1.1926-.7531-1.6675-1.209.1077.1034,1.0433.8383.2301.1665-.2126-.1756-.4277-.348-.6392-.5248-1.0542-.881-2.0702-1.8076-3.0482-2.7724-.866-.8542-1.7013-1.739-2.5076-2.6497-.4149-.4686-.823-.9434-1.2241-1.4239-.2236-.2678-.4402-.5414-.6637-.8093-.7699-.9229.6629.9315-.1034-.1272-.7363-1.0174-1.4599-2.0373-2.1086-3.1138-.3215-.5335-.6271-1.0764-.9146-1.6291-.1589-.3056-.3156-.6131-.4656-.9231l-.1776-.3724c-.2635-.5878-.2314-.4987.0964.2675-.6301-.8956-.8772-2.4934-1.1003-3.5507-.0488-.2314-.0887-.4637-.1325-.6961-.1887-1.0018.0995.403.0638.4788.1638-.3481-.0913-1.5634-.0855-1.9677.0076-.5347.1013-1.0758.0991-1.6078.0055,1.3369-.146.8913-.0513.4583.0763-.3487.1362-.6992.2224-1.0461.1139-.4581.2483-.9112.4047-1.3566.0802-.2285.2199-1.1751.1042-.3035-.1082.8151.0858-.1228.2517-.4243.2463-.4478.6129-.8646.8345-1.32-.4764.979-.557.6542-.2297.3217.2024-.2056.3901-.4286.5867-.6397.3402-.3654.8273-.6921,1.1319-1.0806-.6078.7752-.6081.3944-.1836.1932.2228-.1372.4524-.2622.6885-.3749l-.543.2408.3712-.1115c.4787-.101.4966-.111.0538-.03l-.3185.054c.5838.0229.4928.0091-.273-.0414-.4034-.1004-.7192-.347-1.0169-.6276.604.5692-.1053-.177-.178-.2789.5454.7652-.0353-.6894-.0382-.1537-.0006.1046.2855.763.2078.809-.0168.01-.0752-1.0833-.037-.2825.0165.3449.0435.6882.0493,1.0337.0489,2.9242-.1614,5.8777-.4,8.7904-.1364,1.665-.3066,3.3272-.51,4.9854-.0484.3945-.0967.7891-.1506,1.1829.0971-.7086-.1057.7072-.1089.7282-.1505.9961-.2583,1.8033-.3554,2.3771-.5506,3.2508-1.0974,6.5092-1.9077,9.7083-.0797.3146-.1634.6279-.2575.9385-.0488.1612-.3641,1.0196-.2717.8162-.1137.2505-.5504.8795-.6802.9812-.1041.0816-.5483.3887-.0471.0612-.069.0451-.9792.5128-.3048.2339-.1989.0822-.4159.1452-.6245.2017-.213.0572-.4282.1045-.6456.142.3244-.048.3566-.0613.0965-.0398-2.2827.0765-4.4544-.6406-6.9561-1.6517-1.5077-.6093-3.353.5404-3.9069,1.9175-.5642,1.4028-.1638,3.4356,1.355,4.1355h0Z" style="fill:#7e96fc; stroke-width:0px;"/><path d="M431.5265,242.6643c-30.3326,15.379-61.9881,28.3569-94.5327,38.28-11.1194,2.2849-22.2707,4.4448-33.4282,6.548-21.945,3.9845-43.9027,6.9803-65.4179,12.4061-11.4549,3.0361-16.7941,5.1456-16.4534,17.8045.2106,8.2743,1.1857,17.0041,2.5212,25.226,3.8307,23.1505,11.7221,45.7308,23.2079,66.1782,4.5637,8.289,8.7288,10.4557,18.539,9.6617,16.6657-1.6382,33.209-6.2643,48.5293-13.0405,5.7226-2.6477,12.6628,1.1148,13.6288,7.3201,2.465,14.6642,3.7034,29.5304,3.6986,44.4003l-15.3909-8.0271c11.6042-8.1162,21.5898-18.5999,29.1913-30.5637,3.8506-5.894,6.1897-12.3804,11.6321-17.468,6.5079-5.9039,13.2057-7.2145,20.6541-9.5674,8.5368-2.6029,16.9141-5.719,25.1048-9.2639,16.3888-7.0752,31.9907-15.9799,46.4322-26.4675,4.0417-3.1332,9.8101-6.4537,11.0575-11.3226.6857-3.3973-.0049-6.3019-.5857-10.5184-.425-3.0464-.5253-6.1323-.6285-9.2202-.1754-5.9729-.9527-21.6528-1.217-27.7976-.9647-17.9954-1.994-37.8363-3.2458-55.7572.0003-.0001.397.7186.397.7186-1.9875-2.3835-6.0437-3.4592-9.4248-1.8694,2.9006-2.3455,7.6596-2.6296,11.1521-.0217.1575.1174.2645.2776.3169.4524l.0801.2668c3.5883,11.9429,6.8537,23.9746,10.0059,36.0518,3.1642,12.0805,6.0672,24.226,8.7871,36.4148,1.1193,5.4007,3.0986,12.9477,3.6696,18.3608,2.4864,20.043-2.5818,28.7667-18.862,40.0795-20.8023,15.1185-43.8384,27.1418-68.1194,35.6075-5.673,2.0496-11.8809,3.7086-17.5136,5.6063-5.0816,2.0267-5.3053,2.7168-8.1982,7.6699-9.3993,17.6695-23.032,33.1786-39.4781,44.657-6.3332,4.5643-15.5352-.2606-15.3909-8.0273.0044-13.7784-1.1437-27.5608-3.4279-41.149l13.6366,7.3167c-8.6664,3.8552-17.6281,7.0308-26.7812,9.4983-6.8648,1.8522-13.8425,3.2926-20.879,4.3198-11.0274,1.7669-23.7046,1.9989-33.2304-5.223-6.9076-5.1434-10.7263-12.4177-14.4925-19.5968-13.564-26.0058-21.8495-54.722-24.3573-83.939-1.6357-16.7168-.9438-33.094,15.6458-42.238,5.2731-2.9119,10.3506-4.2991,14.9667-5.5037,13.2992-3.3591,26.9266-5.8655,40.3196-8.1494,17.803-3.0415,35.1859-5.781,52.4577-9.8879,4.2902-1.154,8.6225-2.046,13.0368-2.5986,31.024-4.463,61.7627-10.5439,92.3864-17.6272h0Z" style="fill:#7e96fc; stroke-width:0px;"/><path d="M289.6795,528.5603c5.5337,4.5706,12.8192,5.87,19.7335,4.1201,7.0266-1.7783,12.7271-6.5865,15.4427-13.2976-2.3815.6287-4.763,1.2575-7.1445,1.8862,7.9543,8.3113,20.3008,1.9028,28.9035-1.5859,11.1025-4.5025,22.2244-8.9393,33.3862-13.293,11.1534-4.3504,22.3036-8.7072,33.4369-13.1089,11.1277-4.3995,22.1987-8.9515,33.4925-12.9074,6.2505-2.1893,12.5731-4.1602,18.8793-6.1829,6.9119-2.217,13.9772-4.3112,20.6539-7.1511,1.5687-.6673,3.1533-2.9728,3.5182-4.5753.3899-1.7119.3-3.3594-.3859-4.9848-1.3661-3.2372-5.4491-5.7854-9.0315-4.4326-5.8458,2.2074-11.5028,5.1465-17.1358,7.8575-5.281,2.5416-10.5292,5.1515-15.811,7.6913-2.6083,1.2542-5.2668,2.4105-7.902,3.607-1.2051.5472-2.405,1.1086-3.6163,1.6421.7013-.3089-.272.1105-.4395.1787-.3084.1256-.6169.2512-.9253.3769-.7711.3141-1.5422.6281-2.3132.9422-5.3975,2.1984-10.7951,4.3968-16.1926,6.5952-21.6696,8.826-43.2339,17.9192-64.9798,26.5549-5.6758,2.254-11.3171,4.7934-17.1159,6.7122-1.1797.3904-2.3773.7317-3.5941.9859-.5987.1251-1.2026.2323-1.8098.3068,1.0777-.1322-.614.0189-.9559.0264-.576.0125-1.1446-.025-1.7178-.0719.1654.0135.926.1993.1644-.001-.318-.0837-.6421-.1799-.9621-.2506-.2149-.0475-.742-.3241.1111.0846-.2491-.1193-.4956-.2394-.7353-.3772-.242-.1391-.4744-.2904-.7016-.4527.6043.4315.0947.0332-.1753-.2317-2.4391-2.3928-6.051-1.0804-7.1445,1.8862-.0673.1883-.1383.3752-.213.5606.2393-.5574.2628-.6232.0704-.1975-.1387.2623-.2616.5325-.4041.7933-.3034.5552-.7411,1.0596-1.0194,1.6196-.1818.2497-.1099.1622.2158-.2625-.1214.1541-.2455.306-.3723.4558-.1901.2245-.3862.4439-.5877.6581-.4705.5002-.9713.9721-1.497,1.414-.1923.1617-.9448.6729-.0928.0851-.2444.1686-.4813.346-.7285.5109-.577.385-1.1751.7388-1.7895,1.0607-.2639.1382-.5309.2706-.8006.397-.4168.1954-.7481.2962-.1287.0669-.6569.2432-1.3087.485-1.9826.6783-.6228.1787-1.2539.3279-1.8907.4476-.2346.0441-1.3626.1791-.2741.0639-.2973.0315-.5934.0652-.8916.088-1.2835.0979-2.5698.0656-3.8477-.086,1.0583.1256-.0553-.0297-.2796-.0747-.3368-.0676-.6716-.1442-1.0038-.2316-.5698-.1499-1.1202-.3475-1.6775-.5365-.3963-.1575-.3649-.1413.0942.0484-.1797-.0798-.3579-.1629-.5345-.2493-.2653-.1299-.5271-.2672-.7847-.4119-.2583-.1452-.5129-.298-.7624-.4579-.1415-.0907-1.1888-.8475-.4584-.2817-1.596-1.2362-3.736-1.5557-5.2917,0-1.325,1.325-1.5657,3.9986,0,5.2917h0Z" style="fill:#7e96fc; stroke-width:0px;"/><path d="M316.4745,584.1034c28.0751-8.2443,56.1398-16.5149,84.265-24.5868,13.8787-3.9832,27.557-8.5464,40.7886-14.3519,12.74-5.5898,24.7143-12.6695,36.7297-19.6388,6.8364-3.9653,13.7508-7.7511,20.7648-11.3932,3.5856-1.8619,7.1721-3.732,10.8063-5.4978,3.6315-1.7646,7.3523-3.3853,10.8711-5.3655,2.1503-1.2101,2.9579-3.9627,2.0237-6.1764-.8591-2.0357-3.5555-3.8149-5.835-2.8638-6.7863,2.8315-13.2578,6.5176-19.772,9.9254-6.3015,3.2966-12.5396,6.711-18.8203,10.0462-12.2094,6.4834-24.2412,13.3754-36.9371,18.8865-.4377.19-.8763.3779-1.3156.5641,1.1918-.5053-.282.1138-.4354.177-.7383.3044-1.4785.6041-2.2205.8995-1.6325.65-3.2735,1.2786-4.921,1.8895-3.2979,1.2228-6.6228,2.372-9.963,3.4735-6.7063,2.2115-13.4056,4.4446-20.1109,6.6601-13.8372,4.5719-27.4965,9.7119-41.2818,14.4409-15.5181,5.3234-31.0257,10.6771-46.5347,16.0271-1.8218.6285-3.0274,2.4478-2.4933,4.3913.5058,1.8405,2.5346,3.0385,4.3913,2.4933h0Z" style="fill:#7e96fc; stroke-width:0px;"/><path d="M354.6602,640.3847c12.7047-5.4141,25.4019-10.7745,38.195-15.9694,6.6242-2.6899,13.265-5.3417,19.8515-8.1227,3.1369-1.3245,6.2737-2.6489,9.4106-3.9734,1.5284-.6453,3.0568-1.2907,4.5852-1.936.7642-.3227,1.5284-.6453,2.2926-.968.4594-.194.9187-.3879,1.3781-.5819.5265-.2224.6147-.2596.2647-.1117-.6346.2683-.2617.111,1.1187-.4719,12.7881-5.61,25.4303-11.5619,38.1061-17.4192,12.5298-5.7898,25.1188-11.45,37.6934-17.1419,7.1218-3.2237,14.2436-6.4474,21.3654-9.6711,7.0986-3.2132,14.3945-6.1749,21.3063-9.7722,1.9561-1.0181,2.6273-3.6012,1.8126-5.5319-.7916-1.8758-3.1516-3.3441-5.2261-2.565-6.7393,2.5311-13.28,5.6888-19.8708,8.5842-6.4036,2.8132-12.8072,5.6264-19.2109,8.4397-12.8078,5.6267-25.5878,11.3229-38.4389,16.8499-12.7055,5.4644-25.4094,10.9275-38.066,16.5045-12.7338,5.6111-25.2609,11.714-37.7691,17.8085-14.0314,6.8367-28.1248,13.5128-42.2716,20.1074-1.6842.7851-2.1104,3.2099-1.2344,4.7076,1.0348,1.7691,2.991,1.9659,4.7076,1.2344h0Z" style="fill:#7e96fc; stroke-width:0px;"/><path d="M302.9215,336.897c-.7192.0758-1.4908.1301-2.1874.3694-1.1651.4003-2.142.9767-2.997,1.8634-1.1772,1.2209-1.8469,2.4907-2.45,4.0481-.4383,1.1318-.5868,2.4321-.4949,3.644.139,1.833.4851,3.1148,1.2661,4.7662.497,1.0509,1.277,2.0475,2.1788,2.7808,1.2919,1.0505,2.7049,1.9818,4.3844,2.2803,1.7932.3187,3.2964.3433,5.0923-.0696.5916-.136,1.1361-.3823,1.6944-.6179.5953-.2512,1.1787-.4885,1.7145-.8514,1.4903-1.0094,2.8097-2.216,3.7163-3.796.7341-1.2793.907-2.4149,1.0516-3.8476.1081-1.0712-.1888-2.2719-.7215-3.1888-.2889-.4973-.705-.9917-1.1207-1.4185-.8544-.8772-2.3213-1.5293-3.5582-1.4739l-1.3377.1798c-.8525.2391-1.5926.6705-2.2205,1.2941-.0415.0354-.0837.0699-.1267.1034l1.0506-.8117c-.2587.1961-.5153.3808-.776.5822-.4136.2447-.7428.5739-.9875.9875-.3411.3435-.5771.7483-.7079,1.2146-.1206.2858-.238.5696-.3571.8549l.5585-1.3235c-.262.5867-.6391,1.1766-1.0218,1.6922l.8924-1.155c-.3061.3956-.6556.7438-1.048,1.0538l1.1506-.889c-.4306.3278-.8921.597-1.3892.8109l1.3525-.5708c-.4644.1903-.9412.3257-1.4374.4019l1.4994-.2015c-.4556.061-.9087.0695-1.3656.0173l1.4941.2008c-.4202-.0574-.8226-.1641-1.2143-.3271l1.3382.5647c-.3246-.1446-.6259-.3211-.9102-.5343l1.1306.8735c-.2947-.2322-.555-.4929-.7883-.7866l.871,1.1273c-.2665-.3512-.4816-.7287-.6539-1.1343l.5596,1.3261c-.1793-.446-.3006-.9047-.3712-1.3801l.1975,1.4702c-.0986-.7531-.0437-1.5067.0515-2.2574l-.1945,1.4472c.0683-.4727.1856-.9295.3629-1.3732l-.5325,1.2618c.1706-.4036.3827-.7798.648-1.1287l-.8028,1.0391c.3758-.4721.7524-.9312,1.0468-1.4554.0914-.1628.1949-.3167.307-.4658l-.7442.9633c.0623-.0788.1259-.1554.1919-.2312.5198-.5972.9816-1.2763,1.1946-2.0497.2786-1.0118.1687-2.0698-.2341-3.0245-.3222-.7636-.7745-1.3512-1.4305-1.8581-.7471-.5772-1.8387-1.1001-2.8145-.9973h0Z" style="fill:#7e96fc; stroke-width:0px;"/><path d="M350.4526,327.1451c-.7192.0758-1.4908.1301-2.1874.3694-1.1651.4003-2.142.9767-2.997,1.8634-1.1772,1.2209-1.8469,2.4907-2.45,4.0481-.4383,1.1318-.5868,2.4321-.4949,3.644.139,1.833.4851,3.1148,1.2661,4.7662.497,1.0509,1.277,2.0475,2.1788,2.7808,1.2919,1.0505,2.7049,1.9818,4.3844,2.2803,1.7932.3187,3.2964.3433,5.0923-.0696.5916-.136,1.1361-.3823,1.6944-.6179.5953-.2512,1.1787-.4885,1.7145-.8514,1.4903-1.0094,2.8097-2.216,3.7163-3.796.7341-1.2793.907-2.4149,1.0516-3.8476.1081-1.0712-.1888-2.2719-.7215-3.1888-.2889-.4973-.705-.9917-1.1207-1.4185-.8544-.8772-2.3213-1.5293-3.5582-1.4739l-1.3377.1798c-.8525.2391-1.5926.6705-2.2205,1.2941-.0415.0354-.0837.0699-.1267.1034l1.0506-.8117c-.2587.1961-.5153.3808-.776.5822-.4136.2447-.7428.5739-.9875.9875-.3411.3435-.5771.7483-.7079,1.2146-.1206.2858-.238.5696-.3571.8549l.5585-1.3235c-.262.5867-.6391,1.1766-1.0218,1.6922l.8924-1.155c-.3061.3956-.6556.7438-1.048,1.0538l1.1506-.889c-.4306.3278-.8921.597-1.3892.8109l1.3525-.5708c-.4644.1903-.9412.3257-1.4374.4019l1.4994-.2015c-.4556.061-.9087.0695-1.3656.0173l1.4941.2008c-.4202-.0574-.8226-.1641-1.2143-.3271l1.3382.5647c-.3246-.1446-.6259-.3211-.9102-.5343l1.1306.8735c-.2947-.2322-.555-.4929-.7883-.7866l.871,1.1273c-.2665-.3512-.4816-.7287-.6539-1.1343l.5596,1.3261c-.1793-.446-.3006-.9047-.3712-1.3801l.1975,1.4702c-.0986-.7531-.0437-1.5067.0515-2.2574l-.1945,1.4472c.0683-.4727.1856-.9295.3629-1.3732l-.5325,1.2618c.1706-.4036.3827-.7798.648-1.1287l-.8028,1.0391c.3758-.4721.7524-.9312,1.0468-1.4554.0914-.1628.1949-.3167.307-.4658l-.7442.9633c.0623-.0788.1259-.1554.1919-.2312.5198-.5972.9816-1.2763,1.1946-2.0497.2786-1.0118.1687-2.0698-.2341-3.0245-.3222-.7636-.7745-1.3512-1.4305-1.8581-.7471-.5772-1.8387-1.1001-2.8145-.9973h0Z" style="fill:#7e96fc; stroke-width:0px;"/><path d="M397.9837,317.3931c-.7192.0758-1.4908.1301-2.1874.3694-1.1651.4003-2.142.9767-2.997,1.8634-1.1772,1.2209-1.8469,2.4907-2.45,4.0481-.4383,1.1318-.5868,2.4321-.4949,3.644.139,1.833.4851,3.1148,1.2661,4.7662.497,1.0509,1.277,2.0475,2.1788,2.7808,1.2919,1.0505,2.7049,1.9818,4.3844,2.2803,1.7932.3187,3.2964.3433,5.0923-.0696.5916-.136,1.1361-.3823,1.6944-.6179.5953-.2512,1.1787-.4885,1.7145-.8514,1.4903-1.0094,2.8097-2.216,3.7163-3.796.7341-1.2793.907-2.4149,1.0516-3.8476.1081-1.0712-.1888-2.2719-.7215-3.1888-.2889-.4973-.705-.9917-1.1207-1.4185-.8544-.8772-2.3213-1.5293-3.5582-1.4739l-1.3377.1798c-.8525.2391-1.5926.6705-2.2205,1.2941-.0415.0354-.0837.0699-.1267.1034l1.0506-.8117c-.2587.1961-.5153.3808-.776.5822-.4136.2447-.7428.5739-.9875.9875-.3411.3435-.5771.7483-.7079,1.2146-.1206.2858-.238.5696-.3571.8549l.5585-1.3235c-.262.5867-.6391,1.1766-1.0218,1.6922l.8924-1.155c-.3061.3956-.6556.7438-1.048,1.0538l1.1506-.889c-.4306.3278-.8921.597-1.3892.8109l1.3525-.5708c-.4644.1903-.9412.3257-1.4374.4019l1.4994-.2015c-.4556.061-.9087.0695-1.3656.0173l1.4941.2008c-.4202-.0574-.8226-.1641-1.2143-.3271l1.3382.5647c-.3246-.1446-.6259-.3211-.9102-.5343l1.1306.8735c-.2947-.2322-.555-.4929-.7883-.7866l.871,1.1273c-.2665-.3512-.4816-.7287-.6539-1.1343l.5596,1.3261c-.1793-.446-.3006-.9047-.3712-1.3801l.1975,1.4702c-.0986-.7531-.0437-1.5067.0515-2.2574l-.1945,1.4472c.0683-.4727.1856-.9295.3629-1.3732l-.5325,1.2618c.1706-.4036.3827-.7798.648-1.1287l-.8028,1.0391c.3758-.4721.7524-.9312,1.0468-1.4554.0914-.1628.1949-.3167.307-.4658l-.7442.9633c.0623-.0788.1259-.1554.1919-.2312.5198-.5972.9816-1.2763,1.1946-2.0497.2786-1.0118.1687-2.0698-.2341-3.0245-.3222-.7636-.7745-1.3512-1.4305-1.8581-.7471-.5772-1.8387-1.1001-2.8145-.9973h0Z" style="fill:#7e96fc; stroke-width:0px;"/><path d="M307.0944,832.5918c2.9294-4.4176,6.3416-8.4744,10.175-12.136,3.8834-3.7093,8.2695-6.8325,12.3903-10.262.846-.7041.8127-2.1358.1749-2.9366-.7492-.9406-1.8286-1.0301-2.8851-.576-5.2739,2.2665-9.6839,5.9737-13.7643,9.9661-4.0667,3.979-7.6723,8.439-10.7701,13.2093-.7972,1.2277-.2487,2.9932.9721,3.7072,1.326.7756,2.8963.2509,3.7072-.9721h0Z" style="fill:#003033; stroke-width:0px;"/><path d="M324.9225,847.3534c1.9372-3.7603,4.0892-6.7631,6.9561-9.6977.7045-.7211,1.4351-1.4167,2.1891-2.0858.3952-.3507.7969-.6941,1.2048-1.03.1855-.1527.3725-.3036.5606-.453.0971-.0772.5179-.3973.2255-.1769.5375-.4052,1.0796-.8015,1.6052-1.2227.1858-.1489.3699-.2999.5564-.4478.7234-.5736-.3986.2797.3554-.2702.8562-.6245,1.7213-1.2301,2.6149-1.8003,1.1541-.7365,1.6214-2.2563.9104-3.4719-.7346-1.2559-2.2364-1.5147-3.4719-.9104-2.0764,1.0158-4.0677,2.1593-5.8819,3.5962-1.6921,1.3402-3.2801,2.8107-4.749,4.3923-3.0285,3.2607-5.5964,6.9656-7.5322,10.9733-.6059,1.2543-.3433,2.7884.9258,3.5307,1.1557.676,2.8901.3177,3.5307-.9258h0Z" style="fill:#003033; stroke-width:0px;"/><path d="M346.2939,848.037c3.8744,0,3.8809-6.0213,0-6.0213-3.8744,0-3.8809,6.0213,0,6.0213h0Z" style="fill:#003033; stroke-width:0px;"/><path d="M373.0106,830.8158c2.0698,0,4.0526-1.82,3.9569-3.9569-.096-2.1438-1.7386-3.9569-3.9569-3.9569-2.0698,0-4.0526,1.82-3.9569,3.9569.096,2.1438,1.7386,3.9569,3.9569,3.9569h0Z" style="fill:#003033; stroke-width:0px;"/><path d="M646.1416,378.8912c-.4852-3.849-.4588-7.6758-.2519-11.5468.207-3.8742.3336-7.7289.7902-11.587.0537-.4536.1103-.9068.1695-1.3597-.1085.8304.0355-.2252.0773-.5079.1434-.9692.3002-1.9364.4698-2.9014.3399-1.9333.7322-3.8573,1.1763-5.7693.875-3.7671,1.814-7.5062,3.0114-11.186,1.3983-4.2973,5.5329-11.3839.2365-14.5632-1.6497-.9903-3.7765-.8521-5.4103.0854-1.4326.822-2.3036,2.1851-2.9545,3.6529-.9069,2.0447-1.5549,4.1883-2.1805,6.3329-2.2558,7.7335-3.5749,15.6814-4.0138,23.7246-.2345,4.2974-.2731,8.6487.0636,12.9424.3615,4.6108,1.2939,9.126,1.9734,13.6093.2559,1.6886,2.2899,2.7259,3.8224,2.4954,1.5346-.2308,3.24-1.6815,3.0207-3.4215h0Z" style="fill:#7e96fc; stroke-width:0px;"/><path d="M700.3488,381.6028c1.499-1.6373,2.4524-3.5567,3.5281-5.4787,1.0103-1.8053,1.9073-3.6582,2.836-5.5066,1.8243-3.6309,3.6782-7.2519,5.573-10.8466,3.7974-7.2042,7.8835-14.2562,12.2446-21.1338,1.1942-1.8834,2.4092-3.7536,3.6444-5.6103,1.413-2.1239,3.6358-4.5674,4.0417-7.1404.3841-2.435-.0718-4.6547-2.1287-6.2438-1.8492-1.4287-4.5461-1.7064-6.5973-.4644-2.4111,1.4599-3.8364,4.0799-5.2869,6.4194-1.0929,1.7626-2.1678,3.5363-3.2244,5.3208-2.1144,3.5711-4.1559,7.1854-6.123,10.8396-4.0503,7.5242-7.8202,15.201-11.1031,23.0916-.8763,2.1063-1.833,4.2195-2.5214,6.3956-.7789,2.4621-1.6896,4.899-1.7844,7.4988-.1253,3.4358,4.5542,5.4227,6.9017,2.8588h0Z" style="fill:#7e96fc; stroke-width:0px;"/><path d="M756.3669,400.8011c1.2187-.9024,1.8822-1.8078,2.3035-3.2556.1042-.358.2101-.7095.3301-1.0628-.0276.0813-.3493.6434-.0817.2409.1676-.2521.2919-.5462.453-.8039.4037-.6457.8757-1.2476,1.2835-1.8907-.4456.7027-.0669.0866.207-.2291.3024-.3486.6178-.6858.9407-1.0154,2.5978-2.6519,5.6376-4.9088,8.5434-7.2074.7355-.5818,1.4741-1.1598,2.2144-1.7355.0439-.0342.659-.5082.211-.1637-.4472.344.1659-.1265.2105-.1606.4326-.3306.865-.6614,1.2988-.9904,1.6116-1.2223,3.2352-2.4288,4.8706-3.6192,3.2096-2.3364,6.4633-4.6142,9.7524-6.8373,4.0052-2.707,8.1676-5.1793,11.8213-8.3682,2.0001-1.7456,1.9386-5.033.417-7.0026-1.7326-2.2426-4.4116-2.4782-6.8798-1.3736-3.8592,1.7271-7.2456,4.2906-10.6585,6.753-3.6695,2.6476-7.2704,5.3876-10.8232,8.1898-3.2382,2.5541-6.4252,5.1731-9.5585,7.8548-2.9607,2.534-6.0971,5.0307-8.6728,7.9686-1.6678,1.9023-3.1417,3.9116-3.8521,6.3699-.8594,2.974-.9445,6.4041,1.849,8.3389,1.0021.694,2.8241.7379,3.8206,0h0Z" style="fill:#7e96fc; stroke-width:0px;"/><path d="M800.3791,435.3836c1.9548-.6994,3.7166-1.4963,5.5225-2.5212,1.5436-.8761,3.0338-1.8467,4.5657-2.7442,3.2025-1.8763,6.4937-3.5779,9.7959-5.2695,1.5855-.8121,3.186-1.5949,4.8008-2.3469.8752-.4076,1.7546-.8061,2.638-1.1958.4078-.1799.8165-.3579,1.226-.5339.2047-.0882.4096-.1758.6149-.2628-.4638.1962-.4363.1859.0824-.0308,1.6464-.6675,3.3049-1.3045,4.9477-1.9804,2.4383-1.0032,4.9247-1.815,6.0613-4.4001.7695-1.7503.6091-4.0651-1.327-5.0607-1.6619-.8546-2.888-1.136-4.79-.7363-.8761.1841-1.7045.4665-2.541.7785-2.0586.7677-4.0698,1.6707-6.0651,2.5897-3.4293,1.5795-6.7951,3.2962-10.0869,5.1454-3.2965,1.8518-6.4609,3.9529-9.5492,6.1319-1.7268,1.2183-3.4717,2.4438-5.0838,3.8115-.6633.5627-1.3765,1.1144-1.9845,1.7376-.7669.7861-1.3935,1.8252-2.0335,2.7182-1.4159,1.9756.9462,4.9783,3.2057,4.1699h0Z" style="fill:#7e96fc; stroke-width:0px;"/><path d="M843.3605,461.3278c2.218-.9352,4.4359-1.8703,6.6539-2.8055l1.6635-.7014c.856-.3609,1.8417-.6445,2.6197-1.1225,1.0135-.6227,1.9692-1.3758,2.9444-2.0572,1.7537-1.2253,2.6092-3.2625,1.7422-5.3171-.8626-2.0442-2.9069-2.8683-5.0232-2.4653-1.1595.2208-2.3938.3483-3.5284.6719-1.0929.3117-2.1658.8957-3.2124,1.337-2.1784.9185-4.3567,1.8369-6.5351,2.7554-1.2673.5343-2.2827,1.0742-3.0073,2.3126-.6312,1.0786-.8986,2.6683-.5073,3.8775.394,1.2176,1.1486,2.3924,2.3126,3.0073,1.1067.5847,2.6647,1.0187,3.8775.5073h0Z" style="fill:#7e96fc; stroke-width:0px;"/><path d="M548.9689,902.2527c21.8227-4.4972,42.3559-15.8056,57.8048-31.8703,7.8386-8.151,14.919-18.3102,15.8788-29.9.8367-10.1028-3.5608-21.4558-12.9686-26.258-10.5267-5.3733-23.4568-1.3804-30.9207,7.3554-8.7848,10.2817-9.6567,24.3411-6.709,37.0521,4.7981,20.6905,20.0651,38.1268,38.7591,47.7117,21.55,11.0493,47.82,12.1531,69.658,1.227,20.02-10.0165,35.2946-32.0967,34.0364-54.9741-.6714-12.2072-6.3391-24.8812-17.9903-30.2116-5.7634-2.6367-12.1171-3.6995-18.34-2.0679-5.6416,1.4791-10.2036,5.072-13.5751,9.7298-5.9442,8.2122-6.2384,19.566-4.4577,29.1515.9459,5.092,2.8907,9.9627,5.1004,14.6271,2.1056,4.4447,4.6988,8.6465,7.6776,12.5581,13.2355,17.3803,32.7225,29.1505,54.6496,31.0742,12.1244,1.0637,24.7784-1.7891,33.4195-10.8306,7.1405-7.4713,10.6404-17.3646,12.8064-27.2742.5006-2.2902.9166-4.5986,1.2716-6.9157.2341-1.528.4395-3.0604.6413-4.593.0822-.6241.1596-1.2487.2373-1.8733.0343-.276.0701-.5518.1011-.8282.1046-.9333-.2315,1.6344-.0343.2379-3.8485.503-7.697,1.006-11.5455,1.5089,5.4923,12.7414,18.972,20.0514,31.8022,23.4461,7.044,1.8638,14.5881,2.9453,21.8781,2.8113,8.0372-.1477,16.5724-1.8976,23.1557-6.7509,3.6757-2.7098,6.9168-5.9489,8.9944-10.0709.9646-1.9138,1.8237-3.9347,2.1908-6.0548.2172-1.2544.4005-2.5274.4603-3.8004.0203-.4311.0239-.8629.0106-1.2943-.0182-.588-.2283-3.8641-.1472-1.7491-.1179-3.0763-2.6257-6.0386-5.8923-5.8923-3.0913.1385-6.0188,2.5931-5.8923,5.8923l.1596-.709c-.1079.6717-.1936,1.3461-.2574,2.023.0253-.1793.2762-1.3708.018-.3264-.173.6995-.318,1.3911-.5452,2.0771.0091-.0276-.2336.7985-.2907.8144.3108-.0862.6679-1.8828-.5101,1.2011.0645-.1688.6575-1.3389.1218-.3723-.2101.3791-.394.7724-.6094,1.1492-.3633.6354-.7696,1.2373-1.1829,1.8402-.8366,1.2203.7484-.8474.1075-.1356-.2455.2726-.4715.5647-.711.8427-.977,1.1339-2.044,2.1319-3.1642,3.1204-1.1614,1.0248,1.2473-.8196-.047.0298-.2482.1629-.4871.3411-.7345.5054-.6172.4097-1.2535.792-1.9045,1.1455-.6598.3582-1.3553.7358-2.0596.9989,1.4147-.5285.466-.1969.1721-.1013-.5743.1866-1.1376.4041-1.7152.5827-1.5715.4859-3.1672.8216-4.7836,1.1151-1.6772.3046,1.0815-.0937.004.0102-.4317.0416-.862.0966-1.2942.1349-.9541.0845-1.9106.139-2.868.168-3.4975.106-6.9964-.0953-10.4717-.4854-.3676-.0413-.7345-.0872-1.1019-.1301-1.1735-.1371.4093.0333.5234.072-.6401-.217-1.4472-.2146-2.1219-.3281-1.4935-.2511-2.9797-.546-4.4555-.8863-2.8148-.649-5.5929-1.4642-8.2976-2.4803-.1835-.0689-1.7037-.8018-1.7997-.7107l.7977.3346c-.2618-.1136-.5227-.2293-.7826-.3472-.2592-.1176-.5176-.2373-.7748-.3591-1.4027-.6638-2.7752-1.3932-4.1049-2.1935-.5976-.3597-1.1867-.7337-1.7657-1.1229-.3455-.2322-.6874-.4696-1.0254-.7126-.3685-.2649-1.3289-1.1619.0074.0329-1.1297-1.0101-2.3086-1.9347-3.3714-3.0231-.5733-.5871-1.1241-1.1969-1.6496-1.8271-.1739-.2086-.3359-.4374-.5176-.6377,1.6598,1.8295-.8254-.9701-.7425-.986l.5061.6718c-.1632-.2234-.3232-.449-.48-.6768-.2359-.3428-.4649-.6905-.6858-1.0432-.4458-.7119-.8552-1.4437-1.2433-2.1885-1.2354-2.3712-4.5855-3.7276-7.1336-2.9029-2.7816.9002-4.4435,3.2004-4.6375,6.0911-.0743,1.1062-.1916,2.2073-.3183,3.3087-.056.4873-.1143.9744-.1748,1.4613-.0347.2793-.0718.5583-.1065.8376-.1.804.1985-1.3717.0243-.1903-.3323,2.2523-.6917,4.498-1.1453,6.7296-.4508,2.2179-1.0339,4.4122-1.703,6.5741-.31,1.0017-.6428,1.9963-1.0012,2.9818-.1659.4563-.3368.9108-.5142,1.3627.0101-.0258-.2559.7546-.3083.7692.3451-.807.4236-.9924.2353-.556-.0538.1258-.1087.2512-.1645.3762-.8729,1.9746-1.8721,3.895-3.0264,5.7203-.2487.3933-.5042.7823-.7673,1.1661-.2252.3286-.8561.9157-.9271,1.2894.1201-.6321.7648-.9424.2716-.3627-.1703.2001-.3334.4062-.5039.6063-.3831.4496-.779.8881-1.1868,1.3155-.6807.7134-1.3959,1.394-2.1446,2.0358-.2006.172-.4072.3366-.6088.5074-.6428.5448-.0943-.262.3694-.2822-.3292.0143-1.0008.7127-1.3113.9167-.9356.6148-1.9086,1.1732-2.9114,1.671-.1788.0887-.7794.4557-.92.4349.0114.0017,1.1247-.431.396-.1671-.7148.2589-1.4197.5324-2.1468.7574-1.2925.3999-2.6108.7152-3.9422.9546-.2502.045-.5042.077-.7535.1263-.952.1883,1.2137-.1182.247-.0285-.7637.0709-1.5235.1568-2.2895.2038-2.7306.1674-5.4735.0767-8.1947-.1903-.5301-.052-1.0583-.1185-1.5876-.1774-.9148-.1017,1.4138.2121.5064.0674-.285-.0454-.571-.085-.856-.1305-1.2104-.193-2.4152-.4208-3.6124-.6831-2.1816-.4778-4.3381-1.0692-6.4598-1.7662-1.0271-.3374-2.046-.6992-3.0558-1.0854-.4439-.1697-1.1454-.6271-1.6085-.6385l.4278.1818c.9787.4154.57.2433-1.2262-.5162.5822.2433,1.2248.5255.2637.1009-2.1112-.9328-4.1756-1.9703-6.1854-3.105-1.95-1.1009-3.8486-2.2927-5.6884-3.5693-.9512-.66-1.8604-1.376-2.8038-2.0454.1144.0812,1.2883,1.0205.3776.2837-.1687-.1365-.339-.271-.5077-.4075-.5061-.4096-1.0072-.8255-1.5022-1.2485-3.5214-3.0087-6.7603-6.3464-9.6563-9.9612-.18-.2247-.3508-.4636-.5386-.6809-.021-.0243.8746,1.1597.4253.5463-.3419-.4668-.693-.9264-1.0312-1.3959-.7183-.9973-1.4113-2.0128-2.0771-3.0459-1.2138-1.8831-2.338-3.824-3.3651-5.815-.497-.9634-.9716-1.9384-1.4221-2.9245-.233-.5099-.4077-1.1122-.7007-1.5872.0718.1163.6296,1.5649.2032.4605-.1303-.3373-.2674-.672-.3972-1.0095-.7666-1.9942-1.4358-4.0205-1.9354-6.0987-.2278-.9477-.4238-1.9031-.5878-2.8639-.1054-.6173-.142-2.2825-.0379-.0889-.0247-.5203-.1207-1.0436-.1664-1.5636-.1824-2.0745-.2148-4.1644-.069-6.2422.0359-.5121.0916-1.0211.1407-1.532.1141-1.1874-.294,1.7839.0207-.0293.1705-.9828.3874-1.958.6571-2.9184.2485-.8848.5893-1.7283.8794-2.5974.2714-.813-.6724,1.4312-.2783.6737.1099-.2112.2017-.4329.3076-.6465.2366-.4775.4903-.9465.7629-1.4044.2104-.3534.4319-.7001.6643-1.0394.1323-.1931.2763-.3785.4071-.5723.4706-.6968-1.0207,1.1954-.4427.5868.6904-.727,1.3588-1.4369,2.0967-2.1192.8178-.7563-1.4518.9734-.1445.1179.405-.265.8026-.5323,1.2226-.7741.3742-.2154.7633-.3993,1.1437-.6023.9383-.5007-.4307.1965-.5476.2168.3181-.0553.6788-.2495.9937-.3492.5328-.1687,1.0727-.3092,1.6199-.4228,1.5545-.3226-1.2512.0615-.0032-.0305,1.1981-.0883,2.3534-.0543,3.5505.0123.9228.0513-1.5162-.2669-.6076-.0867.2068.041.4164.07.6235.1103.5544.1079,1.1051.2385,1.6489.3912.5467.1535,1.0875.3285,1.6209.5233.2648.0968.5293.2249.7966.3093-.5776-.1825-1.28-.5674-.3056-.0899.9641.4725,1.8951,1.012,2.7836,1.6149.2184.1482.4725.3878.7019.4957-.1263-.0594-1.2882-1.0677-.4015-.3033.4332.3735.8668.7437,1.2784,1.1416.4096.396.8048.8074,1.1821,1.2343.1582.179.372.5262.5517.6501-.1425-.0982-.9207-1.2976-.2214-.2786.7206,1.05,1.406,2.1071,1.9945,3.2388.2111.4059,1.3062,2.1478.2978.478.3115.5158.478,1.2118.673,1.7818.4132,1.2078.7506,2.4416,1.0187,3.6895.1349.6281.2434,1.2599.352,1.8928.2208,1.2859-.156-1.5357.0236.2832.1347,1.3647.1959,2.7359.1902,4.1072-.0051,1.208-.0647,2.4157-.1729,3.6187-.0494.5485-.1352,1.0957-.1786,1.6444.1764-2.2316-.0576.2052-.1663.7883-.4253,2.281-1.0183,4.5301-1.7633,6.7273-.3056.9013-1.1305,2.2155-1.1859,3.151.0575-.9696.5001-1.1491.185-.4617-.1248.2722-.246.5459-.3725.8174-.2848.611-.5818,1.2163-.8898,1.8159-1.0975,2.1372-2.3393,4.1994-3.7086,6.1733-.3002.4327-.606.8615-.9184,1.2855-.0061.0082-.5468.635-.5415.7231-.0055-.0898,1.0985-1.3657.2853-.3803-.7677.9303-1.5345,1.8572-2.3469,2.7494-1.6245,1.7841-3.3606,3.4674-5.1969,5.0328-.4594.3916-.9277.7715-1.3956,1.1528-.6945.5661-.2185-.2041.3875-.291-.1408.0202-.6577.4934-.7237.542-.9702.7147-1.9634,1.3985-2.9775,2.0494-2.1612,1.3872-4.4195,2.621-6.7461,3.7078-.3045.1422-.6119.278-.9171.4186-.1769.0815-.986.3972-.0589.0359.9832-.3831-.0534.0202-.2968.1181-.3113.1253-.6236.248-.937.3681-1.3318.5107-2.6811.9756-4.0447,1.3942-2.4901.7645-5.0268,1.3754-7.5901,1.838-.6627.1196-1.3271.2292-1.9931.329-.2491.0373-.5025.063-.7501.1086,1.8059-.3329.8679-.115.437-.0694-1.4258.1509-2.8501.2857-4.2821.3632-2.6979.1461-5.4035.1374-8.1006-.0214-1.2653-.0745-2.5283-.1825-3.7881-.3218-.6003-.0664-2.564-.5372-.5584-.0553-.6495-.1561-1.3425-.2019-2.0012-.3152-2.4902-.4283-4.9597-.9821-7.3909-1.6711-2.2218-.6296-4.4121-1.3684-6.5626-2.2097-.5199-.2034-2.2875-.9988-.2488-.0786-.4609-.208-.9283-.4019-1.3893-.6099-1.12-.5053-2.2272-1.0388-3.3205-1.5994-2.0583-1.0554-4.0667-2.2087-6.0169-3.4526-.8529-.544-1.6947-1.1055-2.5246-1.684-.474-.3304-.9443-.6663-1.4103-1.0078-.2329-.1707-.4627-.3458-.696-.5161-1.0445-.7626.9926.7907.2859.2273-3.5522-2.8318-6.8745-5.915-9.8612-9.3427-.7529-.8641-1.4347-1.7956-2.1958-2.6502.077.0864,1.0839,1.4403.3621.4679-.1707-.23-.3442-.4577-.5142-.6883-.3396-.4608-.6736-.9259-1.0012-1.3953-1.3078-1.874-2.5491-3.8021-3.6793-5.7887-1.1347-1.9946-2.0359-4.0777-3.0566-6.126.0534.1072.6675,1.6532.2282.5317-.1045-.2668-.2138-.5316-.3179-.7986-.1822-.4674-.3583-.9372-.5287-1.409-.4146-1.1478-.7941-2.3081-1.1372-3.4793-.3268-1.1154-.6198-2.2408-.8763-3.3744-.1299-.5741-.2509-1.1501-.3614-1.7283-.0632-.3308-.1234-.6624-.1799-.9945-.0172-.1013-.2174-1.719-.1049-.5695.1024,1.0464-.0061-.0667-.0354-.3266-.0378-.336-.0721-.6722-.1026-1.0089-.0534-.5883-.0963-1.1776-.1265-1.7676-.0729-1.4255-.0761-2.8547-.0004-4.2802.0354-.6668.1191-1.3294.159-1.995.047-.7821-.0798.5505-.091.5836.0953-.2812.1028-.6824.1555-.986.2409-1.3885.5866-2.7531.9622-4.11.1539-.5559.3372-1.1058.5307-1.6492.0776-.2179.1971-.7141.3481-.9264-.7123,1.002-.288.6262-.0814.211.543-1.0915,1.083-2.1667,1.7543-3.1871.157-.2386.3257-.4685.4837-.7061.6109-.9187-.0925.1673-.2265.27.4089-.3134.7724-.9267,1.1258-1.3099.5327-.5776,1.719-2.1639,2.5086-2.3569-.6478.1584-.7967.5794-.2307.1804.2349-.1656.4671-.3342.7053-.495.4737-.32.9593-.6228,1.4548-.9078.4307-.2477.87-.4801,1.3161-.6988.1962-.0962.9996-.5487.2482-.1389-.7984.4354.2657-.0996.4652-.1722.9966-.3626,2.0154-.5592,3.0299-.8455.973-.2746-2.1953.2705.2559-.0589l.7718-.1037c-.7819.0802-.9501.0965-.5046.0491.625-.0559,1.2453-.1025,1.8733-.1038.1195-.0002,1.6596.0824,1.6603.0797-.0061.0257-1.0697-.191-.4157-.0585.277.0561.5569.098.8335.1577.5375.1161,1.0675.2586,1.5907.4279.1904.0616.3778.1306.5676.194,1.2305.4108-.9326-.5033.2254.0924.4121.212.8264.4159,1.2275.6488.171.0993,1.4409.9022.9803.5848-.4856-.3347.0324.0423.1131.1084,1.8696,1.5315,1.0358.82.6444.4763.4491.3944.8907.7936,1.3096,1.2204.372.379.7287.7716,1.0707,1.1779.0793.0942.5951.7506.2671.32-.3031-.398.0967.1434.126.1869.6466.9581,1.2601,1.9239,1.7864,2.9545.1234.2417.2427.4852.3581.7309.0387.0824.3774.8504.2035.4385-.1563-.3702.098.2592.1014.2683.0944.2592.1935.5162.2838.7769.3824,1.1026.6914,2.2301.9227,3.374.0943.4665.183.9372.245,1.4094-.0614-.468.012.2106.0154.2492.0241.2728.0511.5474.0647.8212.0568,1.1429.0126,2.2907-.1049,3.4291-.5188,5.0264-2.553,9.7413-5.2127,13.9838-5.3947,8.6052-13.0888,16.0425-21.122,22.1825-8.1468,6.2269-17.2141,11.2553-26.8218,14.841-4.7034,1.7554-9.5253,3.1694-14.4263,4.2548-2.5467.564-1.4628,4.4214,1.0748,3.8985h0Z" style="fill:#7e96fc; stroke-width:0px;"/><path d="M829.4548,95.0812c-11.5267,1.8443-23.1089,3.2999-34.679,4.849-12.0164,1.6088-24.0134,3.3329-36.0125,5.0673-5.9329.8576-11.8658,1.7152-17.7988,2.5727-1.3617.1968-2.7233.3936-4.085.5905-.18.026-1.4062.1955-.6096.0875,1.1464-.1554-1.6457.2213-1.4378.1899-.8722.1317-1.7423.286-2.6135.425-2.9062.4638-5.8125.9276-8.7187,1.3914-11.7219,1.8706-23.4437,3.7412-35.1656,5.6118-23.4412,3.7408-46.8909,7.4314-70.3131,11.2891-2.8014.4614-5.5913,1.0107-8.0097,2.6164-3.4855,2.3143-5.498,5.8217-5.8665,9.9609-.4906,5.5099,3.3171,10.9609,7.3727,14.3085,4.4546,3.677,9.7395,6.1767,14.7903,8.9232,4.9985,2.7181,10.0298,5.3721,15.0809,7.9913,20.3725,10.5639,41.029,20.5805,61.9395,30.0349,2.5922,1.172,5.1886,2.3349,7.7884,3.4902-1.3034-2.2723-2.6067-4.5446-3.9101-6.8169-2.2643,26.4347-3.0725,52.9895-2.3881,79.5126.0918,3.5575.1005,7.1189.7226,10.6348.7244,4.0938,3.2653,7.569,6.6487,9.8827,5.9009,4.0354,13.6809,3.2841,19.7433.1293,5.4161-2.8184,9.685-7.7587,13.9485-12.0221,4.1766-4.1765,8.3164-8.3867,12.373-12.68,4.1103-4.3501,8.136-8.7768,12.2065-13.1625,4.1141-4.4327,8.3927-8.7197,12.5381-13.1247,8.4898-9.0215,16.8478-18.1667,25.0937-27.4115,16.8671-18.9103,33.3793-38.1373,49.5453-57.6501,16.4891-19.9029,32.6306-40.0908,48.6154-60.4001,2.0132-2.5579,4.0231-5.1185,6.0302-7.6813,1.7739-2.265,2.7522-5.3616,1.0354-8.0246-1.6232-2.5177-4.5294-3.7773-7.4781-3.0431-.7868.1959-1.5993.3021-2.4002.4209-.6437.0955-1.2905.1723-1.9335.2716.07-.0108,2.12-.2811,1.1058-.1492-.2023.0263-.4045.0532-.6068.0795-.4316.0561-.8633.1113-1.2951.166-4.3818.5543-8.7702,1.0575-13.1586,1.5567-11.4071,1.2975-22.8708,2.3105-34.2487,3.8393-1.6817.226-3.3623.4595-5.043.6929-.7283.1011-1.4565.2026-2.1846.3044-.1336.0187-.2676.0355-.4009.0561-.8825.1367.9734-.1177.9706-.1173-.8497.1049-1.7007.1762-2.5288.3901-1.1945.3085-2.3777.6734-3.5639,1.0124-1.8022.5151-4.0751.8894-5.3376,2.3499l3.8015-1.5746c-2.1247.2689-4.119.7971-6.176,1.3662-.5968.1651-1.1932.3323-1.7872.5074-1.5314.4513-2.6647,1.0904-3.6949,2.4291l2.5961-1.9963c-.2327.044-.4651.0898-.6948.1478-2.275.5742-3.646,3.1166-3.034,5.3436.6345,2.3087,3.0612,3.61,5.3436,3.034.2297-.058.4621-.1038.6948-.1478l-3.3473-.4379c1.5091.9435,3.4992.6257,5.2076.607,1.6199-.0178,3.2852.1027,4.8921-.1007-.9045-.2447-1.809-.4893-2.7135-.734,2.0585,1.4286,6.1636.9555,8.6589,1.0483,2.4923.0927,5.0141-.3109,7.496-.5457,5.5786-.5279,11.142-1.2747,16.7075-1.9272,10.1549-1.1905,20.3161-2.3455,30.4545-3.6711,3.1995-.4183,6.597-.6462,9.7412-1.4506-2.1476-3.6892-4.2951-7.3785-6.4427-11.0677-15.4974,20.0508-31.2093,39.9342-47.2278,59.5718-15.6784,19.2205-31.5887,38.2802-48.0599,56.8287-8.0399,9.0539-16.1804,18.0188-24.439,26.8738-8.084,8.6679-16.1575,17.42-24.7314,25.6059-8.328,7.9511-16.7573,15.8067-25.2627,23.5677-2.1029,1.9189-4.1802,3.8821-6.3983,5.6688-.2543.2048-.5214.3973-.7691.6097.1306-.1121,1.5154-1.068.4232-.3506-.541.3554-1.0654.7291-1.6237,1.0584-.5381.3174-1.2047.5339-1.7097.8908.1723-.1218,1.7719-.6001.5337-.2591-.3478.0958-.6859.219-1.0371.3054-.2591.0637-.5218.1068-.7821.1629-.9589.2064,1.8777-.1427.8958-.1394-.5383.0018-1.0715.0029-1.6099-.0046-.9814-.0137,1.854.3536.9011.1304-.2579-.0604-.5194-.1044-.7762-.1716-.2547-.0666-.5018-.1589-.7546-.229-.8769-.2433,1.7057.9269.6289.2553-.2078-.1296-.4461-.2719-.665-.3893-1.1351-.609.7894.5272.68.5363-.161.0134-.3926-.46-.5447-.5381.9744.5.95,1.4275.5257.6734-.0526-.0935-.3096-.6834-.4218-.759.7041.4748.508,1.5014.2961.5565-.0679-.3026-.1406-.6207-.2193-.9224-.4142-1.5885.0848,1.8458.0383.1925-.7218-25.6319-.4429-51.212,1.4224-76.7969.2332-3.1985.4892-6.3953.7643-9.5905.2134-2.4786-1.604-5.7909-3.9101-6.8169-20.3602-9.0584-40.4869-18.639-60.3492-28.7429-9.8889-5.0305-19.7163-10.1869-29.5045-15.4104-2.2572-1.2046-4.6248-2.3113-6.7496-3.7428-.2221-.1496-.4571-.3628-.689-.4835-.0691-.036,1.3532,1.1041.7302.5678-.3795-.3267-.7696-.6392-1.1376-.9798-.3641-.3371-.7158-.6873-1.0535-1.0508-.1893-.2038-.3617-.4256-.5544-.6253-.6362-.6594.9372,1.3624.4602.6041-.244-.388-.5146-.754-.7377-1.1559-.022-.0396-.3548-.5614-.3413-.6689.0295-.2337.5535,1.8337.4464,1.0082-.0265-.2042-.1029-.4845-.1891-.6709-.2688-.5813.2619,1.1681.145,1.2206-.0899.0404.0424-.6371-.01-.6583.1906.0771-.5538,2.2565-.0742.9266.271-.7516-.5428,1.251-.457,1.0654.2814-.6087.6854-.4052-.6001.6676.1365-.1139.3021-.3023.4157-.438.5945-.7103-1.3626.7693-.514.4212,1.545-.6339-1.327.3259-.0161.0011.583-.1445,1.1578-.3029,1.7482-.4205,11.23-2.2364,22.5646-4.0444,33.8303-6.1001,11.2663-2.0558,22.5325-4.1115,33.7988-6.1673,22.6233-4.1281,45.2548-8.1871,67.8141-12.6496,11.2192-2.2193,22.4552-4.3698,33.6498-6.7076,11.2834-2.3564,22.5531-4.796,33.8534-7.0698,2.7816-.5597,5.5833-1.0302,8.3748-1.5384,1.9208-.3497,3.0074-2.6827,2.5233-4.4442-.564-2.0524-2.5103-2.8328-4.4442-2.5233h0Z" style="fill:#003033; stroke-width:0px;"/><path d="M688.544,190.9042c-12.4076,17.4779-24.4142,35.2405-36.0073,53.269,10.6619.9824,21.1478-2.6549,31.2374-6.2383,7.3234-2.601,14.6468-5.202,21.9702-7.8029-.4377-7.9174,1.4015-15.9477,5.2415-22.8853.6692-1.209,1.415-2.4382,1.5364-3.8147.226-2.5622-1.8633-4.8706-4.2737-5.7683-2.4104-.8977-5.0704-.7107-7.6348-.5114" style="fill:#003033; stroke-width:0px;"/><path d="M685.0567,187.5764c-2.0178.9165-3.4757,3.4889-4.8313,5.1928-1.3659,1.7168-2.7344,3.4319-4.0758,5.168-2.641,3.4184-5.0657,7.0249-7.5569,10.5536-4.7813,6.7725-9.4861,13.5894-14.0558,20.5065-2.596,3.9295-5.1714,7.8725-7.7284,11.8275-1.2717,1.967-1.157,4.7194,0,6.6966,1.2606,2.1542,3.3382,3.0751,5.7282,3.2857,9.5611.8423,19.1082-1.657,28.0907-4.6928,9.0075-3.0443,17.9472-6.3021,26.9141-9.4638,2.717-.958,5.1103-3.4273,4.9629-6.5185-.098-2.0551-.0647-4.1107.1279-6.1597.0275-.2924.058-.5845.0915-.8763.0917-.7473.068-.5835-.071.4915.1855-.2549.1584-1.0063.2114-1.304.1801-1.0117.3965-2.0172.6487-3.0134.1294-.5111,1.7077-5.9224,1.9198-5.8543-.0147-.0047-.6935,1.5531.0144.0027.2135-.4676.4361-.9309.6666-1.3903.4493-.8951.9603-1.757,1.4118-2.6505,1.4554-2.8801,2.2022-5.9069,1.4115-9.1056-.6042-2.4443-2.1274-4.7603-4.065-6.346-2.6211-2.1452-5.4642-3.1437-8.8063-3.5223-1.0556-.1196-2.1109-.1612-3.1733-.1084-2.0161.1001-3.5802.7311-5.3829,1.5464-2.1988.9944-3.2301,3.9416-2.9363,6.1282.3223,2.3988,2.0363,4.4488,4.4055,5.1132,1.2975.3639,2.5427.6258,3.9137.6356.4563.0032.9124-.0228,1.3691-.0115.3026.0065.6047.0211.9065.0438.5994.06.6002.055.0024-.0149-.5946-.0859-.597-.075-.0073.0329.2202.0473.4378.1045.6527.1715.2179.0606.4324.1314.6436.2126-1.0022-.4487-1.27-.5536-.8035-.3149.2225.1424,1.314.8879.3653.1484-.9516-.7418.0488.1291.2414.3041.5283.4799-1.0816-1.4052-.2271-.2423.255.4614.1511.1819-.3117-.8384.0802.2126.1451.4297.1948.6514l-.1433-1.1207c-.0017.6934.0574.4615.1775-.6958l-.089.4002c-.223.6831-.1373.5313.2571-.4554-.2273.1518-.4458.8822-.5721,1.1136-.2034.3729-.4173.74-.62,1.1133-.4203.7739-.8174,1.5606-1.1881,2.3595-3.421,7.3733-5.182,15.4071-4.7564,23.5562,1.6543-2.1728,3.3086-4.3457,4.9629-6.5185-8.8065,3.1502-17.5889,6.3811-26.4296,9.434-4.188,1.4462-8.4243,2.7849-12.7634,3.702-1.0747.2271-2.1548.4145-3.2379.5953-.7437.1091-.6182.0958.3766-.04-.3098.0399-.62.0769-.9306.111-.4654.0511-.9315.0958-1.3981.1334-2.3419.1885-4.6864.1857-7.0276-.0099,1.9094,3.3274,3.8188,6.6548,5.7282,9.9823,8.9218-13.9385,17.9863-27.8017,27.2133-41.5401,1.2644-1.8826,2.4209-3.8331,3.6089-5.7646.636-1.034,1.2734-2.067,1.9121-3.0993.2976-.4809.6117-.9551.8949-1.4445.6676-1.1537.9235-2.2526,1.0391-3.5766.1563-1.7916-1.107-3.6506-2.5926-4.5199-1.7428-1.0199-3.531-.7962-5.284,0h0Z" style="fill:#003033; stroke-width:0px;"/><path d="M906.3858,86.929c-14.4938,6.9239-28.9188,13.9916-43.2704,21.2057-14.3572,7.217-28.5239,14.8126-42.8848,22.0173-14.3811,7.2148-28.6551,14.6301-42.9177,22.0752-14.2617,7.4446-28.485,14.9671-42.5175,22.8365-6.9794,3.914-13.9392,7.863-20.8791,11.8468-3.5395,2.0318-7.0333,4.1419-10.5322,6.2428-3.418,2.0524-6.9829,3.9772-10.202,6.3327-1.9252,1.4088-3.6983,2.9987-5.4996,4.5593-2.2648,1.9623-2.1837,5.689-.4708,7.9061.7687.995,1.8669,1.8707,3.1278,2.1578,1.6896.3848,3.0618.0608,4.6398-.607.4459-.1887.8917-.3773,1.3377-.5658.223-.0942.446-.1884.669-.2826.6851-.2895-.42.1778-.4492.1896,1.3462-.5393,2.6886-1.099,3.9719-1.7746,1.7726-.9331,3.4413-2.0398,5.1373-3.1043,3.3903-2.128,6.7859-4.2474,10.1868-6.3584,6.87-4.2643,13.6619-8.6552,20.5133-12.9498,13.5603-8.5,27.1293-16.9871,40.7608-25.3726,13.6831-8.4173,27.5382-16.5641,41.435-24.6229,13.8175-8.0128,27.9579-15.4775,42.0921-22.9147,14.2011-7.4724,28.4778-14.8013,42.8272-21.9849,1.7841-.8932,3.5694-1.7839,5.3557-2.6727,1.1643-.5794,1.4892-2.2265.8641-3.2953-.7021-1.2003-2.1173-1.4268-3.2953-.8641h0Z" style="fill:#003033; stroke-width:0px;"/><path d="M740.1851,183.2007c2.9714,10.1222,5.3559,20.4127,7.1151,30.8148,1.7391,10.2837,2.5554,20.5892,3.391,30.972.2308,2.868.5488,5.7445,1.1165,8.5672.5716,2.8417,1.4491,6.1497,3.3743,8.3636.8665.9964,2.5548,1.1104,3.6484.4708,1.2302-.7195,1.606-2.0678,1.3836-3.4-.1931-1.1566-.7313-2.2213-1.0966-3.3356-.3889-1.1866-.6991-2.3983-.991-3.6119-.5408-2.2488-.8972-4.5352-1.1603-6.8315-.5871-5.1241-1.0388-10.2564-1.73-15.3693-1.3998-10.3554-3.3991-20.626-6.001-30.7467-1.4719-5.7252-3.14-11.3981-4.9856-17.0138-.841-2.559-4.8343-1.5023-4.0644,1.1205h0Z" style="fill:#003033; stroke-width:0px;"/><path d="M771.2658,164.0243c3.7061,7.4354,7.0606,15.1144,9.9664,22.8981,2.9724,7.9621,5.274,16.091,7.3065,24.336.5614,2.2772,1.0811,4.5647,1.5577,6.8611.2306,1.1109.4513,2.2239.662,3.3387.2729,1.444.3303,2.9114,1.4567,3.9823,1.167,1.1096,3.2966,1.001,4.0993-.5282,1.0704-2.0394.0909-4.8332-.3049-7.0139-.3923-2.1611-.8221-4.3154-1.2888-6.4616-.917-4.2166-2.0718-8.3782-3.3428-12.5012-2.5463-8.2599-5.6572-16.3451-9.2636-24.1998-2.0466-4.4573-4.4862-8.7529-6.9862-12.9693-1.4806-2.4971-5.1383-.3023-3.8623,2.2576h0Z" style="fill:#003033; stroke-width:0px;"/><path d="M806.9531,146.5357c2.3222,6.9423,6.2173,13.0133,9.5841,19.4615,1.5463,2.9615,2.9415,5.9933,3.9432,9.1856.5333,1.6993.9735,3.4394,1.2411,5.2015.2572,1.693.0013,4.0403,1.0039,5.4565,1.2599,1.7795,3.5719,1.8015,4.8279,0,1.1596-1.6632.6161-4.3585.3309-6.2398-.2671-1.7622-.6764-3.4974-1.2047-5.1994-1.1205-3.6093-2.7099-7.0834-4.4794-10.4171-3.4557-6.5103-7.64-12.6542-10.7663-19.3378-1.1727-2.507-5.3594-.7376-4.4808,1.8891h0Z" style="fill:#003033; stroke-width:0px;"/><path d="M844.0909,126.4643c1.1175,3.7089,3.1013,7.1176,4.8248,10.5794.8524,1.7122,1.7898,3.3788,2.7078,5.0565l1.2845,2.3475c.5709,1.0435,1.0079,2.1625,2.1181,2.7379,1.6734.8673,3.3052-.2395,3.4947-2.0054.1297-1.2078-.6581-2.2833-1.1969-3.3136l-1.2411-2.3729c-.8863-1.6947-1.7526-3.3995-2.7041-5.0587-.9505-1.6575-1.901-3.315-2.8515-4.9725-.4429-.7723-.8654-1.5616-1.3307-2.3205-.5547-.9047-1.2686-1.7003-1.9427-2.5188-1.2271-1.4899-3.683.1151-3.163,1.8412h0Z" style="fill:#003033; stroke-width:0px;"/><path d="M870.9045,116.2754c.4542.2476.8852.5283,1.2975.8406l-.4891-.3779c.9754.7546,1.9102,1.5788,2.6677,2.5565l-.435-.563c.407.5363.7658,1.1063,1.0646,1.7099.1464.2957.2902.5898.4418.8828.0788.1524.1428.3151.2254.4651.1785.3243.4606.6025.691.8941l-.4384-.5674c.1657.2146.3233.4344.4727.6606.6003.9089,1.7629,1.523,2.8657,1.1662,1.1171-.3615,1.7855-1.2857,1.863-2.4469.0881-1.3197-.1591-2.6219-.8897-3.7516-.5891-.911-1.283-1.7851-2.077-2.5276-.7598-.7106-1.619-1.4062-2.5448-1.8915-.9399-.4927-2.0118-.8147-3.0584-.9805-.564-.0893-1.1499-.1102-1.6571.2168-.3994.2575-.6943.5887-.8799,1.0283-.4023.9533-.0655,2.17.8799,2.6854h0Z" style="fill:#003033; stroke-width:0px;"/></svg>