<?xml version="1.0" encoding="UTF-8"?><svg id="ARTWORK" xmlns="http://www.w3.org/2000/svg" viewBox="0 0 1000 1000"><path d="M196.0255,623.6364c-71.2954,0-133.1994,40.076-164.5002,98.9148-4.2031,7.9009-6.5161,16.745-6.5248,25.6943,0,.046,0,.0921,0,.1381,0,102.869,83.3911,186.2601,186.2601,186.2601,71.2953,0,133.1999-40.0783,164.5003-98.9186,4.2027-7.9005,6.5161-16.7441,6.5247-25.6928,0-.0455,0-.0909,0-.1364,0-102.8684-83.3923-186.2595-186.2601-186.2595Z" style="fill:#7e96fc; stroke-width:0px;"/><path d="M196.0255,617.8759c-18.6706.027-37.4115,2.7012-55.2951,8.0877-17.2612,5.199-33.8583,12.8598-48.9711,22.6897-14.9388,9.7167-28.5966,21.4862-40.2978,34.9313-5.9595,6.8476-11.4737,14.1153-16.4362,21.7171-5.3513,8.1974-10.6154,16.8796-13.3845,26.3302-2.8191,9.6211-2.6401,19.6229-1.9695,29.525.5935,8.763,1.7698,17.5109,3.5222,26.1176,3.346,16.4338,8.9707,32.3936,16.4852,47.3823,7.3816,14.7237,16.7573,28.4407,27.6358,40.8017,10.8472,12.3255,23.3424,23.1969,36.9475,32.3821,13.7467,9.2808,28.7522,16.6905,44.4201,22.1235,16.1247,5.5914,33.0299,8.8956,50.0537,10.0259,18.4399,1.2243,37.0977-.2772,55.1252-4.337,17.6916-3.9841,34.8518-10.5987,50.6955-19.4169,15.5789-8.6707,29.9944-19.6013,42.5845-32.2239,12.5922-12.6247,23.4894-27.0678,32.1239-42.6703,5.4452-9.8394,8.7827-20.3728,8.781-31.6984-.0014-8.9057-.7063-17.7739-1.9113-26.5938-2.2941-16.7913-6.9388-33.0829-13.5585-48.6712-6.4753-15.2483-14.9974-29.4491-25.1465-42.528-10.0936-13.0074-21.8591-24.5077-34.8954-34.5457-13.1336-10.1129-27.5335-18.3088-42.8051-24.7244-15.6474-6.5735-32.0642-10.8345-48.8758-13.0641-8.2313-1.0917-16.5248-1.6293-24.8277-1.6403-3.0133-.004-5.8997,2.6524-5.7605,5.7605.1399,3.1245,2.531,5.7562,5.7605,5.7605,4.1784.0055,8.3554.1376,12.5248.4145,2.1451.1424,4.2879.3217,6.4269.5378.9825.0993,1.9642.2064,2.945.3212.4893.0573.9784.1165,1.4673.1777.2441.0306.488.0641.7323.0933.8863.1058-.9524-.1354-.0694-.011,8.0297,1.1305,15.98,2.7275,23.8019,4.8717,3.9341,1.0785,7.8326,2.2871,11.6867,3.6236,1.8793.6517,3.7481,1.3338,5.6054,2.0458.8895.341,1.7763.6888,2.6604,1.0435.4416.1772.8825.356,1.3227.5366.3741.1534,1.6435.6847.5985.2424,7.3312,3.103,14.4604,6.686,21.331,10.7068,3.3831,1.9799,6.7036,4.0666,9.9551,6.2558,1.6227,1.0926,3.2283,2.2105,4.8159,3.3535.7615.5482,1.5188,1.1022,2.2719,1.6618.3764.2797.7518.5609,1.1262.8434.2178.1644,1.3789,1.0473.908.6875-.5115-.3907.5443.4246.7125.5565.3687.2894.7363.5801,1.1029.8722.7939.6328,1.5828,1.2719,2.3664,1.9175,1.5664,1.2907,3.1119,2.6068,4.6355,3.9477,2.9287,2.5774,5.7769,5.2464,8.5389,8.0016,5.5875,5.5736,10.774,11.5084,15.647,17.7135.403.5131-.1446-.1851-.1846-.2381.1412.1871.2853.3721.4268.559.2829.374.5665.7475.8476,1.1229.6093.8135,1.2121,1.6319,1.808,2.4553,1.1469,1.5846,2.2688,3.1872,3.3654,4.807,2.1972,3.2456,4.2921,6.5604,6.2803,9.9381,4.0395,6.8626,7.62,13.9826,10.7594,21.2999.4421,1.0305-.269-.6619.1565.3762.1804.4401.3627.8794.5415,1.3202.3878.956.7675,1.9153,1.1393,2.8777.7166,1.855,1.4034,3.7215,2.0598,5.5986,1.346,3.8495,2.5645,7.7437,3.6529,11.6738,2.1622,7.8075,3.8098,15.7568,4.9324,23.7799.034.2432.0677.4865.1008.7299-.0094-.0692-.1255-.9923-.0444-.3128.0583.4888.1242.9768.1834,1.4655.1286,1.0614.2482,2.1238.3585,3.1872.2217,2.1373.4065,4.2785.5546,6.4221.2877,4.1654.4388,8.3411.4474,12.5165.0109,5.308-.4785,9.0378-1.9886,14.1913-.7331,2.502-1.584,4.7854-2.4645,6.6642-1.0239,2.1847-2.1977,4.2991-3.3801,6.4012-4.1808,7.4333-8.8729,14.5784-14.0302,21.3707-.1414.1863-.9491,1.2348-.6371.8343s-.5046.6408-.6495.8242c-.685.8674-1.3776,1.7288-2.0779,2.5838-1.3999,1.7094-2.8301,3.394-4.2896,5.0528-2.8053,3.1883-5.719,6.2812-8.7343,9.2716-3.0154,2.9905-6.1325,5.8785-9.3441,8.6573-1.6067,1.3902-3.2372,2.7528-4.8902,4.0875-.7939.641-1.5948,1.2729-2.3972,1.9033-.5158.4052.0832-.0615.1578-.119-.2693.2079-.5398.4144-.8105.6204-.4739.3607-.9496.719-1.4269,1.0751-6.8368,5.1013-14.023,9.7337-21.4938,13.8512-3.8308,2.1114-7.7361,4.0876-11.7066,5.9229-.9371.4332-1.8779.8585-2.8221,1.276-.4726.2089-.9461.4159-1.4204.6208-.2373.1025-.4756.2027-.7126.3059-.8286.3612.7833-.3201-.0535.0228-1.9984.8191-3.9994,1.6281-6.0208,2.3895-8.242,3.1048-16.7061,5.6184-25.3065,7.5166-4.3198.9534-8.6738,1.7517-13.0507,2.3937-.5287.0775-1.058.1506-1.587.2258-.6808.0968.1079-.0153.2057-.0277-.2657.0335-.5312.0686-.7969.1021-1.1537.1456-2.3088.2805-3.465.4045-2.2351.2396-4.4746.4387-6.7169.5976-8.7765.6221-17.5977.6299-26.3753.0237-2.0615-.1424-4.1206-.3189-6.1763-.5294-.9821-.1006-1.9634-.2089-2.9439-.325-.4891-.0579-.978-.1178-1.4667-.1796-.2441-.0309-.4879-.0638-.7321-.0939.5182.0639.691.0963.07.0092-4.1124-.5768-8.2057-1.2775-12.2717-2.1221-7.8617-1.6329-15.6166-3.778-23.1995-6.4185-1.8782-.654-3.746-1.3382-5.6021-2.0525-.8889-.3421-1.7752-.691-2.6588-1.0468-.4413-.1777-.8819-.3571-1.3219-.5382-.2198-.0905-.4382-.185-.659-.2729-.8009-.3189.8527.3699.0618.0278-3.6989-1.5998-7.3603-3.2725-10.959-5.0881-7.0103-3.5369-13.7956-7.5192-20.3033-11.9128-1.6861-1.1383-3.3535-2.3042-5.0015-3.497-.76-.5501-1.5159-1.1059-2.2676-1.6674-.3757-.2807-.7504-.5627-1.124-.8462-.1867-.1417-.3711-.2869-.5594-.4263-.6833-.506.7205.5672.0518.0422-3.0717-2.4122-6.0901-4.8849-9.0192-7.4693-5.9094-5.2138-11.4895-10.8007-16.6959-16.7166-2.5791-2.9306-5.0694-5.9409-7.4581-9.0288.6125.7918.0228.0244-.2404-.3225-.2835-.3736-.5655-.7482-.8462-1.124-.6083-.8143-1.2098-1.6337-1.8047-2.4578-1.145-1.5861-2.2651-3.19-3.3597-4.8113-4.4376-6.573-8.4556-13.4293-12.019-20.5145-1.7756-3.5304-3.4144-7.1209-4.9819-10.7478-.2624-.607.0937.2191.1191.2813-.09-.22-.1833-.4387-.2735-.6587-.2106-.5135-.4217-1.0268-.629-1.5416-.3854-.9572-.7627-1.9177-1.1321-2.8813-.712-1.8573-1.3941-3.7261-2.0458-5.6054-2.631-7.5875-4.7664-15.3466-6.3893-23.2117-.8396-4.0689-1.5269-8.1636-2.106-12.2772-.0954-.6773.0341.2445.0426.3133-.0301-.2442-.063-.488-.0939-.7321-.0618-.4887-.1217-.9776-.1796-1.4667-.1258-1.0622-.2427-2.1255-.3502-3.1898-.2078-2.0565-.3814-4.1164-.521-6.1786-.2822-4.1667-.4303-8.3443-.4309-12.5207-.0002-1.1947.0263-2.3883.1001-3.5809.0394-.6362.0903-1.272.1525-1.9063.0311-.317.0661-.6337.1028-.9501.1212-1.044-.1098.6765.0486-.3621.3999-2.6224.9923-5.2151,1.7674-7.7521.3723-1.2186.7866-2.4248,1.2413-3.6151.4548-1.1907.6385-1.6139,1.315-3.0161.9929-2.0578,2.1092-4.0589,3.2318-6.0483,2.0983-3.7185,4.3246-7.3648,6.6732-10.9304,2.389-3.6269,4.9047-7.1704,7.5405-10.6221.1549-.2028.3098-.4056.4657-.6076-.0575.0745-.5242.6735-.1187.1578.3154-.4011.6298-.8029.9471-1.2025.6874-.8654,1.3823-1.7248,2.0849-2.5779,1.3505-1.6398,2.7291-3.2566,4.1346-4.8496,5.6756-6.4326,11.793-12.4749,18.2957-18.0701,1.6105-1.3858,3.2448-2.744,4.9016-4.0742.3978-.3194.7969-.6371,1.1973-.9532.1834-.1448,1.2253-.9611.8243-.6491s.6481-.4953.8344-.6367c.4744-.36.9504-.7179,1.4282-1.0734,3.4171-2.5423,6.9211-4.9678,10.5041-7.2704,7.2735-4.6743,14.8726-8.8415,22.7259-12.4581.9378-.4319,1.8792-.8559,2.8242-1.2721.4729-.2083.9467-.4146,1.4214-.6189.2374-.1022.4753-.2035.7129-.3053-.5302.2271-.3986.1663.0545-.0209,1.9962-.8246,4.0028-1.6224,6.025-2.3809,4.1471-1.5555,8.35-2.9619,12.5982-4.2152,8.4445-2.4914,17.0671-4.377,25.7801-5.6421.5289-.0768,1.0581-.1516,1.5877-.2235-.9991.1357.244-.028.5922-.0715,1.1543-.1439,2.3099-.2769,3.4666-.3992,2.1464-.227,4.2966-.4167,6.4495-.5693,4.4446-.315,8.8983-.4653,13.3539-.4718,3.0131-.0044,5.9-2.6465,5.7605-5.7605-.1396-3.1173-2.5312-5.7652-5.7605-5.7605Z" style="fill:#7e96fc; stroke-width:0px;"/><path d="M397.5198,748.3838c-.1437,58.5343-18.9159,122.9814-69.2018,157.8266-130.1097,95.5807-312.8143,3.6233-313.5587-157.8272,1.0543-166.0765,192.0909-256.3492,321.1938-151.9318,44.6456,35.8278,61.2441,96.811,61.5667,151.9324h0ZM397.5198,748.3838c.6096-48.6255-25.9935-93.3539-61.7962-124.4639-4.4072-3.7331-8.5063-7.752-12.8411-11.5612-115.2885-93.7911-286.8573-12.577-287.6413,136.0257.8758,148.6659,172.2656,229.8301,287.6265,136.0059,4.3385-3.8005,8.4217-7.838,12.7838-11.6147,35.6028-31.2395,62.4953-75.7488,61.8682-124.3918h0Z" style="fill:#003033; stroke-width:0px;"/><path d="M211.2598,633.998c4.1833,8.9627,7.6405,17.8718,10.4829,27.2013-.6141,21.9969-.0645,74.5277-.2423,97.148.0003,0-10.2404-10.2407-10.2404-10.2407,10.2577-.0151,48.2148.03,57.7954-.0166,1.3938-.1463,2.7798-.4609,4.1284.1561,0-.0001,1.376.4716,1.376.4716,8.3432,2.8501,16.5102,5.8425,24.7695,9.6299-8.2596,3.7876-16.4259,6.779-24.7695,9.6297,0,0-1.376.4717-1.376.4717-1.3414.6158-2.7398.302-4.1284.1559-.9172-.0329-1.8347-.0089-2.7519-.0165-7.029-.0173-47.1204.0125-55.0435,0-5.656,0-10.241-4.5849-10.241-10.2409v-93.262c-.1015-2.0132-.6393-3.8859.3113-5.8288,2.92-8.6161,5.9472-16.9183,9.9295-25.2586h0Z" style="fill:#003033; stroke-width:0px;"/><path d="M211.2598,611.3374c-4.2671-.6787-7.2891-1.3574-10.3433-2.0361-.3469-.085-.1104-.1697.0251-.2546.1389-.0847.0522-.1697.0774-.2544v-.509c.0019-3.3495-.0014-7.8533,0-11.1992,2.9436-.5938,7.3025-1.5711,10.2407-2.0363,2.9278.4643,7.3118,1.4389,10.241,2.0363.0007,3.3448-.0006,7.851,0,11.1992v.509c.0251.0847-.0615.1697.0774.2544.1355.085.3721.1697.0251.2546-3.0542.6787-6.0762,1.3574-10.3435,2.0361h0Z" style="fill:#003033; stroke-width:0px;"/><path d="M211.2598,901.72c-4.2671-.6787-7.2891-1.3574-10.3433-2.0361-.3469-.085-.1104-.1697.0251-.2546.1389-.0847.0522-.1697.0774-.2544v-.509c.0019-3.3495-.0014-7.8533,0-11.1992,2.9436-.5936,7.3024-1.5715,10.2407-2.0363,2.9279.4639,7.3118,1.4391,10.241,2.0363.0007,3.3448-.0006,7.851,0,11.1992v.509c.0251.0847-.0615.1697.0774.2544.1355.085.3721.1697.0251.2546-3.0542.6787-6.0762,1.3574-10.3435,2.0361h0Z" style="fill:#003033; stroke-width:0px;"/><path d="M142.7366,629.6982c-4.0349,1.5459-6.9912,2.469-9.9756,3.4082-.343.1001-.1804-.0918-.1055-.2329.0779-.1431-.0396-.1731-.0603-.259l-.2546-.4409c-1.6729-2.9018-3.9277-6.8005-5.5996-9.6987,2.2524-1.9861,5.5387-5.0122,7.8509-6.884,2.7676-1.0619,7.0515-2.4098,9.8869-3.357,1.673,2.8963,3.925,6.7994,5.5996,9.6987,0,0,.2546.4409.2546.4409.064.0608.0315.1777.1941.1816.1599.0059.4072-.0391.1489.208-2.3054,2.1147-4.5833,4.2136-7.9395,6.9351h0Z" style="fill:#003033; stroke-width:0px;"/><path d="M287.928,881.1768c-4.0349,1.5459-6.9915,2.469-9.9756,3.4084-.343.1001-.1807-.0918-.1057-.2332.0779-.1428-.0396-.1731-.0603-.259l-.2544-.4409c-1.6733-2.9016-3.928-6.8004-5.5996-9.6987,2.2523-1.986,5.5385-5.012,7.8506-6.8838,2.7676-1.0622,7.0518-2.4098,9.8872-3.3572,1.6731,2.8963,3.9247,6.7997,5.5996,9.699,0,0,.2544.4407.2544.4407.0642.061.0315.1777.1943.1819.1597.0056.407-.0391.1489.2078-2.3057,2.115-4.5833,4.2136-7.9395,6.9351h0Z" style="fill:#003033; stroke-width:0px;"/><path d="M92.5742,679.8606c-2.7214,3.3562-4.8203,5.634-6.9351,7.9395-.2471.2583-.2021.011-.208-.1489-.0039-.1626-.1206-.1301-.1816-.1941l-.4409-.2546c-2.8998-1.6764-6.8018-3.9255-9.6987-5.5996.9575-2.8461,2.2905-7.1098,3.357-9.887,1.8656-2.3037,4.9021-5.6128,6.884-7.8509,2.8971,1.6716,6.7987,3.9262,9.6987,5.5996l.4409.2546c.0859.0208.116.1382.259.0603.1414-.0752.333-.2375.2329.1055-.9392,2.9844-1.8623,5.9407-3.4082,9.9756h0Z" style="fill:#003033; stroke-width:0px;"/><path d="M344.053,825.052c-2.7214,3.3562-4.8203,5.6338-6.9351,7.9395-.2471.2581-.2024.0107-.208-.1489-.0039-.1628-.1208-.1301-.1816-.1943l-.4409-.2546c-2.8998-1.6763-6.8021-3.925-9.6987-5.5996.9577-2.8461,2.2903-7.1099,3.357-9.887,1.8657-2.3035,4.9019-5.6126,6.8838-7.8506,2.8972,1.6716,6.7989,3.926,9.699,5.5996,0,0,.4407.2544.4407.2544.0862.0208.1162.1382.2593.0603.1411-.075.333-.2375.2329.1055-.9395,2.9844-1.8625,5.9409-3.4082,9.9758h0Z" style="fill:#003033; stroke-width:0px;"/><path d="M74.2134,748.3838c-.6787,4.2673-1.3574,7.2893-2.0361,10.3435-.0847.3469-.1697.1104-.2544-.0251-.085-.1389-.1699-.0522-.2546-.0774h-.509c-3.3495-.0019-7.8533.0014-11.1992,0-.5937-2.9437-1.5713-7.3026-2.0361-10.241.464-2.9278,1.4387-7.3116,2.0361-10.2407,3.3448-.0007,7.851.0006,11.1992,0,0,0,.509,0,.509,0,.0847-.0251.1697.0615.2546-.0774.0847-.1355.1697-.3723.2544-.0251.6787,3.0542,1.3574,6.0762,2.0361,10.3433h0Z" style="fill:#003033; stroke-width:0px;"/><path d="M364.5959,748.3838c-.6787,4.2673-1.3574,7.2893-2.0361,10.3435-.085.3469-.1697.1104-.2546-.0251-.0847-.1389-.1697-.0522-.2544-.0774h-.509c-3.3495-.0019-7.8533.0014-11.1992,0-.5937-2.9437-1.5713-7.3026-2.0361-10.241.464-2.9278,1.4387-7.3116,2.0361-10.2407,3.3448-.0007,7.851.0006,11.1992,0,0,0,.509,0,.509,0,.0847-.0251.1697.0615.2544-.0774.085-.1355.1697-.3723.2546-.0251.6787,3.0542,1.3574,6.0762,2.0361,10.3433h0Z" style="fill:#003033; stroke-width:0px;"/><path d="M92.5742,816.907c1.5459,4.0352,2.469,6.9915,3.4082,9.9758.1001.343-.0916.1804-.2329.1055-.1431-.0779-.1731.0396-.259.0603l-.4409.2546c-2.9017,1.673-6.8005,3.9276-9.6987,5.5996-1.9861-2.2524-5.0122-5.5387-6.884-7.8509-1.0619-2.7676-2.4098-7.0515-3.357-9.8869,2.8963-1.673,6.7994-3.925,9.6987-5.5996l.4409-.2546c.061-.064.1777-.0315.1816-.1941.0059-.1599-.0391-.4072.208-.1492,2.1147,2.3057,4.2136,4.5833,6.9351,7.9395h0Z" style="fill:#003033; stroke-width:0px;"/><path d="M344.053,671.7158c1.5457,4.0349,2.4688,6.9912,3.4082,9.9756.1001.343-.0918.1807-.2329.1057-.1431-.0779-.1731.0396-.2593.0603l-.4407.2544c-2.9018,1.673-6.8005,3.928-9.699,5.5996-1.986-2.2524-5.0121-5.5385-6.8838-7.8509-1.0623-2.7674-2.4097-7.0516-3.357-9.8869,2.8962-1.6731,6.7993-3.9251,9.6987-5.5996l.4409-.2544c.0608-.0642.1777-.0315.1816-.1943.0056-.1599-.0391-.4072.208-.1489,2.1147,2.3057,4.2136,4.5833,6.9351,7.9395h0Z" style="fill:#003033; stroke-width:0px;"/><path d="M142.7366,867.0696c3.3562,2.7214,5.634,4.8201,7.9395,6.9351.2583.2471.011.2021-.1489.2078-.1626.0042-.1301.1208-.1941.1819l-.2546.4409c-1.6764,2.8998-3.9255,6.8018-5.5996,9.6987-2.8462-.9576-7.1098-2.2906-9.887-3.3572-2.3035-1.8658-5.6128-4.9019-7.8509-6.8838,1.6717-2.897,3.926-6.7988,5.5996-9.6987,0,0,.2546-.4409.2546-.4409.0208-.0859.1382-.1162.0603-.259-.075-.1414-.2375-.333.1055-.2329,2.9844.9392,5.9407,1.8623,9.9756,3.4082h0Z" style="fill:#003033; stroke-width:0px;"/><path d="M287.928,615.5908c3.3562,2.7214,5.6338,4.8203,7.9395,6.9351.2581.2471.0107.2021-.1489.208-.1628.0039-.1301.1208-.1943.1816l-.2544.4409c-1.6769,2.8995-3.9254,6.8019-5.5996,9.6987-2.8462-.9575-7.11-2.2906-9.8872-3.357-2.3035-1.8657-5.6126-4.9019-7.8506-6.8838,1.6716-2.8972,3.926-6.7989,5.5996-9.699l.2544-.4407c.0208-.0862.1382-.1162.0603-.2593-.075-.1411-.2373-.333.1057-.2329,2.9841.9392,5.9407,1.8623,9.9756,3.4082h0Z" style="fill:#003033; stroke-width:0px;"/><path d="M236.1724,534.1033c-5.0325-72.3598-9.6241-154.216-13.5551-226.7209-.6769-9.7285-.1252-20.1264,6.5831-28.3376,5.7103-7.5141,15.4967-11.9092,23.0852-14.9897,7.713-3.2203,19.7719-8.4388,27.597-11.9564,73.2068-32.6985,143.9707-70.9568,211.5316-114.1333,28.8395-18.5177,57.2985-32.9717,92.6791-24.0806,10.7331,2.5118,20.675,6.3131,30.1779,10.1901,48.0938,20.1043,242.503,101.1615,293.3293,122.478,27.1223,11.634,46.1072,25.6183,45.992,58.0449,2.1379,91.0908,5.9598,219.3832,7.6802,310.5302-.3226,17.3046-3.1487,36.3059-16.2646,49.3169-8.5,8.7925-21.6507,12.817-33.0616,14.3489-125.141,16.2619-251.8667,29.0393-378.3703,22.5856-35.4634-.8617-86.086-2.0172-121.1035-3.189,20.1465-1.4369,40.2964-2.6935,60.4443-4.0456,145.4599-9.1768,291.3743-15.8618,435.9706-35.604,4.6241-.6983,8.9322-1.5938,12.6031-2.9917,21.4481-7.7977,19.3916-36.4483,19.1272-55.4772-2.5851-87.5893-4.9136-214.3312-7.9019-301.6669-.607-7.9377-3.7804-14.3002-9.9064-19.6471-6.6024-5.754-14.9827-9.788-23.3168-13.3966-51.1914-21.4745-244.5991-102.1183-292.9739-122.3287-29.0351-12.0296-49.7445-16.8208-78.9571-2.2535-14.6622,7.0742-30.304,17.9702-44.4853,26.6332-66.817,41.4635-136.6783,78.101-208.7621,109.5365-4.656,2.0035-9.3283,4.0308-13.9382,6.0904-6.1337,2.7897-10.9639,4.8754-14.7944,9.1402-.2127.2526-.4312.5001-.5904.7599l-.2744.3774-.2219.3918c-2.1581,3.8591-2.1267,8.5482-2.2705,13.3494-.2492,9.5775-.7086,35.4891-.9545,45.4048-1.039,56.2585-3.2591,125.6967-5.0978,181.6404h0Z" style="fill:#7e96fc; stroke-width:0px;"/><path d="M899.7873,254.3615c-94.3445-39.3922-188.6903-78.7838-283.0361-118.1754-18.5091-7.7282-37.7821-15.6001-57.8201-14.6888-24.6734,1.1226-46.5616,15.2888-67.4147,28.5275-74.7453,47.451-153.3872,88.7647-234.8719,123.3883-8.4507,3.5903-17.6203,7.7357-21.6844,15.9689-.7451,1.5108-1.2464,3.1003-1.6289,4.7235,118.953,89.3385,241.8913,173.3709,368.4186,251.6134,3.3315,2.0602,6.9369,4.1904,10.8485,3.9991,4.4066-.215,8.0732-3.3009,11.371-6.2305,30.1627-26.783,60.3228-53.5666,90.4855-80.3496,71.5763-63.5593,143.2501-127.2962,209.1309-196.676-7.2694-4.9423-15.7264-8.7301-23.7983-12.1004Z" style="fill:#003033; stroke-width:0px;"/><path d="M899.7874,254.3616c-60.3245-25.7283-123.4773-43.9929-185.0001-66.465-10.9126-3.8197-21.5623-8.2939-32.1163-12.9999-19.5596-8.4848-44.172-18.4003-63.9099-26.7739-19.4348-8.0876-41.3161-18.0878-61.6412-16.2114-21.4456,1.8993-40.2371,14.2711-58.3264,25.6239-58.8347,37.397-120.0354,71.1244-183.1648,100.7103-17.4232,8.1975-35.3074,16.1689-53.0284,23.7522-6.9567,3.1716-14.4637,5.4598-18.269,11.5928.0003.0002-.1757.3039-.1757.3039-.3633.8375-.6365,1.5362-.8564,2.5601,0,0-3.818-10.5376-3.818-10.5376,120.3897,89.7551,244.1706,176.1305,372.6897,253.5519,1.8865-.5071,5.2816-4.0174,7.1023-5.5068,48.602-43.3749,100.571-88.9247,148.7776-132.4282,23.1897-22.0199,48.8188-41.5602,73.3618-62.0285,28.315-23.2502,56.294-47.0579,81.9852-73.2218.0001.0001.0423.3922.0423.3922-1.8174-1.2769-3.6958-2.4702-5.6135-3.5986-5.7559-3.406-11.8929-6.0992-18.0393-8.7156h0ZM899.7874,254.3616c6.1866,2.5366,12.3106,5.2527,18.1924,8.4456,1.9583,1.072,3.8818,2.2119,5.7512,3.4407.1179.0776.1506.2358.0732.3538-37.2673,40.4163-73.0659,82.78-111.8792,121.9206-5.7931,5.8913-13.6925,13.8235-19.7655,19.2046-5.9327,5.1784-14.6595,12.8814-20.6131,18.2515-46.8934,41.8719-97.1408,86.6165-144.4174,128.2276-5.7997,4.7712-14.377,7.5227-22.3517,4.481-3.5283-1.2397-6.06-2.8276-8.1369-4.0876-126.8739-78.4875-250.1869-162.7179-369.4675-252.3115-6.3027-4.8342-4.0705-12.4458-.8466-18.4597,3.547-6.9111,10.7954-12.3685,16.9704-15.5097,6.4906-3.4152,15.2806-6.7586,21.8076-9.7031,42.0942-18.3097,83.401-38.4186,123.7815-60.2487,26.911-14.5676,53.4274-29.8691,79.4656-45.9455,13.3743-8.1116,25.8925-16.6465,39.6467-24.4747,22.8921-13.1545,46.7764-20.6326,73.3045-14.6691,15.7388,3.2287,30.7899,9.9071,45.3501,15.945,10.5949,4.4991,32.0271,13.318,42.6277,17.7985,14.1378,6.1083,28.5996,11.4366,42.6969,17.6329,62.9883,29.04,123.5258,63.4433,187.8102,89.7077h0Z" style="fill:#003033; stroke-width:0px;"/><path d="M357.1495,587.71c1.6271-1.5471,3.2125-3.155,4.9489-4.5786,1.7458-1.4313,3.4756-2.8636,5.155-4.3726,3.3452-3.0058,6.7015-5.9967,9.9828-9.0723,6.5572-6.1462,13.1144-12.2923,19.6716-18.4385,13.1145-12.2925,26.2752-24.5231,39.0508-37.1694,1.7725-1.7545,3.5919-3.4711,5.2679-5.3183,1.9534-2.1529,3.4799-4.6168,5.089-7.0275,1.3961-2.0915,2.6627-4.2477,4.1492-6.2771,1.6038-2.1897,3.1509-4.1189,3.7519-6.8325.4897-2.211-1.3859-4.2301-3.6538-3.6538-1.1414.2901-2.2007.6282-3.2189,1.2457-1.1447.6942-2.1801,1.6627-3.2365,2.4895-.8458.6619-1.6678,1.4376-2.5734,2.014.6349-.4041-.3806.177-.5706.2988-.5408.3465-1.0775.6987-1.605,1.0646-1.7842,1.2377-3.5352,2.527-5.3018,3.7898-2.2267,1.5916-4.0598,3.4591-5.9122,5.4525-6.1212,6.587-12.2564,13.1619-18.1966,19.9135-11.8912,13.5155-23.7824,27.031-35.6737,40.5465-3.3072,3.759-6.5645,7.5526-9.7922,11.3801-1.6974,2.0128-3.3611,4.0354-4.9662,6.1228-1.559,2.0275-3.2728,3.9056-4.9756,5.8134-1.5753,1.765.8757,4.258,2.6095,2.6095h0Z" style="fill:#7e96fc; stroke-width:0px;"/><path d="M879.4248,592.966c-19.2811-13.3912-38.2034-27.2846-57.1999-41.076-19.0241-13.8113-38.0503-27.6196-57.08-41.4231-10.6524-7.7269-21.4508-15.2218-32.2755-22.7049-3.2043-2.2151-8.3835-.6979-10.1597,2.664-1.9717,3.7318-.7955,7.8581,2.664,10.1597,9.7541,6.4893,19.4806,13.0085,29.3804,19.2738,9.8901,6.2592,19.7803,12.5184,29.6704,18.7776,19.7765,12.5161,39.5648,25.0137,59.3387,37.5339,11.0728,7.0109,22.0993,14.0671,33.0268,21.3027,1.1758.7786,2.8879.232,3.5713-.9364.7595-1.2986.2247-2.7649-.9364-3.5713h0Z" style="fill:#7e96fc; stroke-width:0px;"/><path d="M812.2634,264.1236c-152.5522,6.2555-304.913,17.1803-456.7976,32.7529.345,28.9169.6901,57.8338,1.0338,86.7507,80.1283,56.4343,161.893,110.5447,245.2503,162.0917,3.3315,2.0602,6.9369,4.1904,10.8485,3.9991,4.4066-.215,8.0732-3.3009,11.371-6.2305,30.1627-26.783,60.3228-53.5666,90.4855-80.3496,37.3483-33.166,74.7028-66.4015,111.2685-100.4395-1.7814-33.1567-6.2193-66.1677-13.4599-98.5749Z" style="fill:#7e96fc; stroke-width:0px;"/><path d="M812.2634,264.1235c-51.9399,6.2976-104.6364,12.5732-156.591,18.558-23.7844,1.3177-47.5664,2.772-71.326,4.5395-76.0405,5.4521-151.9978,12.0673-227.8362,19.843l9.1956-10.3096,1.0339,86.751-4.3433-8.2507c80.1574,56.4637,162.0687,110.6409,245.4734,162.2046,1.5231.9591,3.0315,1.7831,4.1985,2.0236.4018-.0477.8682-.3312,1.7378-.8994,3.452-2.6051,9.5404-8.3236,12.9549-11.2703,45.1156-40.4283,99.9685-88.003,144.3473-128.8313,12.8067-11.1671,36.6632-29.8613,49.88-40.8697.0002.0003-2.204,5.4593-2.204,5.4593.3557-33.0796-1.8689-66.1708-6.521-98.9478h0ZM812.2634,264.1235c9.8465,31.9885,16.5012,64.9516,20.3987,98.2021.2552,2.185-.7011,4.0699-2.2045,5.459-12.1451,12.9485-26.1084,27.1224-38.595,39.9084-8.6497,8.2997-58.8896,52.4824-68.7956,61.4928-22.0407,19.5594-68.013,60.4035-89.5974,79.5612-5.3461,4.8082-11.1177,10.2126-18.9571,11.0771-6.2191.8456-12.5791-1.8527-17.2929-4.8699,0,.0001-15.7557-9.7787-15.7557-9.7787-36.4916-22.7803-72.9516-46.1483-108.8081-69.8702-41.0948-27.1635-81.781-54.9421-122.0532-83.3054-2.7759-1.9551-4.2852-5.0981-4.3435-8.2512l-1.0337-86.75c-.0637-5.3293,3.9995-9.7605,9.1958-10.3098,99.7027-10.3543,199.9361-18.1845,299.9544-24.8848,52.3693-.5139,105.589.2678,157.8877,2.3194h0Z" style="fill:#7e96fc; stroke-width:0px;"/><path d="M449.5541,370.0116c14.2931.5528,28.8231,1.0184,42.8379-2.3733,11.6859-2.8281,23.2484-8.7812,31.3084-17.8549,4.6457-5.2299,8.2465-11.3006,10.0517-18.0937.8753-3.2938-1.0889-7.1141-4.5106-7.9442-4.5069-1.0934-8.9276-.6682-13.1551,1.1741-3.7469,1.6329-6.7842,4.3672-9.2039,7.6182-4.879,6.5554-5.0258,15.3941-1.2371,22.4781,3.4516,6.4538,10.0277,10.8671,16.9038,12.9558,7.4649,2.2676,15.4077,1.3031,22.5297-1.6532,8.7627-3.6373,15.949-9.5237,23.0548-15.6933-3.4969-1.4485-6.9939-2.897-10.4908-4.3454-.378,8.6604,5.9348,15.4326,13.5038,18.5408,7.9307,3.2567,16.8489,1.023,23.8857-3.3484,4.0785-2.5336,7.7391-5.7395,11.1929-9.0574h-8.5552c5.0457,5.7879,12.7475,7.828,20.1461,8.1805,3.3396.1591,6.7079-.0049,10.0231-.4221,4.538-.5711,9.0882-1.1093,13.581-1.9666,17.4113-3.3226,34.7139-5.2967,52.4349-7.7287,9.8286-1.3489,19.5883-2.9584,29.3657-4.6381,2.1544-.3701,1.6462-3.8886-.5144-3.8012-8.6723.3508-17.3303.6815-25.9862,1.3253-8.4833.631-16.9637,1.2992-25.4448,1.9596-8.6506.6736-17.3081,1.4241-25.9862,1.6152-4.315.095-8.6036.1935-12.9067.5406-3.3727.2721-6.7509.5999-10.1312.7579-1.8756.0877-3.7574.1011-5.6318-.0192-.2642-.017-.5283-.0361-.7921-.0584-.2625-.0221-.5247-.0471-.7866-.0749-.6761-.0793-.5218-.0547.4629.0738-.788-.3064-1.826-.3045-2.6592-.5081-.8625-.2107-1.6916-.4949-2.5328-.7738-.6362-.2109-.1578-.3759.4174.1922-.287-.2835-.9722-.4573-1.3361-.6552-.3262-.1774-.6469-.3652-.9607-.5638-.2096-.1326-.416-.2699-.6193-.4119-.518-.3767-.4071-.2853.3326.2744-.0167-.1376-.7363-.635-.8536-.7452-.3744-.3519-.7245-.7247-1.0667-1.1076-2.1901-2.4499-6.3273-2.1945-8.5552,0-1.6121,1.5879-3.2659,3.1284-5.0141,4.5664-.3483.2865-.6933.5911-1.0616.8525,1.3045-.9257-.3512.2394-.592.4102-.8543.6059-1.73,1.1825-2.6299,1.7185-.89.5302-1.8032,1.0222-2.7407,1.4636-.2661.1254-.534.2466-.8039.3636.7653-.3206.8377-.3582.2172-.1127-.5565.1836-1.1018.393-1.6645.5597-.8789.2604-2.0857.7439-3.0062.674,1.4845.1126.3634-.0572-.0844-.0296-.4852.0299-.9716.0364-1.4574.02-.2461-.0083-1.7354-.2514-.6597-.0136,1.1154.2465-.4523-.0935-.6513-.1365-.8475-.1828-1.665-.4444-2.4816-.7309-.5999-.2362-.4616-.1742.4148.186-.2246-.1006-.447-.2058-.6672-.3155-.3841-.1915-.7604-.3974-1.1295-.6163-.3675-.218-.715-.4632-1.0753-.6917-.5146-.374-.398-.2769.3499.2913-.1874-.1501-.3712-.3044-.5516-.4628-.5814-.511-1.0971-1.3878-1.7235-1.7865.5777.7647.6828.8919.3151.3814-.0991-.1425-.1942-.2877-.2853-.4354-.2152-.3423-.3932-.701-.593-1.0514-.2699-.5759-.2064-.4093.1907.4999-.0831-.2129-.1594-.4281-.229-.6458-.0665-.2084-.1364-.8286-.2542-.9979.1211,1.0424.1484,1.2366.0818.5828-.0185-.232-.0292-.4644-.0319-.6971-.0056-.4782.0302-.951.0819-1.426.4773-4.3862-5.6871-8.0144-9.2471-5.3063-5.3199,4.0468-10.7464,8.0852-16.708,11.1516-.6689.3441-1.3452.6739-2.0293.9867l-.4102.1852c-.6715.2928-.5482.243.3698-.1495-.164.2118-.9948.3928-1.2494.4871-1.5354.569-3.107,1.0428-4.7061,1.3966-.7276.161-1.4863.2311-2.2079.409,1.8664-.4603.5409-.0751.0262-.0307-.299.0257-.5981.0459-.8978.0596-.6634.0304-1.3277.0297-1.991-.0009-.2424-.0112-.4849-.0264-.7269-.0454-.2427-.0191-.4851-.0419-.7271-.0686-.7362-.0884-.4848-.0544.7543.1019-1.1766-.3272-2.3953-.4713-3.5701-.8415-.6269-.1976-2.8628-1.282-.738-.191-.6501-.3338-1.3288-.6075-1.9737-.9558-1.0705-.5782-2.0265-1.2952-3.0437-1.9529,2.0045,1.296.0283-.038-.4647-.496-.5129-.4765-1.0048-.9746-1.4663-1.5012-.144-.1643-.2874-.3753-.4468-.5292,1.3856,1.3378.6641.887.2821.3345-.3232-.4675-.6238-.9511-.8974-1.4494-.1636-.2978-.3068-.6039-.4607-.9065-.5764-1.1333.4796,1.4528.2538.5964-.1878-.7121-.4647-1.3894-.6163-2.1159-.0457-.219-.065-.4591-.1233-.6726.5377,1.9689.1444,1.2034.1033.4981-.0346-.5938-.0032-1.1751.0077-1.7682.026-1.4126-.3563,1.7744-.0668.3968.0506-.2409.0959-.4817.154-.7208.0868-.3571.1886-.7105.3044-1.0592.0772-.2322.1604-.4622.2498-.6899-.4572,1.0478-.5713,1.3248-.3422.8309.3716-.7134.7657-1.3891,1.1861-2.0745.2709-.4417.7713-.7001-.4354.5216.3441-.3484.6321-.7616.9722-1.1175.5127-.5365,1.1332-.9706,1.6408-1.5026-1.1632,1.2192-.8866.674-.3617.3181.3585-.2431.7254-.4728,1.102-.6869.3227-.1835.6567-.3412.9838-.5157,1.0931-.583-1.5591.5287-.2973.1218.8006-.2582,1.6022-.5705,2.3535-.9366-1.8026.8783-.7985.3681-.2625.2191.3531-.0981.7114-.1637,1.0666-.2514,1.2694-.3135-1.5578.0868-.3264.0366.8679-.0353,1.7081-.0512,2.5747.0364l-6.2274-8.1749c-.3846,2.6001-1.0377,5.1414-1.99,7.5928l-.1425.3609c-.2431.5936-.1941.4792.1468-.3432.0248.0439-.3349.7408-.3233.7156-.2749.5927-.5657,1.1784-.8713,1.7559-.611,1.1546-1.279,2.2766-2.0133,3.357-.3676.5409-.7517,1.069-1.1399,1.595-.7689,1.0418.5421-.6442.0048-.0113-.2142.2523-.4168.515-.6294.7688-.8955,1.0687-1.8404,2.0956-2.8272,3.0805-.8957.8939-1.826,1.7525-2.7866,2.5762-.5065.4343-1.0236.8548-1.5441,1.2722-.7116.5706-.1021.076.0391-.029-.379.2819-.7572.5644-1.1412.8395-2.1923,1.5704-4.5032,2.9415-6.917,4.1429-.5388.2682-1.0817.5282-1.6287.7793-.3636.1669-.7296.3282-1.0959.4893.1643-.0723.7642-.3095-.0419.0172-1.5095.6118-3.0397,1.1686-4.5888,1.6721-6.3351,2.0593-12.8862,3.2342-19.4244,3.8623-7.5863.7288-15.2131.8509-22.8283.9609-4.065.0587-4.0465,6.1441,0,6.3006h0Z" style="fill:#003033; stroke-width:0px;"/><path d="M494.7976,417.8168c24.209-.8236,48.4019-2.1039,72.562-3.8497,24.0583-1.7385,48.0846-3.8633,72.0638-6.4798,6.7126-.7325,13.4121-1.5967,20.1088-2.4612,3.7241-.4807,7.4464-.9745,11.1679-1.4748,1.6375-.2202,3.2747-.4418,4.9117-.6659.8907-.1219,1.8215-.1869,2.7008-.371,1.1845-.248,2.3195-.8842,3.4263-1.3772,2.1766-.9695,3.3126-4.2201,2.6059-6.4038-.8363-2.5842-2.8655-3.8523-5.4679-4.1631-3.3575-.4009-6.854.5491-10.185,1.0763-3.0104.4765-6.0219.9457-9.0345,1.4076-5.862.8989-11.7281,1.7703-17.5983,2.6141-5.9446.8545-11.8796,1.7756-17.8248,2.6272-3.0126.4315-6.0262.8558-9.0409,1.2728-1.385.1916-2.7702.3816-4.1556.5701-.7334.0998-1.4669.1991-2.2005.2981-1.0271.1387-.339.0456-.1204.0163-.4918.0659-.9836.1317-1.4754.1972-23.9256,3.189-47.9094,5.9072-71.9422,8.1505-13.4882,1.259-26.9898,2.3725-40.5016,3.3457-1.5275.11-2.8352,1.2243-2.8352,2.8352,0,1.4958,1.2978,2.8876,2.8352,2.8352h0Z" style="fill:#003033; stroke-width:0px;"/><path d="M541.5196,463.0872c26.6814-2.0592,53.3014-5.0205,79.8212-8.5944,3.7528-.5057,7.5034-1.0283,11.2514-1.5687,1.7923-.2584,3.584-.5208,5.3752-.7872.4884-.0726.9777-.1412,1.4653-.2188l.4884-.0733c-.3344.0358-.2301.0291.3131-.0201.324-.0245.6478-.053.9716-.0797.3238-.0267.6477-.0535.9715-.0805-.4435-.1456-.3966-.1553.1409-.029,3.4165.6378,6.671-1.763,6.178-5.4316-.4605-3.4269-4.3196-5.3919-7.3606-3.6165-1.0134.5916.567-.0024-.6426.2623-.3172.0694-.6355.1671-.9487.2493-.797.2091-1.5863.3813-2.3961.5331-1.6925.3171-3.3856.6307-5.0794.9406-3.2259.5903-6.4542,1.1675-9.6848,1.7315-6.5405,1.1419-13.0904,2.2302-19.6489,3.2642-12.841,2.0245-25.7371,3.6868-38.65,5.1808-7.5142.8693-15.0366,1.6671-22.5656,2.3977-1.5966.1549-2.9703,1.2542-2.9703,2.9703,0,1.5116,1.362,3.0944,2.9703,2.9703h0Z" style="fill:#003033; stroke-width:0px;"/><path d="M272.4159,283.8834l-.5416-.0233-.2639-.0113-.1389-.006c-.0185-.0008-.037-.0017-.0555-.0024-.1801-.0094-.3589.013-.5361.0671-.1839-.0022-.3619.0232-.534.076l-.9117.3847c-.4448.2398-.8017.5675-1.0708.983-.2365.2381-.4001.5188-.4908.8421-.239.4548-.3485.945-.3287,1.4704l.1363,1.0146.3847.9117c.2398.4448.5675.8017.983,1.0708.3686.3373.8012.565,1.2979.6831.1721.0528.3501.0781.534.076.1727.0535.3468.0761.5222.0677.0232-.0007.0463-.002.0694-.003l.1389-.006.2639-.0113.5416-.0233c.5205.0196,1.006-.0889,1.4565-.3256.4687-.1525.8742-.413,1.2166-.7817.3686-.3424.6292-.7479.7817-1.2166.2367-.4505.3452-.936.3256-1.4565l-.135-1.005c-.1796-.6404-.5037-1.1965-.9722-1.6681l-.7651-.5911c-.5896-.342-1.2256-.514-1.908-.5161h0Z" style="fill:#7e96fc; stroke-width:0px;"/><path d="M287.5322,277.241l.1721.6747.086.3373c.0154.0605.0294.1216.0472.1814l.3129.7414.0554.0787.7204,1.0232c.196.3314.4598.5951.7911.7911.3439.1995.7149.2998,1.113.3011.3981-.0012.7691-.1016,1.113-.3011.3314-.196.5951-.4598.7911-.7911.2401-.3411.4803-.6821.7204-1.0232.2811-.3992.3836-.8766.5015-1.3389l.1721-.6747c.2931-1.1493.0205-2.5015-.8796-3.3278l-.6922-.5348c-.5335-.3094-1.1089-.4651-1.7263-.467-.4709-.0178-.9102.0804-1.3178.2946-.424.1379-.7909.3737-1.1007.7072-.8749.8749-1.1829,2.1384-.8796,3.3278h0Z" style="fill:#7e96fc; stroke-width:0px;"/><path d="M290.8304,302.2124c2.3166,0,2.3205-3.6003,0-3.6003-2.3166,0-2.3205,3.6003,0,3.6003h0Z" style="fill:#7e96fc; stroke-width:0px;"/><path d="M318.1793,272.7733c-.2283.045-.4566.0899-.6849.1349l-.3425.0675c-.3962.078-.7517.2701-1.0889.4805-.5004.2961-.8987.6943-1.1947,1.1947-.3013.5194-.4528,1.0797-.4547,1.6809.0019.6011.1534,1.1614.4547,1.6809.2961.5004.6943.8987,1.1947,1.1947.3371.2103.6938.4027,1.0889.4805l.3425.0675.6849.1349c.654.1758,1.308.1758,1.9621,0,.6252-.1753,1.168-.4917,1.6284-.949l.577-.7469c.3338-.5756.5018-1.1964.5038-1.8626.0192-.5081-.0868-.982-.3178-1.4218-.1488-.4575-.4032-.8534-.763-1.1876-.4605-.4574-1.0033-.7737-1.6284-.949-.654-.1758-1.308-.1758-1.9621,0h0Z" style="fill:#7e96fc; stroke-width:0px;"/><path d="M880.3232,786.8835c-27.7755-3.9053-57.8266-8.6453-85.5954-12.9615-2.1854-.3452-4.3834-.6391-6.5382-1.1-38.2499-10.2776-76.9272-19.1583-115.6052-27.7801,0,0,8.6594-2.0495,8.6594-2.0495.5536-.4066.9937-.981,1.3208-1.584.4057-.6734.5842-1.4407.656-1.9368.1055-1.0625-.0786-1.2087.0125-1.0164.116.4312.9224,1.8379,1.8083,2.7866l4.8567,5.3296c21.3813,23.2651,43.9547,45.4693,67.5694,66.4585,4.2693,3.7907,4.6033,10.3674.7419,14.5723,0,0-79.9468,87.2024-79.9468,87.2024l-.5623-14.4082c1.041.9182,2.1399,1.5581,3.5815,2.0146,3.5879,1.0774,7.8945.6425,11.8922-.2804,4.8988-1.0781,10.0542-3.1058,14.7565-5.1173,42.4121-17.9688,84.3909-37.515,124.4985-60.1901,7.7558-3.8793,15.934-6.9479,23.8078-10.6165,13.2032-5.7921,26.6165-11.9549,39.757-18.0198,3.9833-1.9475,11.2607-4.4125,9.9087-9.4175-.8509-2.2402-4.3633-4.3448-6.1387-1.8438.4595-1.541,2.3979-2.2722,3.9074-1.9079,2.8136.4727,5.3143,2.8975,5.3426,5.8925.0046,5.8052-5.7141,9.8655-9.5562,12.894-6.7849,5.302-14.0622,11.0062-20.9284,16.0979-9.4323,6.9999-18.9714,13.8653-28.646,20.5388-2.4099,1.6871-4.8147,3.389-7.3925,4.7769-33.6499,17.7463-67.5742,35.0343-102.4518,50.28-7.759,3.4654-16.3392,7.0817-24.1984,10.4083-16.0645,7.1124-37.4538,12.9808-52.1128-.5344-4.1176-3.8243-4.3712-10.2516-.5805-14.3883l.0183-.02,79.9468-87.2026.7466,14.5762c-25.9999-23.1083-50.7828-47.6762-74.1179-73.4793-4.3124-5.1831-7.4767-10.3493-6.8411-17.9518.6131-6.5114,7.0764-13.8334,14.0953-11.8652,38.9508,8.4891,77.6854,18.0727,116.39,27.5044,2.1219.6432,4.2002,1.4535,6.2913,2.2128,27.0066,9.8762,54.3385,20.5292,80.6467,32.1255h0Z" style="fill:#7e96fc; stroke-width:0px;"/><path d="M749.3143,820.0982c1.1561.94,2.1159,1.5676,3.6777,1.3329,1.2982-.1951,2.5919-.4262,3.8879-.6353,2.4309-.3922,4.8633-.7755,7.2971-1.1496,4.7867-.7358,9.5809-1.4184,14.3731-2.1167,9.4029-1.3702,18.8469-2.7956,28.3198-3.5686,19.3193-1.5765,38.6738-2.8077,58.0228-3.9495,5.4811-.3234,10.9649-.6011,16.4506-.8329,5.7606-.2435,11.5153-.2678,17.2038-1.3154,2.2626-.4167,3.6025-2.9863,3.3203-5.086-.3302-2.4577-2.2241-3.7328-4.5526-4.0193-4.9065-.6037-9.8228-.2477-14.7433-.0136-4.8312.2298-9.6608.4951-14.4881.7959-9.6718.6026-19.3072,1.3769-28.9354,2.478-9.9139,1.1338-19.7956,2.4394-29.6514,4.0008-9.532,1.5101-19.1016,2.7668-28.6459,4.2407-5.4218.8373-10.8294,1.7506-16.2298,2.7157-2.6593.4752-5.3166.9612-7.9718,1.4584-1.2875.2411-2.5745.4846-3.8611.7308-.8839.1691-1.773.2522-2.5032.8338-.5778.4603-.9157,1.0706-1.2803,1.7003-.4023.6949-.3634,1.8524.3096,2.3996h0Z" style="fill:#7e96fc; stroke-width:0px;"/><path d="M707.3127,878.3815c2.5277,3.3883,4.9885,6.8204,7.4451,10.2605,1.27,1.7785,2.6123,3.4946,3.9592,5.2153.6502.8307,1.3005,1.6614,1.9507,2.4921.799,1.0208,1.5384,2.197,2.9137,2.4425,1.5309.2733,3.076-.6491,3.0763-2.3434.0002-1.4868-.9068-2.4302-1.8396-3.4654l-2.1058-2.337c-1.4461-1.6049-2.8864-3.2054-4.402-4.745-2.9831-3.0305-5.9576-6.0637-8.8771-9.1556-1.0267-1.0873-3.0526.3866-2.1205,1.6361h0Z" style="fill:#7e96fc; stroke-width:0px;"/><path d="M723.4771,854.6883c2.9609,6.4833,7.5737,12.2689,12.4544,17.4275,2.4457,2.5849,5.102,4.9467,7.8988,7.1455,1.4664,1.1529,2.9575,2.274,4.4888,3.3394,1.4727,1.0247,3.043,2.361,4.84,2.6525.946.1535,1.8516-.0246,2.4599-.8387.5148-.6889.7387-1.8438.183-2.5991-.6763-.9192-1.2921-1.4785-2.2482-2.0855-.7501-.4762-1.4927-.9641-2.2272-1.464-1.2829-.8731-2.5459-1.7787-3.7759-2.7251-2.7605-2.1242-5.3682-4.4637-7.8866-6.8677-4.9966-4.7694-9.0967-10.2111-13.2337-15.7113-1.3194-1.7541-3.8792-.3011-2.9533,1.7263h0Z" style="fill:#7e96fc; stroke-width:0px;"/><path d="M746.7412,833.8156c3.8626,7.6535,10.5014,13.3501,17.0311,18.6823,3.5987,2.9387,7.2766,5.783,11.0254,8.5277,1.8858,1.3806,3.7907,2.7351,5.7141,4.0628,1.9052,1.3152,3.8546,2.9443,6.1589,3.4589,1.5744.3516,3.5039-1.4856,2.3379-3.0411-1.4669-1.9569-3.5901-3.1276-5.5862-4.4736-1.8072-1.2187-3.5986-2.4608-5.3735-3.7259-3.6357-2.5915-7.2028-5.2783-10.6889-8.0678-6.335-5.0692-12.8689-10.4038-16.6551-17.7401-1.3577-2.6308-5.2908-.3128-3.9637,2.3169h0Z" style="fill:#7e96fc; stroke-width:0px;"/><path d="M777.049,820.2676c7.0643,6.5873,14.1916,13.0917,21.3757,19.5482,3.5365,3.1783,7.0156,6.4404,10.6521,9.5039,1.6768,1.4126,3.3724,2.8092,5.1515,4.0922,1.8717,1.3498,3.7656,2.6728,6.1574,2.6573,1.43-.0093,2.7659-1.8086,1.7875-3.115-.741-.9895-1.4842-1.7302-2.5083-2.4319-.8196-.5616-1.6505-1.0966-2.4371-1.7061-1.5998-1.2394-3.0972-2.6123-4.5992-3.9666-3.4976-3.1537-7.1757-6.1238-10.7681-9.1691-7.2647-6.1585-14.5715-12.252-21.9475-18.2769-1.9788-1.6163-4.806,1.0532-2.864,2.864h0Z" style="fill:#7e96fc; stroke-width:0px;"/><path d="M823.4418,815.2457c4.5412,3.7559,8.9698,7.697,13.2836,11.7116,2.111,1.9646,4.1747,3.9802,6.1887,6.0443,1.0603,1.0867,2.1068,2.1869,3.1392,3.3002,1.0811,1.1659,2.0699,2.4293,3.3476,3.3805,2.1699,1.6155,4.8279-1.4673,3.5713-3.5713-.8026-1.3438-2.0679-2.4556-3.1487-3.5793-1.0522-1.094-2.1185-2.1744-3.1982-3.2412-2.1062-2.081-4.2641-4.1097-6.4706-6.084-4.5187-4.0431-9.2892-7.6782-14.3131-11.0708-1.8405-1.2428-4.1414,1.6695-2.3996,3.11h0Z" style="fill:#7e96fc; stroke-width:0px;"/><path d="M864.6781,813.0759c1.7826.6649,3.5652,1.3297,5.3478,1.9946.4307.135.8614.1543,1.2921.0579.4312-.0196.8328-.1477,1.2047-.3845l.6558-.5067c.316-.2935.5393-.6411.67-1.0428.2717-.6438.3846-1.4261.1633-2.1098l-.3266-.774c-.2881-.4869-.6756-.8744-1.1625-1.1625-1.7479-.7471-3.4958-1.4942-5.2437-2.2413-.5264-.3053-1.0943-.4589-1.7036-.4608l-.8973.1206c-.5718.1604-1.0683.4497-1.4894.868-.3291.3057-.5618.6678-.6979,1.0863-.2113.4022-.3082.8357-.2907,1.3004-.0175.4647.0794.8982.2907,1.3004.1361.4185.3688.7805.6979,1.0863.4211.4183.9176.7077,1.4894.868h0Z" style="fill:#7e96fc; stroke-width:0px;"/><path d="M670.5505,797.5618c-.0583,2.5224-.7646,5.1395-1.7725,7.2249-.5553,1.1491-1.1927,2.2573-1.8839,3.3297-.991,1.5376-1.6889,2.2984-2.5741,3.4901-.2146.2889-.4148.5883-.6324.8755-.4911.6482.6161-.7473-.2493.3132-.3925.4811-.7834.9629-1.1845,1.4369-.882,1.0423-1.7909,2.0618-2.7253,3.0574-1.6933,1.804-3.4699,3.5298-5.3197,5.1728-.9263.8228-1.8713,1.6255-2.8281,2.4125-.4537.3731-.9144.7372-1.3722,1.1051-.9908.796.5437-.4008-.0878.0702-.3643.2717-.725.5482-1.0909.8179-1.9891,1.4659-4.0424,2.8445-6.151,4.1326-2.2252,1.3593-4.512,2.6178-6.8503,3.7717-1.054.5201-2.1186,1.019-3.1927,1.4963-.2388.1061-.4793.2087-.7179.3152-1.2355.5511,1.1081-.4424-.1416.0613-.6028.243-1.2042.4889-1.8105.7232-4.7375,1.8309-9.6357,3.2443-14.6215,4.2135-1.2169.2366-2.4391.4457-3.6652.6283-.3135.0467-.6658.0529-.9693.1388,1.3205-.374.8755-.1128.43-.063-.7744.0866-1.5474.1788-2.3234.2518-2.4602.2313-4.9307.3509-7.4018.3574-2.4668.0065-4.9366-.0899-7.3889-.3648-.2363-.0265-.4725-.0608-.709-.0843,1.8694.1854,1.0754.1527.651.0855-.5873-.0931-1.1745-.1833-1.7594-.2913-1.1694-.216-2.3307-.4763-3.479-.7858-1.0831-.2919-2.1542-.6293-3.2071-1.0166-.5594-.2057-2.1002-1.0304-.1898-.0408-.5611-.2907-1.1549-.5236-1.7185-.8126-.9601-.4922-1.9018-1.0386-2.8054-1.6285-.5059-.3303-1.969-1.6264-.2682-.114-.4177-.3715-.8658-.7076-1.278-1.0869-.4113-.3785-.8071-.7746-1.1851-1.1863-.2333-.2541-1.3334-1.6132-.5471-.5989.8001,1.0321-.2675-.4253-.4413-.6991-.3536-.5573-.6761-1.1342-.9669-1.7265-.2485-.5063-.3722-1.3166.1268.3665-.0738-.2488-.1907-.4964-.2764-.7432-.2166-.6232-.4001-1.2591-.5492-1.9018-.0767-.3308-.4031-2.3281-.2242-1.0357.1768,1.2768.0164-.0527.0014-.2694-.0276-.3971-.044-.795-.0498-1.193-.0097-.6654.0131-1.332.0647-1.9955.0206-.2642.066-.5339.0765-.7975-.076,1.9084-.1432,1.0085-.0445.4499.2331-1.3199.5809-2.618,1.0365-3.8784.1118-.3093.2771-.6222.3611-.9383-.412,1.5496-.4582,1.0282-.2142.5576.3082-.5945.595-1.1926.9334-1.7716.2914-.4986.6005-.9865.9252-1.464.1801-.2649.3703-.522.554-.7843.8123-1.1599-1.0702,1.2749-.1471.2035.7952-.923,1.6097-1.8159,2.5012-2.6481.422-.394.8552-.7757,1.2986-1.1453.1597-.1331,1.1867-.9404.1939-.1733-.9913.7659.1651-.1076.3747-.256.9998-.7084,2.0383-1.3623,3.1079-1.9601.5076-.2837,1.0219-.555,1.5423-.8144.512-.2552,2.8092-1.2521.6031-.3326,2.1313-.8883,4.2684-1.6708,6.5271-2.1728.5083-.113,1.0192-.2144,1.5323-.3033.2852-.0494.5715-.0909.8572-.1364.9057-.1444-1.9172.2168-.6137.0905,1.1546-.1119,2.3083-.1893,3.469-.1882,1.0344.001,2.0578.0789,3.0877.1623,1.3232.1072-1.7294-.2937-.4217-.0614.2234.0397.4478.0728.6711.1135.6094.111,1.2148.2438,1.8146.3985.4861.1254.9683.2653,1.4457.4205.2582.084.5212.21.7851.2722.8212.1935-1.6008-.72-.482-.2323,1.0092.4399,1.9903.9276,2.9244,1.5122.4602.288.8835.6554,1.3495.9273-.0625-.0365-1.2472-1.0477-.518-.382.1625.1484.335.2868.4983.4346.4106.3716.8044.7621,1.1789,1.1701.1508.1643.2917.3385.4435.5017.7727.8314-.9194-1.3016-.0002-.0052.3322.4685.6426.9516.9304,1.4486.1756.3033.5834,1.5015.8573,1.6739-.0856-.0539-.5331-1.424-.1855-.4242.1025.2949.2151.5857.3128.8824.2156.654.4043,1.3103.5325,1.987.0251.1324.0459.5959.1272.7407l-.113-.8593c.0303.25.0565.5003.0789.7511.045.5045.074,1.0105.0886,1.5167.0392,1.3586-.0659,2.694-.1764,4.046-.0726.8884.2667-1.5878.0384-.2579-.0444.2585-.0823.518-.1275.7764-.1137.6497-.2462,1.2963-.3943,1.9389-.2986,1.2965-.6625,2.5783-1.0813,3.8411-.1049.3163-1.2209,3.3866-1.258,3.3704-.0229-.01.5863-1.3496.0695-.1919-.1342.3005-.2707.6-.4105.898-.3058.6517-.6248,1.2965-.9638,1.9316-1.2379,2.3193-2.5905,4.5778-4.0455,6.7674-.6721,1.0115-1.3656,2.0088-2.08,2.9909-.3041.418-1.0637,1.1357-1.2107,1.6239.2323-.7717.7025-.8935.2668-.3481-.2518.3152-.5009.6326-.7546.9463-1.694,2.0946-3.4844,4.1116-5.3608,6.0445-1.7876,1.8415-3.6518,3.6083-5.5851,5.2962-1.0193.8899-2.0577,1.7579-3.114,2.6035-.2114.1692-.4244.3364-.6363.505-.8942.7111.3464-.2746.4384-.3349-.6703.4398-1.2945.9792-1.9441,1.4513-4.4535,3.2362-9.1814,6.1017-14.1308,8.5138-1.1879.5789-2.3878,1.1388-3.5939,1.6789-.335.15-.6727.2941-1.008.4434-.9429.4198,1.764-.7204.3397-.1433-.6789.2751-1.3583.5481-2.043.8086-2.7333,1.04-5.5226,1.9346-8.3551,2.6629-2.6849.6903-5.4054,1.2217-8.1509,1.6039l1.9944-.268c-5.4329.7208-10.9234.8058-16.3633.1107.675.0907,1.35.1814,2.025.2721-5.0217-.6762-9.9226-1.9878-14.6018-3.9339l1.8451.7786c-4.1601-1.7647-8.0809-4.0128-11.6664-6.7662.5275.4075,1.0549.815,1.5824,1.2226-3.0442-2.3764-5.7877-5.0842-8.1678-8.1271l1.2352,1.5988c-2.2585-2.941-4.1295-6.1307-5.5776-9.5447l.7985,1.8921c-1.4164-3.4251-2.392-6.9945-2.913-10.6642.0943.7019.1886,1.4038.2829,2.1056-.4845-3.6492-.5088-7.3241-.0268-10.975-.0943.7019-.1886,1.4038-.2829,2.1056.4435-3.1212,1.2515-6.1575,2.4568-9.0716l-.7985,1.8921c1.0944-2.5656,2.4701-4.9801,4.1632-7.1984-.4128.5344-.8257,1.0687-1.2385,1.6031,1.4112-1.8002,2.9992-3.4255,4.8029-4.8347l-1.6031,1.2385c1.4001-1.0582,2.8845-1.9535,4.4907-2.6633l-1.8921.7985c1.4886-.6232,3.0209-1.0638,4.6197-1.2902-.7019.0943-1.4038.1886-2.1056.2829,1.3405-.1567,2.6663-.1461,4.0046.0282l-2.1012-.2823c1.3369.2038,2.6213.5582,3.8733,1.0696l-1.8833-.7948c1.1243.4879,2.1724,1.0833,3.1591,1.8107-.5306-.41-1.0613-.8199-1.5919-1.2299.8657.6707,1.6401,1.4162,2.3309,2.2666-.4091-.5295-.8182-1.059-1.2273-1.5886.5973.7778,1.0944,1.6001,1.4971,2.4942-.2633-.6238-.5265-1.2477-.7898-1.8715.3741.9032.6226,1.8188.78,2.7837l-.2793-2.0788c.1577,1.2416.142,2.4627-.0175,3.7028.0929-.6913.1858-1.3826.2787-2.0738-.2411,1.5367-.6801,3.0014-1.2619,4.4423.2614-.6193.5227-1.2386.7841-1.858-1.1771,2.7674-2.7962,5.2997-4.6236,7.68l1.2109-1.5673c-2.6924,3.4526-5.8037,6.531-9.2578,9.2196.5243-.4051,1.0487-.8102,1.573-1.2153-3.776,2.897-7.8952,5.2872-12.2763,7.1452.6213-.2622,1.2427-.5244,1.864-.7866-4.3919,1.8274-8.9808,3.0946-13.6929,3.752l2.0826-.2798c-4.4597.5899-8.959.6214-13.4219.0448l2.0903.2809c-4.4703-.6117-8.8182-1.818-12.9826-3.5511l1.8852.7956c-5.173-2.1947-9.8823-5.2269-14.3286-8.6433.5236.4045,1.0472.8091,1.5708,1.2136-1.2842-1.0003-2.5317-2.039-3.8333-3.0184-.1856-.1397-.371-.3141-.5712-.4312.129.0755,1.4269,1.1251.6497.4942-.4273-.347-.8551-.6928-1.275-1.0487-1.6633-1.4097-3.243-2.9182-4.7222-4.5202-.2154-.2333-.4972-.7968-.1202-.0293.4006.5856.3191.4977-.2444-.2635-.1939-.2632-.3949-.5207-.6032-.7724-.3437-.4133-.7043-.8126-1.0496-1.2246-.1912-.2281-.3799-.4582-.5669-.6897-.1138-.1409-.6327-.8161-.1025-.116.534.7052.0068.0066-.1012-.1375-.1834-.2444-.3601-.4939-.5439-.7379l-.8708-1.1271.4332.5386c-.0833.0248-1.0252-1.2921-1.2045-1.4918-.3085-.3436-.6119-.6916-.9101-1.0442-.333-.3938-.6546-.7959-.9783-1.1972.3872.48.1971.2535-.0702-.0983-.3204-.4218-.6046-.8666-1.0246-1.1926l1.0185,1.7476-.1318-.3411c-.7442-1.9261-2.6951-3.4704-4.8717-2.7661-1.8747.6067-3.5655,2.8027-2.7661,4.8717l.1318.3411v-2.1056c-.2734,1.6985.0354,3.3372.3304,5.0187.0934.5321.1956,1.0626.3061,1.5915.0606.2898.1084.5894.1904.8737.6213,1.401.7529,1.7305.3946.9883-.1993-.4267-.2079-.4213-.0257.0163.5303,1.4267,1.1591,2.8284,1.8039,4.2076.2297.4914.4419,1.0108.719,1.4779.7647,1.2894-.8333-2.2226.1913.2053.2546.6033.5288,1.1446.853,1.709,2.588,4.5057,5.7658,8.7841,9.6698,12.2255,7.9305,6.9911,18.3901,11.7736,28.8458,13.297,6.143.895,11.9891.8826,18.1337.0222,5.4858-.7682,10.6502-2.4406,15.726-4.6232,10.1274-4.3548,18.6986-11.5466,25.1409-20.4434,3.7216-5.1396,6.8059-11.5871,6.2605-18.0964-.5759-6.8726-4.5078-13.0044-10.7029-16.1851-5.5662-2.8577-12.1017-3.6502-18.0939-1.6342-6.4641,2.1747-11.4778,6.449-15.5311,11.822-3.2973,4.3708-5.6016,9.7029-6.774,15.04-1.3346,6.0753-1.3695,12.0328-.5022,18.1571,1.5674,11.0677,7.2934,21.5246,15.576,28.9991,8.3559,7.5407,18.9409,12.6631,30.0332,14.5787,12.1173,2.0926,24.5611.9487,36.1956-3.0206,21.887-7.4671,41.2137-23.5773,52.5719-43.7332,5.6538-10.0331,9.7204-21.3745,7.3155-32.9794-1.1146-5.3788-4.0293-10.5144-8.336-13.9734-4.6521-3.7364-9.9566-5.6131-15.8283-6.3613-11.002-1.402-22.1168,2.6786-30.3768,9.8759-9.7878,8.5285-13.85,22.6358-8.4315,34.6721,2.2442,4.9851,6.4866,9.2107,11.2492,11.8384,4.8824,2.6938,10.2472,3.9489,15.7276,4.6398,4.866.6134,9.8042.5017,14.6764.0104,5.5253-.5571,11.0081-1.5288,16.3465-3.068,10.2-2.9409,19.9908-7.6564,28.5594-13.9303,4.3388-3.1769,8.4411-6.6514,12.1314-10.567,3.8121-4.0448,7.6148-8.5182,10.1511-13.4825,2.5793-5.0484,4.373-10.7231,3.611-16.4441-.2053-1.5416-1.1768-2.8803-2.8803-2.8803-1.5909,0-2.8442,1.3188-2.8803,2.8803h0Z" style="fill:#7e96fc; stroke-width:0px;"/><path d="M756.0356,115.3848c1.0871-1.9188,2.0357-3.2974,3.1122-5.4816,1.0353-2.1007,1.8341-4.3366,2.7133-6.5077,1.5914-3.9298,3.2221-7.8453,4.7158-11.8134,1.4616-3.8825,2.9231-7.765,4.3847-11.6476.76-2.0189,1.52-4.0378,2.28-6.0567.758-2.0134,1.6636-4.0003,2.024-6.1273.609-3.5946-.6518-7.0384-4.1865-8.5301-3.1114-1.313-7.4235-.2773-9.0293,2.9585-2.0996,4.2309-3.0186,9.0668-4.2652,13.6087-1.1153,4.0637-2.2305,8.1274-3.3458,12.1911-1.1156,4.0649-2.0946,8.1652-3.1083,12.2566-.5162,2.0835-1.1188,4.163-1.4582,6.2833-.3736,2.3338-.5296,4.641-.7975,6.981-.1769,1.5452,1.2807,3.269,2.7423,3.6019,1.6043.3654,3.3786-.2344,4.2183-1.7166h0Z" style="fill:#7e96fc; stroke-width:0px;"/><path d="M824.5004,141.738c1.8032-1.6273,2.9006-3.811,4.1726-5.8556,1.1884-1.9102,2.4225-3.7916,3.5544-5.7359,2.2257-3.8235,4.5141-7.6107,6.8643-11.359,4.663-7.4371,9.5221-14.7713,14.5661-21.9555,1.4305-2.0375,2.8797-4.0618,4.3475-6.0726.7332-1.0045,1.505-1.9873,2.2163-3.0071,1.345-1.9282,1.764-3.9395,1.9761-6.2579.2096-2.2915-1.4247-4.6803-3.3211-5.7901-2.2387-1.3101-4.517-1.0123-6.7689,0-2.9994,1.3483-4.648,4.1473-6.3846,6.7999-1.1889,1.8159-2.363,3.6415-3.5224,5.4764-2.3616,3.7378-4.6618,7.5145-6.8994,11.3279-4.5188,7.7013-8.6185,15.6704-12.5144,23.7024-1.2277,2.5312-2.3191,5.1137-3.3849,7.7166-.4644,1.134-.9235,2.2702-1.3772,3.4086-.2252.5649-.4986,1.129-.6771,1.7101-.2695.8774-.3055,1.8541-.3763,2.7732-.133,1.7268,1.2182,3.4005,2.7112,4.0305,1.6802.709,3.4777.2975,4.8178-.9119h0Z" style="fill:#7e96fc; stroke-width:0px;"/><path d="M690.764,105.8533c.233-1.0187.3797-2.0702.4304-3.114.0516-1.0635-.0692-2.0987-.2169-3.1513-.0545-.3883-.1185-.7741-.205-1.1567-.1452-.6422-.4194-1.2317-.6899-1.8324-.4271-.9486-1.0657-1.6737-1.8633-2.3245-.4036-.3293-.8186-.6345-1.3305-.7754-.6568-.1809-1.3436-.1095-1.9633.152-.4957.2092-.8771.5028-1.2061.9286-.3695.4783-.7242,1.2016-.6474,1.827.0457.3724.0629.7432.0825,1.1175.0366.6982.2412,1.3176.3908,1.9876.1814.8125.4221,1.601.5415,2.4282l-.1285-.9566c.1481,1.1186.1524,2.2416.0049,3.3604l.1259-.9366c-.028.194-.0595.3871-.0947.58-.1726.946-.1467,1.8495.3539,2.7049.4261.7282,1.261,1.4226,2.0979,1.6132.8986.2047,1.9073.1604,2.7049-.3539.7499-.4835,1.4084-1.2027,1.6132-2.0979h0Z" style="fill:#7e96fc; stroke-width:0px;"/><path d="M882.903,178.2989c1.0827-2.1094,2.296-4.1449,3.6364-6.1009.6266-.9143,1.3886-1.772,1.9699-2.7118-.0854.138-.8184,1.0242-.1582.2169.1752-.2142.3464-.4316.5215-.646.3947-.4833.7964-.9608,1.2036-1.4336,3.0646-3.5581,6.3744-6.9222,9.8199-10.1106,7.4148-6.8614,15.321-13.2277,23.1767-19.5725,4.7793-3.8601,9.6006-7.6678,14.4603-11.4262-.5427.4193-1.0854.8385-1.628,1.2578,2.2045-1.703,4.4047-3.3993,6.5357-5.1941l-1.6372,1.2649c.2785-.2131.561-.3744.8805-.5185l-1.9274.8134c1.2106-.4564,2.3051-1.0524,3.4589-1.5852-.5997.2531-1.1994.5061-1.7991.7592.2459-.0936.4882-.1659.7473-.2117l-1.8951.2546c.1021-.0137.2037-.011.3048.0078l-1.8465-.2481c-3.262-4.7589-4.6505-6.0891-4.1655-3.9907.4591,2.1412,2.4112,3.8983,4.4634,4.4634,2.3121.6367,4.472-.1134,6.2177-1.6435,2.55-2.2351,2.9124-6.1595,1.3283-9.0325-1.1675-2.1175-3.2758-3.6707-5.6003-4.3231-2.6939-.7561-5.4829-.403-7.9118,1.0158-1.827,1.0673-3.6456,2.7138-5.262,4.1121-5.2915,4.5775-10.5267,9.2201-15.7039,13.9266-5.0443,4.5858-10.042,9.2251-14.9671,13.9388-4.3785,4.1906-8.6783,8.4845-12.546,13.1579-4.8445,5.8538-8.7302,12.3419-11.4655,19.433-.9582,2.4841.8602,5.3724,3.1008,6.3179,2.329.9828,5.465.1909,6.6876-2.1912h0Z" style="fill:#7e96fc; stroke-width:0px;"/><path d="M941.9778,215.0126c3.2567-1.3651,6.5133-2.7302,9.77-4.0953,1.5987-.6701,3.1975-1.3403,4.7962-2.0104,1.5299-.6413,3.0442-1.4026,4.6744-1.7473l-1.4599.1962c-.4566-.0378-.8897-.1551-1.2994-.3516-.5063-.2478-.6138-.274-.3226-.0787l-1.4683-1.4702c-.8125-1.5056-.6082-3.0837.6128-4.7342-1.3161,1.2322-1.607,3.3131-.9305,4.9162.7497,1.7765,2.2691,2.5539,4.1128,2.7665,2.2087.2547,4.2755-1.4745,5.0832-3.3884.962-2.2796.5716-4.9277-1.2232-6.7187-2.0002-1.9959-5.1038-2.4239-7.6402-1.3535-1.3591.5736-2.6248,1.3018-3.9166,2.0116-4.7521,2.6108-9.5042,5.2215-14.2563,7.8323-1.9663,1.0803-2.6844,3.6221-1.8414,5.6199.7806,1.8498,3.2367,3.4744,5.3092,2.6057h0Z" style="fill:#7e96fc; stroke-width:0px;"/><path d="M973.5835,248.5227h.25c.037,0,.0741,0,.1111,0h.0278c.6568.0248,1.2694-.1122,1.8379-.4109.4041-.1133.7549-.3178,1.0525-.6134.1949-.0981.3601-.2274.4955-.3879.4631-.4302.7905-.9397.982-1.5284.2974-.566.4337-1.1759.409-1.8298l-.1696-1.2625c-.2256-.8045-.6328-1.5031-1.2214-2.0957l-.0128-.015-.9655-.7459c-.5476-.3486-1.1388-.5373-1.7736-.5661-.214-.0574-.43-.0858-.648-.0852-.0417-.0003-.0833,0-.125,0h-.25c-.6568-.0248-1.2694.1122-1.8379.4109-.5914.1924-1.1032.5212-1.5353.9864-.4652.4321-.794.9438-.9864,1.5353-.2987.5685-.4356,1.1812-.4109,1.8379l.1704,1.2682c.2267.8081.6356,1.5098,1.2268,2.105l.9655.7459c.744.4315,1.5466.6486,2.4077.6513h0Z" style="fill:#7e96fc; stroke-width:0px;"/></svg>